<?xml version="1.0" standalone="no"?>
<!DOCTYPE svg PUBLIC "-//W3C//DTD SVG 1.1//EN" "http://www.w3.org/Graphics/SVG/1.1/DTD/svg11.dtd" >
<svg xmlns="http://www.w3.org/2000/svg" xmlns:xlink="http://www.w3.org/1999/xlink" version="1.1">
<metadata>
Created by FontForge 20170104 at Wed Dec 10 00:29:11 2014
 By myTaste
Copyright (c) 2012 SiliconAndhra (fonts.siliconandhra.org). Copyright (c) 2011, Joe Prince, Admix Designs (http://www.admixdesigns.com/) with Reserved Font Name Varela Round.
</metadata>
<defs>
<font id="NTR" horiz-adv-x="10" >
  <font-face 
    font-family="NTR"
    font-weight="400"
    font-stretch="normal"
    units-per-em="1024"
    panose-1="0 0 0 0 0 0 0 0 0 0"
    ascent="819"
    descent="-205"
    x-height="418"
    cap-height="576"
    bbox="-922 -877 1638 1294"
    underline-thickness="60"
    underline-position="-1130"
    unicode-range="U+0020-2193"
  />
<missing-glyph horiz-adv-x="891" 
d="M843 559l-71 -52q-35 59 -92 95l50 74q71 -47 113 -117zM610 730l-14 -88q-31 7 -64.5 7t-64.5 -7l-15 88q41 11 80 11t78 -11zM883 447q8 -42 8 -82t-8 -83l-85 15q7 32 7 66.5t-7 67.5zM843 170q-44 -72 -113 -117l-50 75q57 35 92 94zM382 602q-57 -36 -89 -95l-73 52
q43 70 113 117zM266 297l-87 -15q-8 39 -8 82t8 83l87 -16q-8 -33 -8 -67.5t8 -66.5zM610 -3q-39 -8 -78 -8t-80 8l15 90q31 -9 64.5 -9t64.5 9zM382 128l-49 -75q-70 45 -113 117l73 52q32 -59 89 -94z" />
    <glyph glyph-name=".notdef" horiz-adv-x="891" 
d="M843 559l-71 -52q-35 59 -92 95l50 74q71 -47 113 -117zM610 730l-14 -88q-31 7 -64.5 7t-64.5 -7l-15 88q41 11 80 11t78 -11zM883 447q8 -42 8 -82t-8 -83l-85 15q7 32 7 66.5t-7 67.5zM843 170q-44 -72 -113 -117l-50 75q57 35 92 94zM382 602q-57 -36 -89 -95l-73 52
q43 70 113 117zM266 297l-87 -15q-8 39 -8 82t8 83l87 -16q-8 -33 -8 -67.5t8 -66.5zM610 -3q-39 -8 -78 -8t-80 8l15 90q31 -9 64.5 -9t64.5 9zM382 128l-49 -75q-70 45 -113 117l73 52q32 -59 89 -94z" />
    <glyph glyph-name=".null" horiz-adv-x="162" 
 />
    <glyph glyph-name="nonmarkingreturn" horiz-adv-x="172" 
 />
    <glyph glyph-name="space" unicode=" " horiz-adv-x="231" 
 />
    <glyph glyph-name="exclam" unicode="!" horiz-adv-x="229" 
d="M115 158q-26 0 -27 24l-15 270v82q0 18 12.5 30t29.5 12q18 0 30.5 -12.5t12.5 -29.5v-82l-16 -270q-1 -24 -27 -24zM81.5 80q14.5 14 34.5 14t34.5 -14t14.5 -34t-14.5 -34.5t-34.5 -14.5t-34.5 14.5t-14.5 34.5t14.5 34z" />
    <glyph glyph-name="quotedbl" unicode="&#x22;" horiz-adv-x="336" 
d="M55 493.5q-3 19.5 -4.5 36.5t-1.5 37t12.5 32.5t29.5 12.5q16 0 29 -12t13 -32.5t-1.5 -37.5t-4 -36.5t-6.5 -38t-7 -29.5q-4 -23 -23 -23q-10 0 -16 6t-8 17t-5.5 29.5t-6.5 38zM209 493.5q-3 19.5 -4 36.5t-1 37t13 32.5t29 12.5t28 -12q13 -12 13 -32.5t-1 -37.5
t-4 -36.5t-6.5 -38t-5.5 -29.5q-5 -23 -24 -23q-10 0 -16 6t-8.5 17t-6 29.5t-6.5 38z" />
    <glyph glyph-name="numbersign" unicode="#" horiz-adv-x="500" 
d="M110 4q-8 8 -8 15.5t20 129.5h-64q-11 0 -19.5 8.5t-8.5 20.5q0 11 8 19.5t20 8.5h72l20 125h-63q-11 0 -20 8.5t-9 20.5q0 11 8.5 19.5t20.5 8.5h72l20 130q2 9 10 16t20 7t20 -8.5t8 -15t-0.5 -9t-2 -14.5t-5.5 -37l-12 -69h104l21 130q2 9 9.5 16t19.5 7t20 -8.5
t8 -15t-0.5 -9t-2 -14.5t-6.5 -37l-11 -69h63q11 0 20 -8.5t9 -19.5t-8.5 -20t-20.5 -9h-72l-20 -125h64q11 0 19.5 -8t8.5 -20q0 -11 -8.5 -20t-19.5 -9h-72l-21 -129q-2 -9 -9.5 -16.5t-18.5 -7.5t-20 8t-9 15.5t19 129.5h-104l-20 -129q-2 -9 -9.5 -16.5t-19.5 -7.5
t-20 8zM312 331h-104l-19 -125h104z" />
    <glyph glyph-name="dollar" unicode="$" horiz-adv-x="500" 
d="M274 317q34 -8 68.5 -19t62.5 -28q62 -41 61 -119q0 -66 -52 -110q-53 -44 -140 -49v-64q0 -8 -5.5 -13t-14.5 -5q-18 0 -17 18v64q-93 4 -175 39q-23 10 -23.5 28t9 28t21 10t28.5 -7q58 -26 140 -28v187q-91 24 -125 46t-51 49t-17 64t12.5 66t37.5 52q53 48 143 53v64
q0 8 4.5 13.5t12.5 5.5t14 -5.5t6 -13.5v-63q82 -3 145 -27q23 -8 23 -33q0 -12 -8.5 -23t-18.5 -11t-28 7q-50 18 -113 19v-195zM118 418q0 -54 72 -79q22 -7 47 -13v184q-52 -5 -85.5 -28t-33.5 -64zM274 62q84 6 109 53q9 18 9 38.5t-9 33.5t-26 23q-24 14 -83 30v-178z
" />
    <glyph glyph-name="percent" unicode="%" horiz-adv-x="666" 
d="M167 586q63 0 99 -43q34 -40 33.5 -104t-33.5 -104q-35 -42 -99 -42q-62 0 -98 42q-34 38 -34 104q0 101 75 135q24 12 57 12zM167 346q37 0 56 27t19 66t-19 66.5t-56 27.5t-55.5 -27.5t-18.5 -66.5t18.5 -66t55.5 -27zM500 278q63 0 98 -42q34 -40 34 -104t-34 -104
q-35 -42 -98 -42q-62 0 -98 42q-34 38 -34 104q0 101 74 135q25 11 58 11zM500 38q37 0 55.5 27.5t18.5 66.5t-18.5 66.5t-55.5 27.5t-56 -27.5t-19 -66.5t19 -66.5t56 -27.5zM520.5 572.5q7.5 -6.5 7.5 -16.5t-6 -19l-330 -531q-9 -14 -22 -14t-21.5 7.5t-8.5 17t4 16.5
l334 533q8 13 21.5 13t21 -6.5z" />
    <glyph glyph-name="ampersand" unicode="&#x26;" horiz-adv-x="599" 
d="M427 56q-74 -64 -168 -64q-101 0 -155 54q-46 46 -46 115q0 56 34 102q26 35 58 55q-22 26 -35.5 53t-13.5 61t10.5 60t30.5 46q42 42 112 42q55 0 109 -36q14 -8 14.5 -22t-7.5 -23t-18 -9t-22 8q-35 19 -64.5 18.5t-46 -7t-27.5 -17.5q-22 -22 -22 -46t4 -38t15 -28
q14 -22 62 -66l171 -162q14 22 23 40.5t17.5 24.5t21.5 6t22.5 -9.5t9.5 -20.5q0 -26 -43 -87l54 -52q13 -11 13.5 -25.5t-8.5 -24.5t-24.5 -10t-25.5 9zM196 272q-45 -29 -62 -75q-6 -18 -5.5 -40t10 -41t26.5 -33q34 -29 81 -28.5t77.5 14t54.5 32.5z" />
    <glyph glyph-name="quotesingle" unicode="'" horiz-adv-x="194" 
d="M143.5 595.5q13.5 -13.5 13.5 -33.5v-48q0 -43 -23 -76q-15 -25 -44 -43q-4 -4 -14.5 -4.5t-17 7.5t-6.5 19.5t12 18.5q18 10 30 26t12 50h-4q-19 0 -32 13.5t-13 32.5v4q0 19 13 33t32 14h8q20 0 33.5 -13.5z" />
    <glyph glyph-name="parenleft" unicode="(" horiz-adv-x="255" 
d="M212 -76q5 -9 5 -20.5t-9.5 -20.5t-21.5 -9t-17.5 4t-10.5 11q-59 70 -87.5 164.5t-28.5 197.5t28 198t88 165q6 6 11 10.5t17 4.5t21.5 -9t9.5 -21t-5 -20q-96 -161 -96 -328q0 -166 96 -327z" />
    <glyph glyph-name="parenright" unicode=")" horiz-adv-x="255" 
d="M49 -117q-10 9 -10 20.5t5 20.5q96 161 96 327q0 167 -96 328q-5 8 -5 20t10 21t21.5 9t17.5 -4t11 -11q59 -70 87 -165t28 -198t-28 -197.5t-87 -164.5q-6 -6 -11.5 -10.5t-17 -4.5t-21.5 9z" />
    <glyph glyph-name="asterisk" unicode="*" horiz-adv-x="341" 
d="M194 445l81 -32q11 -6 11 -16q0 -22 -17 -28q-11 -4 -21 3q-2 2 -22 18t-44 35q5 -31 8 -48l4 -27q1 -8 1 -9.5v-7t-8 -12.5t-17 -7t-16.5 7t-7.5 13v7q0 4 4 28.5t9 55.5q-69 -55 -73.5 -57t-13.5 1q-18 6 -18 22t12 22q1 0 2.5 0.5t9 4t24 10t45.5 17.5l-81 32
q-11 7 -12 17q0 22 18 28q9 3 18 -3q1 0 22.5 -17.5t46.5 -36.5q-13 82 -13 84v2q0 10 8 17t16 7q9 0 17 -6.5t8 -12.5t-0.5 -7.5t-0.5 -9.5l-4 -26q-2 -18 -8 -48q69 55 68 54q9 6 19 3q18 -6 17.5 -22t-11.5 -23q-1 0 -2.5 -1t-9.5 -4t-23.5 -9.5t-45.5 -17.5z" />
    <glyph glyph-name="plus" unicode="+" horiz-adv-x="460" 
d="M419 305.5q9 -8.5 9 -23.5q0 -14 -9 -22.5t-23 -8.5h-134v-134q0 -14 -9 -23t-23 -9t-23 9t-9 23v134h-134q-14 0 -22.5 9t-8.5 22q0 14 8.5 23t22.5 9h134v135q0 14 9 23t23 9t23 -9t9 -23v-135h134q14 0 23 -8.5z" />
    <glyph glyph-name="comma" unicode="," horiz-adv-x="212" 
d="M143.5 80.5q13.5 -13.5 13.5 -32.5v-48q0 -43 -23 -77q-15 -25 -44 -43q-4 -4 -14.5 -4t-17 7.5t-6.5 19t12 19.5q18 10 30 26t12 50h-4q-19 0 -32 13.5t-13 31.5v5q0 19 13 32.5t32 13.5h8q20 0 33.5 -13.5z" />
    <glyph glyph-name="hyphen" unicode="-" horiz-adv-x="333" 
d="M268 253q10 -10 10 -23q0 -14 -10 -23.5t-24 -9.5h-154q-14 0 -23.5 9t-9.5 24q0 14 9 23.5t24 9.5h154q14 0 24 -10z" />
    <glyph glyph-name="period" unicode="." horiz-adv-x="212" 
d="M143.5 80.5q13.5 -13.5 13.5 -32.5v-5q0 -19 -13.5 -32t-33.5 -13h-8q-19 0 -32 13.5t-13 31.5v5q0 19 13 32.5t32 13.5h8q20 0 33.5 -13.5z" />
    <glyph glyph-name="slash" unicode="/" horiz-adv-x="362" 
d="M259 603q7 23 33 23q14 0 23.5 -10t9.5 -18q0 -13 -3 -18l-217 -635q-7 -23 -32 -23q-14 0 -24 10t-10 19q0 12 3 17z" />
    <glyph glyph-name="zero" unicode="0" horiz-adv-x="514" 
d="M258 580q55 0 96.5 -21t68.5 -61q56 -77 56 -212q0 -136 -56 -213q-59 -81 -166 -81t-166 81q-56 77 -56 213q0 135 56 212q59 82 167 82zM258 61q72 0 109 61q38 60 38 164t-38 164q-38 61 -110.5 60.5t-109.5 -61t-37 -163.5q0 -105 37 -164q39 -61 111 -61z" />
    <glyph glyph-name="one" unicode="1" horiz-adv-x="514" 
d="M423.5 59.5q10.5 -10.5 10.5 -25.5q0 -14 -10.5 -24t-25.5 -10h-253q-14 0 -24.5 10t-10.5 24t10 25t25 11h97v415l-83 -41q-4 -2 -8.5 -3.5t-15 -1.5t-20.5 9.5t-10 29.5t21 30l112 58q11 6 23 6h17q16 0 27.5 -11.5t11.5 -27.5v-463h81q15 0 25.5 -10.5z" />
    <glyph glyph-name="two" unicode="2" horiz-adv-x="514" 
d="M438 59.5q10 -10.5 10 -25.5q0 -14 -10 -24t-25 -10h-316q-19 0 -31 12t-12 30q0 43 24 78t60 64.5t79 55.5t79.5 52t60.5 54t24 56t-7 46.5t-22 31.5q-33 30 -101 30q-73 0 -140 -30q-8 -4 -18.5 -4t-19 9t-8.5 26t17 27q83 42 183 42q80 0 133 -46q55 -46 55 -120
t-75 -144q-33 -30 -71.5 -55.5t-74.5 -50t-65 -47.5t-39 -47h285q15 0 25 -10.5z" />
    <glyph glyph-name="three" unicode="3" horiz-adv-x="514" 
d="M433 433q0 -99 -99 -137q78 -19 107 -82q12 -26 12 -65t-16.5 -68t-45.5 -49q-58 -40 -150 -40q-90 0 -171 33q-22 10 -22 31q0 13 9 23.5t20.5 10.5t27.5 -7q50 -21 122 -20q102 0 139 47q13 18 12 44q0 103 -180 104h-14q-14 0 -24 10t-10 24t10 24t24 10h6
q169 0 168 99q0 38 -31.5 61.5t-97.5 23.5q-67 0 -127 -27q-6 -3 -17 -3t-19.5 8.5t-8.5 25t16 24.5q77 42 167 42t141.5 -38.5t51.5 -108.5z" />
    <glyph glyph-name="four" unicode="4" horiz-adv-x="514" 
d="M454 210q14 0 24 -9.5t10 -23.5t-9.5 -23.5t-24.5 -9.5h-62v-111q0 -15 -11 -26t-27 -11q-15 0 -25.5 11t-10.5 26v111h-250q-20 0 -33.5 13.5t-13.5 33.5v7q0 18 9 30l257 328q14 20 42 20h16q22 0 34.5 -14t12.5 -34v-318h62zM318 210v281l-218 -281h218z" />
    <glyph glyph-name="five" unicode="5" horiz-adv-x="514" 
d="M138 329q62 34 139 33q91 0 142 -52q48 -50 49 -133q0 -130 -124 -171q-42 -14 -100 -14q-100 0 -175 47q-16 10 -16 26.5t8.5 27.5t20.5 11t29 -9q57 -30 123 -29q117 0 148 60q11 22 12 55q0 50 -34 80t-85 30q-76 0 -135 -36q-18 -10 -34.5 -9.5t-32 13t-15.5 35.5
q0 11 1 19l37 218q2 19 14 30t29 11h263q14 0 25 -10.5t11 -24.5t-10.5 -24.5t-25.5 -10.5h-237z" />
    <glyph glyph-name="six" unicode="6" horiz-adv-x="514" 
d="M228 364q26 6 64 6t72 -13.5t58 -38.5q53 -54 53 -140q0 -79 -54 -132q-56 -54 -148 -54q-94 0 -148 50q-65 62 -75 183q-2 33 -2 70.5t12 90t39.5 95t73 71t105.5 28.5t94 -11t59 -24q18 -10 17.5 -26.5t-9.5 -26.5t-21 -10t-24 6q-44 20 -100 20t-88.5 -22.5
t-51.5 -54.5q-30 -54 -34 -133q36 48 108 66zM208 74q27 -12 61 -12t57.5 9t39.5 26q34 34 34.5 85.5t-30 85.5t-92.5 34q-64 0 -106 -32q-30 -22 -48 -58q14 -106 84 -138z" />
    <glyph glyph-name="seven" unicode="7" horiz-adv-x="514" 
d="M451.5 559.5q13.5 -12.5 13.5 -31t-9 -36.5l-232 -476q-11 -21 -31.5 -20.5t-31 10.5t-10.5 23t6 24l225 448h-298q-14 0 -24.5 10t-10.5 25q0 14 10.5 25t24.5 11h334q20 0 33.5 -12.5z" />
    <glyph glyph-name="eight" unicode="8" horiz-adv-x="514" 
d="M449 430q0 -25 -7.5 -44.5t-21.5 -35.5q-25 -29 -66 -44q55 -19 88.5 -55.5t33.5 -99.5q0 -65 -48 -107q-59 -53 -170 -52q-111 0 -171 52q-48 42 -48.5 106t33.5 100.5t89 55.5q-66 23 -87 79q-8 21 -8 45t9.5 50.5t32.5 49.5q52 50 150 50t148 -50q43 -42 43 -100z
M258 58q74 0 112 37q31 29 31.5 60.5t-11.5 52.5t-33 34q-39 28 -99 28t-100 -28q-44 -30 -45 -82q0 -36 31 -65q40 -37 114 -37zM258 338q61 0 91 30q26 25 25.5 59.5t-29 60.5t-87.5 26q-60 0 -89 -26t-29 -61t28.5 -62t89.5 -27z" />
    <glyph glyph-name="nine" unicode="9" horiz-adv-x="514" 
d="M286 208q-26 -6 -63.5 -6t-72 13.5t-58.5 38.5q-53 54 -53 140q0 80 55 132q58 54 148 54q94 0 148 -50q65 -62 74 -183q2 -33 2 -71t-12 -90t-39.5 -95t-73 -71t-105 -28t-94 11t-59.5 24q-18 10 -17.5 26.5t9.5 26.5t20.5 10t26.5 -7q46 -20 99.5 -19.5t87 23
t52.5 54.5q30 54 34 133q-37 -48 -109 -66zM306 498q-27 12 -61 12t-57 -9.5t-40 -25.5q-34 -34 -34 -85.5t30 -85.5t92 -34q64 0 106 32q30 22 48 58q-14 106 -84 138z" />
    <glyph glyph-name="colon" unicode=":" horiz-adv-x="212" 
d="M110 94q19 0 33 -13.5t14 -32.5v-5q0 -19 -13.5 -32t-33.5 -13h-8q-19 0 -32 13.5t-13 31.5v5q0 19 13 32.5t32 13.5h8zM110 420q19 0 33 -13t14 -33v-4q0 -19 -13.5 -33t-33.5 -14h-8q-19 0 -32 13.5t-13 33.5v4q0 19 13 32.5t32 13.5h8z" />
    <glyph glyph-name="semicolon" unicode=";" horiz-adv-x="212" 
d="M110 94q19 0 33 -13.5t14 -32.5v-48q0 -43 -23 -77q-15 -25 -44 -43q-4 -4 -14.5 -4t-17 7.5t-6.5 19t12 19.5q18 10 30 26t12 50h-4q-19 0 -32 13.5t-13 31.5v5q0 19 13 32.5t32 13.5h8zM110 420q19 0 33 -13t14 -33v-4q0 -19 -13.5 -33t-33.5 -14h-8q-19 0 -32 13.5
t-13 33.5v4q0 19 13 32.5t32 13.5h8z" />
    <glyph glyph-name="less" unicode="&#x3c;" horiz-adv-x="474" 
d="M421.5 56.5q-9.5 -9.5 -20.5 -9.5t-16 3l-327 147q-30 14 -29 42v7q0 29 29 42l327 147q6 2 16.5 2.5t20 -9.5t9.5 -22q0 -24 -22 -32l-295 -132l295 -131q10 -4 16 -12.5t6 -20.5t-9.5 -21.5z" />
    <glyph glyph-name="equal" unicode="=" horiz-adv-x="583" 
d="M92 331q-14 0 -23 9t-9 23t9 23t23 9h399q14 0 23 -9t9 -23t-8.5 -23t-23.5 -9h-399zM491 211q14 0 23 -8.5t9 -23.5q0 -14 -8.5 -23t-23.5 -9h-399q-14 0 -23 9.5t-9 22.5q0 14 9 23t23 9h399z" />
    <glyph glyph-name="greater" unicode="&#x3e;" horiz-adv-x="474" 
d="M90 50q-6 -2 -16.5 -2.5t-20 9t-9.5 21.5q0 24 22 33l296 131l-296 132q-10 4 -16 12.5t-6 20t9.5 21.5t19.5 10t17 -3l327 -147q30 -14 29 -42v-7q0 -29 -29 -42z" />
    <glyph glyph-name="question" unicode="?" horiz-adv-x="406" 
d="M297 421q0 90 -118 89q-64 0 -105 -27q-10 -6 -22 -6t-21 9.5t-9 21.5q0 21 20 33q64 39 144 39q84 0 133 -42q50 -42 51 -113q0 -74 -76 -130q-45 -34 -65 -65q-11 -19 -11.5 -39.5t-11.5 -29.5t-25.5 -9t-25 9.5t-10.5 22.5q0 81 76 141q49 39 62.5 57t13.5 39z
M145.5 80q14.5 14 34.5 14t34.5 -14t14.5 -34t-14.5 -34.5t-34.5 -14.5t-34.5 14.5t-14.5 34.5t14.5 34z" />
    <glyph glyph-name="at" unicode="@" horiz-adv-x="735" 
d="M375 420q61 0 105 -42l2 14q2 11 11 18.5t20.5 7.5t20 -8.5t8.5 -15.5v-10v-6l-28 -155q-6 -34 -5.5 -54.5t9.5 -36.5t32 -16q52 0 78.5 45t26.5 111.5t-23 112t-62 74.5q-76 61 -183 61q-62 0 -117.5 -24.5t-97 -66.5t-66 -97t-24.5 -108.5t16 -96.5t48 -77
q70 -76 182 -76q54 0 83 8q38 10 65.5 21t34 11t12 -5.5t5.5 -16.5t-11 -17q-87 -43 -189 -43q-66 0 -119 23t-91 62.5t-58 90.5t-20 114t28 126t75 111t110 76.5t130 28.5t124.5 -21t100 -58.5t67 -89.5t24.5 -115q0 -82 -34 -138q-42 -65 -118 -64q-62 0 -83 38
q-6 11 -9 22q-50 -62 -135 -61q-66 0 -104 41q-35 39 -35 95t16.5 93t44.5 63q55 51 133 51zM471 325q-35 38 -93 37q-56 0 -93 -34q-41 -38 -41 -98q0 -48 28 -74q25 -22 66 -22q70 0 102 58q12 22 18 56z" />
    <glyph glyph-name="A" unicode="A" horiz-adv-x="570" 
d="M546 49q4 -10 4 -20.5t-9.5 -21.5t-31 -11t-31.5 23l-53 127h-279l-52 -127q-10 -23 -31.5 -23t-31 11t-9.5 21.5t4 20.5l208 493q14 34 48 34h8q33 0 48 -34zM397 214l-111 267l-111 -267h222z" />
    <glyph glyph-name="B" unicode="B" horiz-adv-x="567" 
d="M493 423q0 -89 -80 -125q78 -26 103 -87q9 -23 9 -54.5t-11.5 -61t-36.5 -51.5q-53 -44 -163 -44h-198q-15 0 -26 11t-11 26v497q0 15 11 26.5t26 11.5h194q90 0 136.5 -41.5t46.5 -107.5zM422 418q0 38 -30.5 61t-87.5 23h-150v-177h136q106 0 126 56q6 17 6 37zM307 70
q116 0 139 56q7 18 7 38q0 49 -37 71.5t-108 22.5h-154v-188h153z" />
    <glyph glyph-name="C" unicode="C" horiz-adv-x="571" 
d="M490 102q6 3 18 3t21 -9.5t9 -21.5q0 -22 -19 -32q-38 -22 -81.5 -36t-105 -14t-114 20t-90.5 58q-82 80 -82 216q0 135 82 216q79 78 205 78q61 0 104.5 -15t66.5 -27.5t28.5 -20t5.5 -19.5t-9 -21.5t-20.5 -9.5t-18.5 3q-33 18 -67.5 28.5t-85.5 10.5t-92.5 -17.5
t-69.5 -47.5q-55 -60 -54 -158q0 -98 54 -158q60 -65 165 -65q48 0 82.5 10.5t67.5 28.5z" />
    <glyph glyph-name="D" unicode="D" horiz-adv-x="614" 
d="M281 572q137 0 218 -92q36 -40 53.5 -91t17.5 -103t-17.5 -103t-53.5 -91q-81 -92 -218 -92h-165q-15 0 -26 11t-11 26v497q0 15 11 26.5t26 11.5h165zM272 70q102 0 164 60q61 60 61 156t-61 156q-62 60 -164 60h-118v-432h118z" />
    <glyph glyph-name="E" unicode="E" horiz-adv-x="522" 
d="M469.5 59.5q10.5 -10.5 10.5 -25.5q0 -14 -10.5 -24t-24.5 -10h-329q-15 0 -26 11t-11 26v497q0 15 11 26.5t26 11.5h329q14 0 24.5 -10.5t10.5 -24.5t-10.5 -24.5t-24.5 -10.5h-291v-181h261q14 0 24.5 -10t10.5 -25q0 -14 -10 -24.5t-25 -10.5h-261v-181h291
q14 0 24.5 -10.5z" />
    <glyph glyph-name="F" unicode="F" horiz-adv-x="499" 
d="M154 502v-181h252q14 0 25 -10t11 -25q0 -14 -10.5 -24.5t-25.5 -10.5h-252v-218q0 -15 -11 -26t-27 -11q-15 0 -26 11t-11 26v501q0 15 11 26.5t26 11.5h319q14 0 24.5 -10.5t10.5 -24.5t-10 -24.5t-25 -10.5h-281z" />
    <glyph glyph-name="G" unicode="G" horiz-adv-x="608" 
d="M342 62q77 0 144 36v148h-136q-14 0 -23.5 10t-9.5 24t10 24t23 10h162q16 0 27.5 -11.5t11.5 -28.5v-185q0 -18 -8.5 -31.5t-22.5 -19.5q-92 -46 -187 -46q-129 0 -208 82t-80 211q0 130 83 215q79 80 202 80q70 0 118 -17t86 -42q16 -9 16 -26t-8.5 -27t-21.5 -10
t-21 4q-79 46 -161 46q-95 0 -156 -58q-63 -61 -62 -165q0 -97 58 -159q61 -64 164 -64z" />
    <glyph glyph-name="H" unicode="H" horiz-adv-x="618" 
d="M502 576q15 0 26 -11t11 -27v-505q0 -15 -11 -26t-26 -11t-26 11t-11 26v217h-311v-217q0 -15 -11 -26t-27 -11q-15 0 -26 11t-11 26v505q0 15 11 26.5t26 11.5t26.5 -11t11.5 -27v-218h311v218q0 15 11 26.5t26 11.5z" />
    <glyph glyph-name="I" unicode="I" horiz-adv-x="232" 
d="M116 576q15 0 26.5 -11t11.5 -27v-505q0 -15 -11 -26t-27 -11q-15 0 -26 11t-11 26v505q0 15 11 26.5t26 11.5z" />
    <glyph glyph-name="J" unicode="J" horiz-adv-x="381" 
d="M268 576q15 0 26.5 -11t11.5 -27v-349q0 -107 -54 -158q-42 -39 -115 -39q-60 0 -109 28q-18 10 -18 26.5t8.5 26.5t19.5 10t23 -5q31 -15 60 -15.5t47 4t32 17.5q31 30 31 99v355q0 15 11 26.5t26 11.5z" />
    <glyph glyph-name="K" unicode="K" horiz-adv-x="548" 
d="M515 56q9 -11 9 -25.5t-10 -24.5t-27 -10t-29 14l-211 270l-93 -94v-153q0 -15 -11 -26t-27 -11q-15 0 -26 11t-11 26v505q0 15 11 26.5t26 11.5t26.5 -11t11.5 -27v-260l280 284q10 13 26.5 13.5t26.5 -9t10 -25t-10 -23.5l-189 -188z" />
    <glyph glyph-name="L" unicode="L" horiz-adv-x="471" 
d="M448.5 63.5q10.5 -10.5 10.5 -26.5q0 -15 -10.5 -26t-26.5 -11h-291q-22 0 -37 15t-15 37v486q0 15 11 26.5t26 11.5t26.5 -11t11.5 -27v-464h268q16 0 26.5 -10.5z" />
    <glyph glyph-name="M" unicode="M" horiz-adv-x="791" 
d="M696.5 560q15.5 -16 15.5 -38v-489q0 -15 -11 -26t-26 -11t-26 11t-11 26v465l-190 -468q-6 -15 -20 -24.5t-32 -9.5t-32 9t-21 25l-189 468v-465q0 -15 -11 -26t-27 -11q-15 0 -26 11t-11 26v489q0 22 15.5 38t38.5 16h27q16 0 29.5 -10t20.5 -24l186 -464l186 464
q6 14 19.5 24t30.5 10h26q23 0 38.5 -16z" />
    <glyph glyph-name="N" unicode="N" horiz-adv-x="657" 
d="M541 576q15 0 26 -11t11 -27v-489q0 -22 -16 -37.5t-38 -15.5h-10q-27 0 -43 22l-317 458v-443q0 -15 -11 -26t-27 -11q-15 0 -26 11t-11 26v489q0 22 15.5 38t38.5 16h10q26 0 46 -25l315 -455v442q0 15 11 26.5t26 11.5z" />
    <glyph glyph-name="O" unicode="O" horiz-adv-x="664" 
d="M333 580q130 0 208 -82q76 -81 79 -212q-3 -130 -79 -212q-78 -82 -208 -82t-208 82t-80 212q2 130 80 212t208 82zM333 62q100 0 157 64q56 62 56 160t-56 160q-58 65 -157 64q-100 0 -158 -64q-56 -62 -55 -160q0 -98 55 -160q58 -64 158 -64z" />
    <glyph glyph-name="P" unicode="P" horiz-adv-x="548" 
d="M303 572q114 0 171 -59q47 -47 48 -123q0 -75 -48 -123q-58 -59 -171 -59h-149v-175q0 -15 -11 -26t-27 -11q-15 0 -26 11t-11 26v501q0 15 11 26.5t26 11.5h187zM296 278q84 0 122 36q30 28 29 76q0 76 -76 101q-30 10 -75 11h-142v-224h142z" />
    <glyph glyph-name="Q" unicode="Q" horiz-adv-x="664" 
d="M382 -5q-23 -3 -49 -3q-130 0 -208 82t-80 212q2 130 80 212t208 82t208 -82q76 -81 79 -212q-2 -97 -46 -168.5t-124 -103.5l72 -80q10 -10 10.5 -24t-10 -24.5t-25.5 -10.5t-26 14zM333 62q100 0 157 64q56 62 56 160t-56 160q-58 65 -157 64q-100 0 -158 -64
q-56 -62 -55 -160q0 -98 55 -160q58 -64 158 -64z" />
    <glyph glyph-name="R" unicode="R" horiz-adv-x="583" 
d="M525 33q0 -15 -10.5 -26t-27 -11t-27 10t-10.5 27v25q0 66 -14.5 97t-40 49.5t-72.5 18.5h-169v-190q0 -15 -11 -26t-27 -11q-15 0 -26 11t-11 26v501q0 15 11 26.5t26 11.5h191q112 0 170 -48q54 -45 53 -118q0 -47 -26.5 -88.5t-81.5 -59.5q59 -15 86 -86
q18 -46 17 -102v-37zM302 294q69 0 111 26.5t42 79.5q0 49 -33 74q-39 28 -124 28h-144v-208h148z" />
    <glyph glyph-name="S" unicode="S" horiz-adv-x="504" 
d="M252 62q143 0 144 95q0 39 -55 62q-24 10 -55.5 18t-63.5 17t-64 20.5t-56 29.5q-54 41 -55 108q0 72 55 118q59 50 158 50q90 0 162 -27q23 -8 24 -33q0 -12 -8.5 -23t-19 -11t-28.5 6q-54 19 -122 19q-63 0 -104 -24q-42 -25 -42 -69q0 -46 54 -71q25 -11 56 -18.5
t64 -15.5t63.5 -19.5t55.5 -28.5q54 -39 55 -114q0 -70 -57 -114q-58 -45 -153 -45q-104 0 -195 39q-9 4 -16 13.5t-7 21.5t9 22.5t20.5 10.5t29 -8t57.5 -18.5t94 -10.5z" />
    <glyph glyph-name="T" unicode="T" horiz-adv-x="500" 
d="M479 561.5q10 -10.5 10 -24.5t-10 -24.5t-25 -10.5h-167v-469q0 -15 -10.5 -26t-26.5 -11q-15 0 -26 11t-11 26v469h-167q-14 0 -24.5 10t-10.5 25q0 14 10 24.5t25 10.5h408q15 0 25 -10.5z" />
    <glyph glyph-name="U" unicode="U" horiz-adv-x="620" 
d="M508 576q15 0 26.5 -11t11.5 -27v-324q0 -107 -77 -168q-66 -54 -159 -54q-94 0 -159 54q-76 62 -76 168v324q0 15 11 26.5t26 11.5t26.5 -11t11.5 -27v-326q0 -73 50 -114q46 -38 110 -38q65 0 111 38q50 42 50 114v326q0 15 11 26.5t26 11.5z" />
    <glyph glyph-name="V" unicode="V" horiz-adv-x="568" 
d="M284 70l193 480q10 26 31.5 26t31 -11t9.5 -23t-3 -18l-202 -490q-18 -38 -50 -38h-19q-34 0 -50 38l-203 490q-2 6 -2 18t9.5 23t24.5 11q27 0 38 -26z" />
    <glyph glyph-name="W" unicode="W" horiz-adv-x="824" 
d="M413 576q14 0 26 -9t16 -22l139 -451l137 452q9 30 38 30q16 0 26 -9.5t10 -20.5t-3 -20l-160 -493q-13 -37 -49 -37q-16 0 -29.5 10t-18.5 27l-132 417l-132 -417q-5 -16 -18.5 -26.5t-29.5 -10.5q-35 0 -49 37l-160 493q-2 9 -2 20t9.5 20.5t24.5 9.5q30 0 38 -30
l138 -452l138 451q4 14 16.5 22.5t26.5 8.5z" />
    <glyph glyph-name="X" unicode="X" horiz-adv-x="548" 
d="M506 54q7 -9 7 -22.5t-10 -24.5t-23 -11q-22 0 -34 15l-175 221l-173 -222q-12 -14 -27 -14t-25.5 10t-10.5 23.5t7 24.5l190 232l-188 231q-7 10 -7 24t10.5 24.5t28 10.5t27.5 -15l173 -219l173 220q9 13 25 13.5t27 -10t11 -23t-6 -22.5l-190 -234z" />
    <glyph glyph-name="Y" unicode="Y" horiz-adv-x="528" 
d="M436 557q12 19 30.5 19t28.5 -11t10 -25t-7 -24l-196 -274v-209q0 -15 -11 -26t-26 -11t-26.5 11t-11.5 26v209l-196 274q-6 10 -6 24t9.5 25t28 11t31.5 -19l171 -249z" />
    <glyph glyph-name="Z" unicode="Z" horiz-adv-x="522" 
d="M476 59.5q10 -10.5 10 -25.5q0 -14 -10 -24t-26 -10h-364q-20 0 -34 14t-14 33t10 31l342 423h-315q-14 0 -24.5 10t-10.5 25q0 14 10.5 25t24.5 11h356q24 0 37 -15t13 -34.5t-13 -34.5l-338 -418h320q16 0 26 -10.5z" />
    <glyph glyph-name="bracketleft" unicode="[" horiz-adv-x="263" 
d="M232.5 -58.5q8.5 -8.5 8.5 -19.5t-8.5 -20.5t-21.5 -9.5h-104q-14 0 -25 10.5t-11 25.5v636q0 14 11 25t25 11h104q12 0 21 -9t9 -21t-8.5 -20.5t-21.5 -8.5h-75v-591h75q13 0 21.5 -8.5z" />
    <glyph glyph-name="backslash" unicode="\" horiz-adv-x="362" 
d="M48 616q10 10 22 10q26 0 34 -23l217 -635q2 -5 2 -15.5t-9 -20.5t-22 -10q-26 0 -34 23l-217 635q-2 5 -2.5 15.5t9.5 20.5z" />
    <glyph glyph-name="bracketright" unicode="]" horiz-adv-x="263" 
d="M128 -50v591h-75q-12 0 -21 8.5t-9 20.5t8.5 21t21.5 9h104q14 0 25 -11t11 -25v-636q0 -14 -11 -25t-25 -11h-104q-12 0 -21 9t-9 21q0 11 8.5 19.5t21.5 8.5h75z" />
    <glyph glyph-name="asciicircum" unicode="^" horiz-adv-x="428" 
d="M230 575q16 0 24.5 -8.5t15.5 -19.5l85 -163q2 -4 4 -7t2 -11t-8.5 -17t-21.5 -9q-16 0 -25 13q-2 3 -11 18t-28 46.5t-53 87.5q-34 -56 -53 -87t-28.5 -46t-10.5 -18q-8 -14 -23.5 -14t-23.5 9t-8 17t1.5 11l3.5 7l86 163q6 11 15 19.5t25 8.5h32z" />
    <glyph glyph-name="underscore" unicode="_" horiz-adv-x="542" 
d="M493 -74q8 -8 8 -20q0 -11 -8 -19t-19 -8h-404q-11 0 -19.5 8t-8.5 19t8 19.5t20 8.5h404q11 0 19 -8z" />
    <glyph glyph-name="graveaccent" unicode="`" horiz-adv-x="200" 
d="M57 561q0 30 33 30q16 0 24 -15l42 -74q6 -6 6 -15.5t-6.5 -15.5t-16.5 -6t-17 9l-57 67q-8 9 -8 20z" />
    <glyph glyph-name="a" unicode="a" horiz-adv-x="454" 
d="M80 397q69 30 143 29q83 0 129 -51q41 -44 42 -110v-232q0 -15 -11.5 -26t-27.5 -11q-15 0 -26 11t-11 26v21q-22 -23 -59 -42.5t-94 -19.5t-95 33q-39 34 -39 89q0 61 46 96q50 38 142 37h99v7q0 55 -26.5 78t-82.5 23q-47 0 -109 -19q-6 -2 -14.5 -2t-17.5 8.5t-9.5 27
t21.5 27.5zM106 123q0 -66 87 -65q38 0 71.5 18.5t53.5 41.5v69h-88q-58 0 -91 -14.5t-33 -49.5z" />
    <glyph glyph-name="b" unicode="b" horiz-adv-x="516" 
d="M139 364q61 62 140.5 62t135.5 -56q62 -62 63 -161q0 -100 -63 -162q-58 -56 -136.5 -55.5t-139.5 62.5v-21q0 -15 -10.5 -26t-26.5 -11t-26.5 11t-10.5 26v532q0 16 10.5 26.5t26.5 10.5t26.5 -10.5t10.5 -26.5v-201zM139 123q56 -62 130 -61q94 0 125 83q10 28 9 64
q0 70 -37 110q-36 37 -97 37q-74 0 -130 -61v-172z" />
    <glyph glyph-name="c" unicode="c" horiz-adv-x="438" 
d="M263 62q46 0 87 22q14 8 26 8.5t21 -10.5t9 -25.5t-19 -26.5q-58 -38 -130 -38q-91 0 -154 57q-66 61 -65 160q0 99 65 160q62 58 154 57q49 0 80.5 -12.5t50 -25t18.5 -27.5t-9 -25t-18 -10q-14 0 -29 8q-42 23 -87 22q-72 0 -111.5 -40.5t-39.5 -106.5t39.5 -106.5
t111.5 -40.5z" />
    <glyph glyph-name="d" unicode="d" horiz-adv-x="516" 
d="M378 54q-61 -62 -140 -62q-78 0 -136 55q-62 62 -63 162q0 98 63 161q57 57 136 56.5t140 -62.5v201q0 16 10.5 26.5t26.5 10.5t26.5 -10.5t10.5 -26.5v-532q0 -15 -10.5 -26t-26.5 -11t-26.5 11t-10.5 26v21zM378 295q-56 62 -130 61q-94 0 -123 -83q-10 -28 -11 -64
q0 -70 38 -111q35 -37 96 -36q74 0 130 61v172z" />
    <glyph glyph-name="e" unicode="e" horiz-adv-x="466" 
d="M157.5 94.5q35.5 -32.5 98 -32.5t106.5 20q14 7 25 7.5t20.5 -8.5t9.5 -20q0 -22 -17.5 -31t-31.5 -16t-30 -12q-37 -10 -86 -10q-101 0 -156.5 56.5t-55.5 160.5q0 90 47 150q53 67 149 67q92 0 145 -62q50 -58 50 -145q0 -15 -10.5 -26t-26.5 -11h-279
q7 -55 42.5 -87.5zM236 363q-73 0 -106 -65q-12 -23 -15 -55h242q-3 58 -43 92q-32 28 -78 28z" />
    <glyph glyph-name="f" unicode="f" horiz-adv-x="311" 
d="M278 530l-40 5q-31 0 -49.5 -14.5t-18.5 -57.5v-45h103q14 0 23 -9t9 -23t-9.5 -23t-22.5 -9h-103v-321q0 -15 -10.5 -26t-26.5 -11t-26.5 11t-10.5 26v321h-49q-14 0 -23 9t-9 23t9.5 23t22.5 9h49v48q0 71 40 109q33 31 82 31q38 0 72 -16q19 -10 19 -25t-9 -25
t-22 -10z" />
    <glyph glyph-name="g" unicode="g" horiz-adv-x="516" 
d="M378 364v20q0 15 10.5 26.5t25.5 11.5t26.5 -11t11.5 -27v-366q0 -104 -50 -159.5t-142 -55.5q-98 0 -176 43q-14 9 -14 25t9.5 26.5t19.5 10.5t18 -3q62 -31 135 -31q126 0 126 133v55q-58 -62 -140 -62q-78 0 -134 53q-65 60 -65 160q0 101 65 161q56 53 136 52.5
t138 -62.5zM378 298q-23 24 -52.5 42t-65.5 18t-61.5 -9t-44.5 -27q-40 -38 -40 -109q0 -106 84 -136q26 -9 62 -9q60 0 118 61v169z" />
    <glyph glyph-name="h" unicode="h" horiz-adv-x="498" 
d="M274 357q-72 0 -135 -79v-245q0 -15 -11 -26t-26 -11t-26 11t-11 26v532q0 16 10.5 26.5t26.5 10.5q15 0 26 -10.5t11 -26.5v-215q33 34 57 49q46 27 88.5 27t69.5 -12.5t46 -35.5q38 -45 38 -112v-233q0 -15 -11 -26t-26 -11t-26 11t-11 26v225q0 46 -21 72.5t-69 26.5z
" />
    <glyph glyph-name="i" unicode="i" horiz-adv-x="210" 
d="M79 411.5q11 10.5 27 10.5t26 -10.5t10 -27.5v-351q0 -15 -10 -26t-26 -11t-27 11t-11 26v351q0 17 11 27.5zM150 545q0 -18 -12 -30t-30 -12h-5q-18 0 -29.5 12t-11.5 30v3q0 18 12 30t29 12h5q18 0 30 -12t12 -30v-3z" />
    <glyph glyph-name="j" unicode="j" horiz-adv-x="210" 
d="M-6 -129l24 -2q26 0 34 6q16 10 16 43v465q0 16 11 27t27 11t26 -10.5t10 -27.5v-467q0 -79 -57 -105q-21 -8 -50 -8q-30 0 -51.5 7.5t-21.5 29.5q0 12 9 21.5t23 9.5zM150 545q0 -18 -12 -30t-30 -12h-5q-18 0 -29.5 12t-11.5 30v3q0 18 12 30t29 12h5q18 0 30 -12
t12 -30v-3z" />
    <glyph glyph-name="k" unicode="k" horiz-adv-x="447" 
d="M411 54q8 -10 8 -24.5t-10.5 -24t-23.5 -9.5q-20 0 -34 15l-141 192l-71 -65v-105q0 -15 -11 -26t-26 -11t-26 11t-11 26v532q0 15 10.5 26t26.5 11q15 0 26 -11t11 -26v-335l195 180q13 10 29.5 10t24 -11.5t7.5 -20.5q0 -18 -14 -32l-118 -106z" />
    <glyph glyph-name="l" unicode="l" horiz-adv-x="216" 
d="M82 591.5q11 10.5 27 10.5t26.5 -10.5t10.5 -26.5v-532q0 -15 -10.5 -26t-26.5 -11t-27 11t-11 26v532q0 16 11 26.5z" />
    <glyph glyph-name="m" unicode="m" horiz-adv-x="752" 
d="M139 350q50 75 139 76q44 0 81 -26q30 -21 45 -58q23 36 45 50q46 34 105 34q66 0 104 -51q33 -43 33 -106v-236q0 -15 -10.5 -26t-26.5 -11q-15 0 -26 11t-11 26v221q0 52 -18.5 77.5t-64.5 25.5q-72 0 -119 -79v-245q0 -15 -10.5 -26t-26.5 -11q-15 0 -26 11t-11 26
v221q0 52 -18.5 77.5t-64.5 25.5q-72 0 -119 -79v-245q0 -15 -11 -26t-26 -11t-26 11t-11 26v351q0 15 10.5 26.5t26.5 11.5q15 0 26 -11t11 -27v-34z" />
    <glyph glyph-name="n" unicode="n" horiz-adv-x="498" 
d="M274 357q-72 0 -135 -79v-245q0 -15 -11 -26t-26 -11t-26 11t-11 26v351q0 16 10.5 27t26.5 11q15 0 26 -10.5t11 -27.5v-34q33 34 57 49q46 27 88.5 27t69.5 -12.5t46 -35.5q38 -45 38 -112v-233q0 -15 -11 -26t-26 -11t-26 11t-11 26v225q0 46 -21 72.5t-69 26.5z" />
    <glyph glyph-name="o" unicode="o" horiz-adv-x="497" 
d="M249 426q95 0 153 -60q58 -61 56 -157q0 -97 -56 -157q-58 -60 -153 -60q-96 0 -152 60q-58 60 -58 157q0 98 58 157q56 60 152 60zM201.5 68q24.5 -8 47.5 -8t47 8t44 26q44 40 44 116q0 74 -44 115q-37 34 -91 33q-89 0 -123 -80q-12 -29 -12 -69t12 -69t31.5 -46.5
t44 -25.5z" />
    <glyph glyph-name="p" unicode="p" horiz-adv-x="516" 
d="M139 364q61 62 140.5 62t135.5 -56q62 -62 63 -161q0 -100 -63 -162q-58 -56 -136.5 -55.5t-139.5 62.5v-209q0 -16 -10.5 -27t-26.5 -11t-26.5 11t-10.5 27v540q0 15 10.5 26t26.5 11t26.5 -10.5t10.5 -26.5v-21zM139 123q56 -62 130 -61q94 0 125 83q10 28 9 64
q0 70 -37 110q-36 37 -97 37q-74 0 -130 -61v-172z" />
    <glyph glyph-name="q" unicode="q" horiz-adv-x="516" 
d="M378 54q-61 -62 -140 -62q-78 0 -136 55q-62 62 -63 162q0 98 63 161q57 57 136 56.5t140 -62.5v21q0 15 10.5 26t26.5 11t26.5 -10.5t10.5 -26.5v-540q0 -16 -10.5 -27t-26.5 -11t-26.5 11t-10.5 27v209zM378 295q-56 62 -130 61q-94 0 -123 -83q-10 -28 -11 -64
q0 -70 38 -111q35 -37 96 -36q74 0 130 61v172z" />
    <glyph glyph-name="r" unicode="r" horiz-adv-x="316" 
d="M139 349q58 77 129 77h4q15 0 25.5 -10.5t10.5 -26.5t-11 -25.5t-27 -9.5h-4q-41 0 -73 -20t-54 -52v-249q0 -15 -11 -26t-26 -11t-26 11t-11 26v351q0 15 10.5 26.5t26.5 11.5q15 0 26 -11t11 -27v-35z" />
    <glyph glyph-name="s" unicode="s" horiz-adv-x="392" 
d="M198 61q91 0 90 57q0 18 -18 28t-45 17t-59 15t-60 22t-46 36.5t-18 55.5t10 56.5t30 40.5q43 37 120 37q62 0 119 -20q11 -4 17.5 -13.5t6.5 -20t-9.5 -20.5t-18.5 -10t-22 4q-39 12 -86 12t-71 -16t-24 -39.5t18 -34t45.5 -18.5t60 -15t59.5 -21q64 -33 64 -101
q0 -53 -40 -85q-42 -36 -119 -36q-82 0 -148 37q-14 10 -14.5 24.5t9 25t19.5 10.5t26 -7q47 -21 104 -21z" />
    <glyph glyph-name="t" unicode="t" horiz-adv-x="314" 
d="M248.5 61.5q9.5 3.5 20.5 3.5t20 -8.5t9 -25t-16 -23.5q-35 -16 -60 -16t-45.5 2.5t-39.5 13.5q-45 26 -45 92v254h-58q-15 0 -16 16q0 7 8 13l111 109q7 7 14 7.5t11 -4.5t4 -12v-65h93q14 0 23 -9t9 -23t-9 -23t-23 -9h-93v-248q0 -31 19 -42q10 -6 32 -6t31.5 3.5z
" />
    <glyph glyph-name="u" unicode="u" horiz-adv-x="499" 
d="M226 61q72 0 135 78v246q0 15 10.5 26t26.5 11q15 0 26 -10.5t11 -26.5v-351q0 -16 -10.5 -27t-26.5 -11q-15 0 -26 11t-11 27v33q-33 -34 -57 -48q-46 -27 -88.5 -27t-70 13t-45.5 34q-38 45 -38 113v233q0 15 10.5 26t26.5 11q15 0 26 -10.5t11 -26.5v-224
q0 -46 21 -73t69 -27z" />
    <glyph glyph-name="v" unicode="v" horiz-adv-x="433" 
d="M342 401q10 22 36 21q13 0 24 -11t11 -21q0 -13 -4 -23l-143 -341q-6 -12 -17.5 -21t-27.5 -9h-8q-15 0 -27 9t-18 21l-142 341q-4 10 -4 21.5t10 22.5t24 11q26 0 36 -21l125 -319z" />
    <glyph glyph-name="w" unicode="w" horiz-adv-x="642" 
d="M553 400q6 22 35 22q14 0 24.5 -10.5t10.5 -22t-2 -18.5l-116 -341q-5 -14 -18 -24t-30 -10q-16 0 -29.5 10t-18.5 25l-87 271l-87 -271q-6 -14 -19 -24.5t-30 -10.5q-16 0 -29 10t-18 24l-116 341q-2 7 -2 18.5t10.5 22t24.5 10.5q29 0 35 -22l95 -316l96 308
q4 13 15 21.5t25 8.5t25 -8t15 -22l95 -308z" />
    <glyph glyph-name="x" unicode="x" horiz-adv-x="444" 
d="M394 58q9 -10 8.5 -24t-10 -26t-28 -12t-28.5 14l-117 140l-109 -138q-12 -16 -30 -16t-28 10t-10 25t8 26l128 149l-128 156q-9 11 -8.5 25.5t11 24.5t28 10t27.5 -14l115 -142l114 142q10 14 27.5 14t28 -10t10.5 -24t-8 -24l-129 -153z" />
    <glyph glyph-name="y" unicode="y" horiz-adv-x="436" 
d="M406.5 411q10.5 -11 10.5 -23t-3 -18l-223 -537q-10 -26 -34 -26q-14 0 -24.5 11t-10.5 21.5t2 17.5l53 137l-154 375q-3 8 -3 19.5t10.5 22.5t23.5 11q27 0 37 -23l126 -313l129 312q10 25 34 24q16 0 26.5 -11z" />
    <glyph glyph-name="z" unicode="z" horiz-adv-x="408" 
d="M374 34q0 -14 -10 -24t-25 -10h-256q-22 0 -36.5 11t-14.5 31t13 35l236 271h-207q-14 0 -24.5 10t-10.5 24t10 25t25 11h248q22 0 35 -13t13 -33t-12 -34l-229 -268h210q14 0 24.5 -11t10.5 -25z" />
    <glyph glyph-name="leftcurly" unicode="{" horiz-adv-x="281" 
d="M96 251q74 -27 74 -96v-182q0 -15 5 -21q11 -13 43 -14h12q11 0 20 -8t9 -20q0 -11 -8.5 -19.5t-20.5 -8.5h-10q-55 0 -82 18q-33 24 -32 79v173q0 26 -9 38q-18 21 -67 28q-28 5 -28 33t28 33t43 12t22 15q10 13 11 39v173q0 80 69 95q21 4 45 4h10q11 0 20 -8.5
t9 -20.5q0 -11 -8.5 -19.5t-20.5 -8.5h-12q-44 0 -48 -24q-1 -6 0 -11v-182q0 -70 -74 -97z" />
    <glyph glyph-name="bar" unicode="|" horiz-adv-x="207" 
d="M103 607q14 0 24 -10t10 -23v-702q0 -14 -10 -23.5t-24 -9.5t-23.5 9.5t-9.5 23.5v702q0 14 9.5 23.5t23.5 9.5z" />
    <glyph glyph-name="rightcurly" unicode="}" horiz-adv-x="281" 
d="M186 251q-74 27 -74 97v182q0 15 -6 21q-11 13 -42 14h-12q-11 0 -20 8.5t-9 19.5t8.5 20t20.5 9h10q55 0 81 -19q33 -24 33 -80v-173q0 -26 9 -36q18 -21 66 -30q28 -5 28 -33t-27 -32.5t-42.5 -11.5t-23.5 -15q-10 -13 -10 -40v-173q0 -80 -70 -93q-21 -4 -44 -4h-10
q-11 0 -20 8t-9 20q0 11 8.5 19.5t20.5 8.5h12q44 0 47 24q1 6 1 11v182q0 69 74 96z" />
    <glyph glyph-name="asciitilde" unicode="~" horiz-adv-x="522" 
d="M414.5 267q3.5 9 10 21t17.5 12q23 0 24 -19q0 -3 -1 -7q-10 -54 -38.5 -79.5t-63.5 -25.5t-62 10t-51 21t-46.5 21t-45.5 10q-42 0 -56 -45q-4 -15 -16.5 -15t-18.5 6t-6 20.5t8 33.5t23 35q33 35 69.5 35t63.5 -10t51.5 -21.5t46.5 -21.5t40.5 -10t27.5 4t14.5 10t9 15
z" />
    <glyph glyph-name="nbsp" unicode="&#xa0;" horiz-adv-x="231" 
 />
    <glyph glyph-name="copyright" unicode="&#xa9;" horiz-adv-x="670" 
d="M336 -7q-61 0 -114.5 22.5t-93.5 62.5t-63 94t-23 114q0 61 23 114t63 93.5t93.5 63t114.5 22.5t114.5 -22.5t93 -63t63 -94t23.5 -113.5q0 -61 -23.5 -114.5t-63 -93.5t-93 -62.5t-114.5 -22.5zM336 537q-53 0 -98 -19.5t-80 -54.5q-74 -74 -74 -177t74 -177t177 -74
q105 0 178.5 73.5t73.5 177.5q0 103 -73.5 177t-177.5 74zM479 206q-20 -40 -54.5 -63t-76.5 -23t-71.5 11.5t-50.5 34.5q-43 45 -44 120q0 75 44 120.5t115 45.5q49 0 83.5 -23t54.5 -63q2 -5 2.5 -13.5t-7 -15.5t-16.5 -7t-15 3t-16.5 20.5t-31.5 33t-51 15.5t-49 -9.5
t-31 -25.5q-26 -32 -26 -81t26 -81q27 -35 77 -35q58 0 89 55q10 18 23.5 17.5t21 -7.5t7 -15.5t-2.5 -13.5z" />
    <glyph glyph-name="registered" unicode="&#xae;" horiz-adv-x="670" 
d="M336 580q61 0 114.5 -23t93 -63t63 -94t23.5 -114q0 -61 -23.5 -114.5t-63 -93.5t-93 -63t-114.5 -23t-114.5 23t-93.5 63t-63 94t-23 114q0 61 23 114.5t63 93.5t93.5 63t114.5 23zM336 34q52 0 97.5 20t80.5 54q74 74 73 178q0 103 -73.5 177.5t-178.5 74.5
q-103 0 -177 -74t-74 -178q0 -105 74 -178.5t178 -73.5zM447 420.5q31 -28.5 31 -65t-18.5 -56t-42.5 -28.5q20 -6 38.5 -30t18.5 -72v-23q0 -11 -8.5 -19.5t-19.5 -8.5t-19.5 8.5t-8.5 19.5v16q0 35 -7 50q-14 33 -53 33h-89v-99q0 -11 -8.5 -19.5t-19.5 -8.5t-19 8t-8 20
v265q0 15 10.5 26.5t25.5 11.5h99q67 0 98 -28.5zM346 294q34 0 55.5 13.5t21.5 39.5t-16.5 40.5t-61.5 14.5h-76v-108h77z" />
    <glyph glyph-name="onequarter" unicode="&#xbc;" horiz-adv-x="769" 
d="M686 127q10 0 17 -7t7 -18q0 -10 -7 -17t-17 -7h-30v-56q0 -11 -7 -18.5t-19 -7.5q-11 0 -18.5 7t-7.5 19v56h-128q-14 0 -24 10.5t-10 24t8 24.5l136 170q14 18 29 18h7q14 0 24 -10.5t10 -24.5v-163h30zM604 127v133l-104 -133h104zM238 -8q-7 -11 -21 -11.5t-22.5 7.5
t-8.5 17t5 18l339 559q7 11 21 11t22 -7.5t8 -17.5t-4 -18zM237 302q10 0 17.5 -7t7.5 -17t-7.5 -17t-17.5 -7h-143q-10 0 -17 6.5t-7 17.5q0 10 6.5 17t17.5 7h49v217l-37 -17q-6 -3 -14 -3.5t-15 6.5t-7 20t15 21l59 30q8 4 20.5 4t22 -10.5t9.5 -24.5v-243h41z" />
    <glyph glyph-name="onehalf" unicode="&#xbd;" horiz-adv-x="769" 
d="M232 302q10 0 17.5 -7t7.5 -17t-7.5 -17t-17.5 -7h-142q-10 0 -17 6.5t-7 17.5q0 10 6 17t18 7h48v217l-36 -17q-6 -3 -14.5 -3.5t-15.5 6.5t-7 20t15 21l59 30q8 4 20.5 4t22 -10.5t9.5 -24.5v-243h41zM233 -8q-7 -11 -21 -11.5t-22 7.5t-8 17t4 18l339 559
q7 11 20.5 11t22 -7.5t8.5 -17.5t-4 -18zM684 48q10 0 17.5 -7t7.5 -17t-7.5 -17t-17.5 -7h-180q-14 0 -23 10.5t-9 28t13.5 36.5t33.5 35t43.5 30.5t43.5 28t34 28t14 33t-14.5 33t-45.5 14.5q-48 0 -82 -18q-5 -2 -13 -2t-14.5 6t-6.5 18.5t15 20.5q42 25 97 25
t85.5 -27.5t30.5 -68.5q0 -57 -79 -109q-21 -14 -40 -27q-48 -32 -59 -47h156z" />
    <glyph glyph-name="threequarters" unicode="&#xbe;" horiz-adv-x="769" 
d="M697 127q10 0 17.5 -7t7.5 -18q0 -10 -7 -17t-18 -7h-29v-56q0 -11 -7.5 -18.5t-18.5 -7.5t-19 7t-8 19v56h-128q-14 0 -24 10.5t-10 24t9 24.5l135 170q14 18 29 18h8q14 0 24 -10.5t10 -24.5v-163h29zM615 127v133l-104 -133h104zM249 -8q-7 -11 -21 -11.5t-22 7.5
t-8 17t4 18l340 559q7 11 20.5 11t21.5 -7.5t8 -17.5t-4 -18zM138 442q86 0 86 48q0 31 -42 40q-11 2 -28 1q-34 0 -64 -16q-5 -2 -12.5 -2t-14.5 6t-7 17.5t18 20.5q43 24 96 24t78.5 -25.5t25.5 -59.5t-16.5 -51.5t-33.5 -24.5q62 -19 62 -79q0 -62 -64 -83q-23 -8 -56 -9
q-64 0 -100 21q-14 8 -14 20t7 18.5t13 6.5q7 0 17 -2q42 -13 70 -13q75 0 75 42q0 50 -92 52h-8q-10 0 -17.5 6.5t-7.5 17.5q0 10 7 17t18 7h4z" />
    <glyph glyph-name="Divide" unicode="&#xf7;" horiz-adv-x="693" 
d="M596 282q32 0 32 -32t-32 -32h-499q-32 0 -32 32t32 32h499zM346.5 493q60.5 0 60.5 -60.5t-60.5 -60.5t-60.5 60.5t60.5 60.5zM286 76q0 61 60.5 61t60.5 -61t-60.5 -61t-60.5 61z" />
    <glyph glyph-name="Nukta" unicode="&#x93c;" horiz-adv-x="1" 
d="M759 936q0 -26 -22 -26h-387q-42 0 -66 32t-24 71.5t24.5 67.5t61.5 28t61.5 -25t24.5 -59t-19 -63h327q6 0 12.5 -7t6.5 -19zM386 972.5q15 12.5 15 35.5t-15 36.5t-38 13.5t-40.5 -13t-17.5 -35.5t15 -36t40.5 -13.5t40.5 12.5z" />
    <glyph glyph-name="uni0950" unicode="&#x950;" horiz-adv-x="761" 
d="M595 505q120 0 120 -195q0 -99 -37.5 -157t-100.5 -58q-44 0 -63 28t-19 96v34q0 62 -33 62q-28 0 -71 -29q59 -80 59 -146.5t-39 -103.5t-104 -37q-104 0 -181.5 94.5t-89.5 236.5l26 7q19 -123 81.5 -199.5t142.5 -76.5q43 0 73 31t30 75q0 82 -66 149q-34 -47 -82 -69
l-32 75q107 32 107 102q0 53 -65 53q-48 0 -100 -28l-32 75q44 22 98.5 22t93.5 -40.5t39 -105.5q0 -28 -11 -50l13 -13q61 59 116 59q5 0 15 -2q21 111 112 111zM505 386q24 -12 24 -59v-82q0 -83 51 -83q43 0 72 40.5t29 101t-26.5 97.5t-67.5 37q-57 0 -82 -52zM262 618
l23 16q43 -55 100 -55t98 55l62 -52q-61 -66 -123 -66q-94 0 -160 102zM396 708l48 -49l-48 -46l-47 50z" />
    <glyph glyph-name="Udatta" unicode="&#x951;" horiz-adv-x="0" 
d="M282 1294h83v-364h-83v364z" />
    <glyph glyph-name="Anudatta" unicode="&#x952;" horiz-adv-x="0" 
d="M523 -425v-91h-402v91h402z" />
    <glyph glyph-name="KaHalanth" unicode="&#x953;" horiz-adv-x="668" 
d="M204 175q-101 0 -101 70q0 65 90 121q-16 3 -32 9q-65 24 -65 69q0 32 48 65q29 20 89 46v6q-68 8 -123 33q-80 36 -80 91q0 89 95 123q64 22 176.5 22t229.5 -27t117 -60q0 -15 -7 -25t-18 -10q-23 3 -79 18q-156 42 -241 42q-190 0 -190 -75q0 -42 127 -70
q99 -24 99 -49q0 -33 -79.5 -64t-79.5 -61q0 -14 21 -21q19 -8 44 -8l46 1q5 0 10 -5q62 20 123 20q20 0 35.5 -13.5t15.5 -26.5t-12 -22t-18 -9q-112 0 -193 -36t-81 -79q0 -19 55 -19l150 10q149 0 149 -96q1 -75 -82 -116t-172.5 -41t-119.5 7q-47 10 -47 43t37 33
q9 0 58 -10t98 -10t104 26.5t55 65.5q0 25 -31 34t-81 9z" />
    <glyph glyph-name="DEVANAGARI_DANDA" unicode="&#x964;" horiz-adv-x="252" 
d="M164 -22h-81v504h81v-504z" />
    <glyph glyph-name="DEVANAGARI_DOUBLE_DANDA" unicode="&#x965;" horiz-adv-x="451" 
d="M166 -19h-81v505h81v-505zM355 -22h-79v504h79v-504z" />
    <glyph glyph-name="Arasunna" unicode="&#xc01;" horiz-adv-x="312" 
d="M264 65q20 0 28 -11t8 -24q0 -27 -58 -27q-103 17 -157 81.5t-54 130.5q0 96 55 150.5t146 54.5h18q14 0 22 -10t8 -21t-18 -19q-16 -9 -43 -9q-54 0 -88 -37q-31 -36 -31 -88q0 -82 40.5 -126.5t123.5 -44.5z" />
    <glyph glyph-name="Anusvara" unicode="&#xc02;" horiz-adv-x="532" 
d="M504 199q2 -86 -66.5 -144.5t-183.5 -58.5t-176 65q-48 50 -48 118q0 101 69 158.5t166.5 57.5t168 -60.5t70.5 -135.5zM384 288q-51 43 -118 43t-116 -38q-51 -42 -51 -98.5t44.5 -93.5t113 -37t123.5 36t55 90.5t-51 97.5z" />
    <glyph glyph-name="Visarga" unicode="&#xc03;" horiz-adv-x="305" 
d="M37 333q0 47 32.5 74.5t83 27.5t82.5 -26t32 -70t-35.5 -69.5t-88 -25.5t-79.5 29.5t-27 59.5zM145 295q23 0 42 12.5t19 34.5t-18 34t-42 12t-37.5 -14.5t-13.5 -33.5t13.5 -32t36.5 -13zM37 88q0 47 32.5 74.5t83 27.5t82.5 -26t32 -70t-35.5 -69.5t-88 -25.5
t-79.5 29.5t-27 59.5zM187 131q-16 12 -40.5 12t-38 -14.5t-13.5 -32.5t13.5 -32t36.5 -14t42 13t19 35t-19 33z" />
    <glyph glyph-name="uni0C05" unicode="&#xc05;" horiz-adv-x="731" 
d="M178 221q0 29 28 29h133q-50 40 -50 104q0 45 51 88.5t138.5 43.5t160 -63t72.5 -160q0 -120 -106.5 -194.5t-273.5 -74.5q-141 0 -221 73t-80 186t75 190t154 77q9 0 16.5 -9.5t7.5 -24.5q0 -22 -29 -32q-73 -24 -115 -76q-40 -53 -40 -128.5t63 -131t184.5 -55.5
t209 55.5t87.5 146.5q0 61 -52 110.5t-121 49.5q-41 0 -76.5 -23t-35.5 -61t25.5 -57t81.5 -35q11 -3 11 -21q0 -35 -40 -35h-230q-12 -5 -20 4t-8 24z" />
    <glyph glyph-name="AA" unicode="&#xc06;" horiz-adv-x="738" 
d="M324 520q38 0 38 -34q0 -20 -11 -29q-10 -5 -29 -5q-77 0 -143 -45q-83 -56 -83 -158q0 -85 84 -134.5t173 -49.5t150.5 29t61.5 64t-26 62q-19 16 -48 29h-274q-48 -10 -48 30q0 15 9 21t36 6h230q-40 55 -40 111t45.5 88t112 32t110.5 -38q42 -39 42 -99q4 -49 -47 -89
q-45 -37 -99 -45q63 -43 63 -103q0 -85 -101 -130q-80 -37 -177 -37q-123 0 -217 63q-106 72 -106 182t72 189q83 90 222 90zM648 408q0 33 -28 53t-66.5 20t-62.5 -25q-22 -20 -22 -53.5t11.5 -53t36.5 -40.5q48 4 89.5 28t41.5 71z" />
    <glyph glyph-name="uni0C07" unicode="&#xc07;" horiz-adv-x="740" 
d="M609 140q111 -106 111 -175q0 -16 -18 -27q-17 -14 -31 -14q-24 0 -28 14q-15 59 -36 94.5t-51 60.5q-53 -49 -133 -74.5t-162.5 -25.5t-143 33t-60.5 86q0 78 93 117q72 30 166 30q144 0 248 -78q15 19 26 57t11 73q0 61 -41 105t-88.5 44t-78.5 -33.5t-31 -83.5
q0 -22 -12 -35t-30.5 -13t-30.5 7.5t-12 18.5q-4 44 -28.5 75t-60.5 31t-61 -21q-30 -23 -30 -56.5t43 -51.5q19 -8 19 -13q0 -33 -44 -33q-32 0 -58.5 22.5t-26.5 64.5q0 67 49 107t116 40q46 0 75.5 -26.5t37.5 -61.5q5 49 51 87q51 39 123.5 39t129 -58.5t56.5 -136.5
q0 -106 -59 -189zM518 139q-21 23 -87.5 45t-123 22t-113.5 -19q-71 -24 -71 -66q0 -29 52 -47q46 -18 104 -18t116 18q74 20 123 65z" />
    <glyph glyph-name="II" unicode="&#xc08;" horiz-adv-x="1011" 
d="M30 183q0 28 39 28h86q10 32 34 60q21 27 54 48l-8 1q-71 14 -71 45q0 55 116 144q70 51 101 84q27 26 42 83q5 20 21 30q12 9 31 8.5t29 -14.5q10 -11 10 -30q0 -35 -46 -92q-20 -25 -115 -90t-95 -89q0 -19 30 -25t110.5 -6t156.5 -31t116 -98q33 6 74 6h83l6 4
q85 46 85 102q0 40 -27 62t-70 22t-67 -37q-15 -24 -32 -24t-32 9.5t-15 21.5q0 39 43.5 63.5t109.5 24.5t112.5 -35t46.5 -84t-34 -95q-30 -43 -68 -59q48 -11 76 -43t28 -68q1 -48 -39.5 -79.5t-96 -31.5t-90.5 29t-35 67q0 67 49 99q-58 0 -93 -8q-7 -66 -84 -122
q-88 -67 -215 -67q-95 0 -162 43q-71 44 -78 111h-58q-34 -1 -46 5t-12 28zM219 154q10 -39 50 -68q50 -33 132.5 -33t145 41.5t67.5 83.5zM410 310q-148 0 -181 -96l365 19q-21 35 -73.5 56t-110.5 21zM921 109q0 21 -18.5 41t-57.5 20q-19 0 -33 -16t-14 -44.5t18.5 -40
t42.5 -11.5t43 15t19 36z" />
    <glyph glyph-name="uni0C09" unicode="&#xc09;" horiz-adv-x="777" 
d="M433 480q-11 -6 -24.5 -6t-21.5 2q-9 5 -12 15l-25 173q0 13 10.5 24.5t25 11.5t31 -14.5t16.5 -37.5v-100q-7 -26 0 -68zM652 187q0 -34 -41 -34t-41 42q0 22 22.5 43.5t58.5 21.5q57 0 86 -44q20 -33 20 -77q-1 -61 -58.5 -102t-128 -41t-127.5 90q-20 30 -29.5 30
t-34.5 -43q-40 -77 -73 -77q-91 0 -139 63q-40 53 -40 126q0 37 6 61l-60 -2q-15 0 -27 6q-16 6 -16 16q0 35 68 35h67q62 87 143 121.5t189 34.5q63 0 105 -17q42 -20 42 -52q0 -26 -46 -26q-9 0 -23 11q-40 31 -101 31q-164 0 -241 -107l247 17q46 0 46 -34q0 -24 -42 -24
h-281q-9 -28 -9 -72.5t28 -81.5q29 -36 71 -36q17 0 46 53q40 76 73 76q29 0 73 -63q56 -75 96 -75q51 0 80 29.5t29 56t-11.5 46t-29.5 19.5q3 -14 3 -21z" />
    <glyph glyph-name="UU" unicode="&#xc0a;" horiz-adv-x="1065" 
d="M446 663q30 0 30 -42v-137q3 -9 -11.5 -18.5t-29.5 -9.5q-19 0 -22 22q-5 21 -5 80.5t5 75.5q7 29 33 29zM369 501v-7q0 -31 5 -43q-5 -1 -20.5 -6.5t-24.5 -5.5q-29 0 -29 99v40q0 35 8 56t27 21q41 0 41 -52q-7 -62 -7 -102zM1013 463q0 -74 -72 -123q48 -11 76 -44
t27 -74.5t-38 -73.5q-38 -35 -85 -35t-81 27.5t-34 80.5t42 80h-55l-565 -31q-12 -11 -15.5 -27.5t-3.5 -55t28.5 -79t77.5 -40.5q20 0 43 53q31 73 67 73q16 0 43 -45q56 -98 135 -98q40 0 72.5 27.5t32.5 64t-19.5 54.5t-39.5 18t-35 -7q-15 -9 -15 -24q0 -29 32 -29
q0 -39 -38 -39q-25 0 -44 19t-19 40q0 53 49 76q31 15 70 15q66 0 96.5 -38t30.5 -70q0 -79 -56 -122t-134 -43t-133 77q-22 29 -33 29q-17 0 -30 -38q-24 -63 -74 -63q-76 0 -126 58t-50 125t16 89h-35q-91 0 -91 26q0 22 10 28t31 6h125q50 55 117.5 82.5t179.5 27.5
t112 -41q0 -13 -7.5 -25.5t-20 -12.5t-51 12t-78 12t-75.5 -9q-62 -15 -98 -52l584 31h31l14 14q40 40 40 81t-31 60q-22 14 -46 14t-41 -11q-16 -12 -16 -25.5t5.5 -20.5t7.5 -11q0 -12 -11 -19.5t-30 -7.5q-41 0 -41 54q0 35 36.5 63.5t89.5 28.5t93 -24q53 -30 53 -88z
M885 188q11 -18 38 -18t40 18t13 38t-18 39.5t-53 23.5q-30 -28 -30 -68q0 -20 10 -33z" />
    <glyph glyph-name="Ru" unicode="&#xc0b;" horiz-adv-x="1351" 
d="M963 61q-43 -67 -142 -67q-42 0 -77 19.5t-55 52.5q-29 -37 -74.5 -57.5t-101 -20.5t-104.5 35q-50 33 -73 91q-23 -54 -52 -86t-54 -32q-25 3 -42.5 38t-17.5 88q0 100 54 236q1 2 1 7.5t-3.5 9.5t-13.5 4t-28 -9q-19 -7 -39 -24q-42 -34 -42 -60q0 -5 7.5 -10t19.5 -8
q28 -5 28 -32q0 -16 -15 -27t-40.5 -11t-47.5 22q-21 23 -21 55q0 66 60 113q61 46 146 46q24 0 41 -9.5t17 -23t-18 -66.5l-12 -37q-25 -78 -25 -157v-6q0 -65 10.5 -65t33.5 40l12 23q16 28 33.5 44.5t31.5 16.5q8 0 23 -29q34 -65 90 -96q28 -18 52 -18q55 0 94 35t39 85
q0 32 -28.5 67.5t-78.5 66.5l-35 23q-70 46 -70 65q0 23 12.5 40.5t30.5 17.5q7 0 11 -6l133 -110q45 -40 69 -85t24 -86l5 -20q9 -36 35 -59q27 -22 62.5 -22t64.5 23q28 23 28 57q0 61 -32 117q-15 24 -15 38.5t10 22.5q9 10 22 10q27 0 49.5 -40.5t28.5 -101.5
q0 -59 42 -101t99.5 -42t97.5 36t40 82.5t-39.5 95.5t-94 82.5t-75.5 56.5q-23 22 -23 36.5t13 24.5q14 10 30 10q26 0 95 -61l56 -50q106 -91 106 -177t-65 -143.5t-151.5 -57.5t-151.5 80z" />
    <glyph glyph-name="Lu" unicode="&#xc0c;" horiz-adv-x="1069" 
d="M594 225q27 53 27 113.5t-41.5 100.5t-91.5 40t-82 -35t-32 -86q0 -23 -12.5 -36.5t-32 -13.5t-31.5 7.5t-12 19.5q-5 45 -30 77t-62.5 32t-66 -22.5t-28.5 -57t45 -53.5q19 -8 19 -13q0 -35 -45 -35q-33 0 -60.5 23.5t-27.5 66.5q0 70 50.5 111.5t120.5 41.5
q47 0 77.5 -27.5t39.5 -63.5q5 50 52 89q53 41 128 41t133.5 -60.5t58.5 -141.5q0 -60 -36 -124t-97 -115q-121 -100 -121 -165q0 -44 63 -78q64 -33 147 -33q125 0 229.5 73t104.5 172q0 122 -150 263q-94 88 -94 135q0 19 8 30q10 17 30 17t25.5 -6t5.5 -29q0 -47 95 -129
l24 -20q125 -118 125 -256q0 -43 -27.5 -102.5t-78.5 -101.5q-132 -106 -304 -106q-106 0 -180.5 43.5t-85.5 92.5q-5 22 -5 36q0 46 40 100t111 101q47 33 75 84z" />
    <glyph glyph-name="uni0C0E" unicode="&#xc0e;" horiz-adv-x="571" 
d="M355 481q30 0 30 -12q18 -28 61 -76q105 -115 105 -215q-3 -79 -59 -130.5t-132.5 -51.5t-115.5 70q-26 -38 -56 -55.5t-57 -17.5q-101 0 -101 90q0 36 33 73q40 47 97.5 47t103 -73.5t107.5 -73.5q40 0 76 31t36 89q0 83 -109 192q-58 56 -58 78q0 10 16 22.5t23 12.5z
M196 90q0 51 -50 51q-20 0 -35 -18q-12 -17 -12 -32.5t10 -27.5t28.5 -12t38.5 15t20 24z" />
    <glyph glyph-name="EE" unicode="&#xc0f;" horiz-adv-x="571" 
d="M551 536q0 -11 -8 -18t-20 -7t-33 28q-51 69 -145 69t-162 -52q-82 -60 -82 -161q0 -40 38 -74q21 -17 21 -29t-11 -22.5t-21 -10.5t-18 4q-36 25 -56.5 60.5t-20.5 72.5q0 120 90.5 192.5t227.5 72.5q84 0 136.5 -33.5t63.5 -87.5v-4zM355 481q30 0 30 -12
q18 -28 61 -76q105 -115 105 -215q-3 -79 -59 -130.5t-132.5 -51.5t-115.5 70q-25 -37 -55.5 -55t-57.5 -18q-101 0 -101 90q0 36 33 73q40 47 97.5 47t103 -73.5t107.5 -73.5q40 0 76 31t36 89q0 83 -109 192q-58 56 -58 78q0 10 16 22.5t23 12.5zM196 90q0 51 -50 51
q-20 0 -35 -18q-12 -17 -12 -32.5t10 -27.5t28.5 -12t38.5 15t20 24z" />
    <glyph glyph-name="AI" unicode="&#xc10;" horiz-adv-x="720" 
d="M313 435q51 128 169 128t179 -111q39 -72 39 -139v-19q-2 -122 -92 -213q-88 -85 -184.5 -85t-149.5 69q-19 -41 -50 -56.5t-67 -15.5t-64.5 20.5t-28.5 62t33 77.5q39 46 95.5 46t107 -67.5t112.5 -67.5q100 0 163 81q57 72 57 164.5t-57 145.5q-45 41 -99.5 41
t-92.5 -51q-30 -39 -30 -66q0 -12 -12 -20t-34 -8t-22 15q0 42 -41 70q-34 21 -62 21t-50 -10q-34 -15 -34 -47q0 -46 41 -62q21 -9 21 -22.5t-13.5 -22t-40.5 -8.5t-51.5 29t-24.5 66q0 65 52 103q42 32 100 32q88 0 131 -80zM179 138q-21 0 -34 -14.5t-13 -34t9 -27.5
q10 -12 30 -12t38 13.5t18 36t-13.5 30.5t-34.5 8z" />
    <glyph glyph-name="uni0C12" unicode="&#xc12;" horiz-adv-x="713" 
d="M338 110q-56 -115 -107 -115q-33 4 -50 46q-11 33 -11 77q0 95 54 240q1 2 1 7t-3.5 9t-7.5 4q-29 0 -72 -32.5t-43 -59.5q0 -11 22 -15q35 -6 35 -35q0 -18 -15 -29t-43 -11t-48 22t-20 57q0 61 68 113q66 47 140 47q26 0 38 -5q20 -7 19 -27t-28.5 -104.5t-27.5 -157.5
v-12q-1 -58 12 -58q9 0 32 43q43 81 78 81q17 0 30 -29q27 -54 55 -80q38 -33 75 -33t70 20.5t33 65.5t-48 71q-18 11 -18 22.5t15 24.5t40 13t52.5 -32.5t27.5 -95.5t-49 -109.5t-117.5 -46.5t-119.5 41t-69 83z" />
    <glyph glyph-name="OO" unicode="&#xc13;" horiz-adv-x="713" 
d="M463 524q-39 0 -39 44q0 30 -26.5 43.5t-64 13.5t-67.5 -23t-30 -60q0 -65 52 -113q9 -15 6 -28q0 -18 -27.5 -102.5t-27.5 -157.5v-12q-1 -58 12 -58q9 0 32 43q43 81 78 81q17 0 30 -29q27 -54 55 -80q38 -33 75 -33t70 20.5t33 65.5t-48 71q-18 11 -18 22.5t15 24.5
t40 13t52.5 -32.5t27.5 -95.5t-49 -109.5t-117.5 -46.5t-119.5 41t-69 83q-56 -115 -107 -115q-33 4 -50 46q-11 33 -11 77q0 95 54 240q1 2 1 7t-3.5 9t-7.5 4q-29 0 -72 -32.5t-43 -59.5q0 -11 22 -15q35 -6 35 -35q0 -18 -15 -29t-43 -11t-48 22t-20 57q0 54 54 100
t120 58q-36 51 -36 110.5t45 100.5q46 44 119.5 44t117 -34t43.5 -88q0 -22 -5 -32t-25 -10z" />
    <glyph glyph-name="AU" unicode="&#xc14;" horiz-adv-x="713" 
d="M486 520q29 0 29 -27v-24q0 -14 10 -24.5t37 -10.5t40.5 18.5t13.5 50.5t-32.5 45t-90.5 13h-198q16 -20 25 -36.5t9 -38.5q0 -36 -34 -72q1 -4 1 -6.5t-2 -6.5q0 -18 -27.5 -102.5t-27.5 -157.5v-12q-1 -58 12 -58q9 0 32 43q43 81 78 81q17 0 30 -29q27 -54 55 -80
q38 -33 75 -33t70 20.5t33 65.5t-48 71q-18 11 -18 22.5t15 24.5t40 13t52.5 -32.5t27.5 -95.5t-49 -109.5t-117.5 -46.5t-119.5 41t-69 83q-56 -115 -107 -115q-33 4 -50 46q-11 33 -11 77q0 95 54 240q1 2 1 7t-3.5 9t-7.5 4q-29 0 -72 -32.5t-43 -59.5q0 -11 22 -15
q35 -6 35 -35q0 -18 -15 -29t-43 -11t-48 22t-20 58.5t29 72t72 57.5q4 32 33 32l37 -5q23 0 41 13.5t18 38.5q0 64 -69 64h-117q-21 0 -31 11t-10 26t12 24q13 9 35 8h478q53 2 90 -28.5t37 -76.5l1 -14q0 -58 -46 -94q-37 -30 -85.5 -30t-78.5 27.5t-30 70.5
q0 22 11.5 34.5t28.5 12.5z" />
    <glyph glyph-name="Ka" unicode="&#xc15;" horiz-adv-x="488" 
d="M131 175q-101 0 -101 69.5t101 128.5q-21 5 -38 17q-38 24 -38 58q0 51 101 112q79 48 117 85q26 26 41 83q10 38 52 38q19 -1 29 -15q10 -11 10 -31q0 -30 -46 -91q-20 -25 -115.5 -90t-95.5 -89q0 -10 11 -17.5t26 -7.5h16q16 0 28 -8q61 19 122 19q20 0 36 -13.5
t16 -26.5t-12 -22t-18 -9q-113 0 -193.5 -36t-80.5 -79q0 -19 55 -19l150 10q85 0 124.5 -25t39.5 -65q0 -75 -97 -122q-83 -41 -172.5 -41t-119.5 7q-48 10 -48 43t38 33q9 0 57.5 -10t98 -10t100.5 25q59 28 59 67q0 25 -31.5 34t-81.5 9z" />
    <glyph glyph-name="Kha" unicode="&#xc16;" horiz-adv-x="714" 
d="M156 275q14 13 14 30.5t-11 28.5q-13 11 -31 11t-32.5 -13t-14.5 -31t10 -28t30 -10t35 12zM118 93q0 -37 55 -37q79 0 111 40l-1 3q-17 16 -45.5 26t-55 10t-44.5 -14q-20 -13 -20 -28zM424 386q0 39 45 39q84 0 154.5 -73.5t70.5 -157t-58 -139t-131.5 -55.5t-146.5 43
l-29 16q-60 -64 -154 -64q-52 0 -89 27t-37 68t35 69q36 26 100.5 26t138.5 -46q18 32 18 88t-40 94q-38 39 -105 39q25 -21 25 -57.5t-31 -60.5t-71 -24t-65 22q-24 23 -24 56q0 52 44 83t117 31q95 0 157 -53.5t62 -135.5q0 -45 -39 -112q68 -43 126 -43t93 34t35 86.5
t-39.5 95.5t-100.5 58q-35 9 -49 19q-12 10 -12 27zM356 -171q-7 -9 -23.5 -15t-27 -6t-14.5 2q-3 4 -3 10v138q0 23 13 38q14 15 29 15t21 -3q5 -5 5 -13v-166z" />
    <glyph glyph-name="Ga" unicode="&#xc17;" horiz-adv-x="570" 
d="M115 61q0 -58 -44 -58q-18 0 -30 18q-11 19 -11 50q0 133 78 244q35 53 74 81q-29 22 -29 52q0 51 101 112q79 48 110.5 79.5t46.5 88.5q9 38 53 38q19 -1 29 -15q10 -11 10 -31q0 -32 -47 -91q-20 -25 -115.5 -90t-95.5 -89q0 -16 22 -23l8 1q96 0 186 -133
q89 -134 89 -277q0 -35 -37 -35q-32 0 -32 26q0 114 -70 229.5t-135 115.5t-113 -78t-48 -178v-37z" />
    <glyph glyph-name="Gha" unicode="&#xc18;" horiz-adv-x="976" 
d="M214 90q0 25 -17 36.5t-32.5 11.5t-32 -16.5t-16.5 -30t12 -23.5q13 -13 30.5 -13t37.5 14q18 14 18 21zM240 476l-25 -23q-109 -108 -117 -140q-7 -18 -12 -23q-6 -9 -21 -9t-25 8.5t-10 23.5q0 46 113 151q48 46 61 62q42 64 77 127q19 35 34 35t29 -10
q14 -13 14 -21.5t-2 -11.5q-33 -80 -116 -169zM265 59q-47 -70 -112 -70q-45 0 -75 22t-30 65.5t33 82.5q42 47 101 47t106 -72q46 -74 105 -74q43 0 87 27.5t44 78.5q0 75 -80 122q-50 28 -50 58q0 14 14.5 25.5t31.5 11.5q71 -45 111 -98q42 -52 42 -101q0 -14 -2 -26
q3 -5 3 -9q5 -38 49.5 -63t103.5 -25t97.5 29.5t38.5 78.5q0 95 -157 192q-76 47 -76 69q0 18 10 26q10 12 30 12t70.5 -42.5t87.5 -72t70 -85t33 -103.5q5 -85 -55 -129.5t-156 -44.5q-126 0 -188 76q-60 -73 -146 -73q-51 0 -84 12t-57 53zM223 -47q0 47 40 47q17 0 30 -5
t7 -23.5t-5 -66.5l1 -55q0 -4 -1.5 -22.5t8.5 -41.5q0 -15 -17 -22.5t-32.5 -7.5t-20.5 17q-5 13 -5 48v65q0 45 -5 67z" />
    <glyph glyph-name="uni0C19" unicode="&#xc19;" horiz-adv-x="713" 
d="M364 478q0 37 32 37q17 0 25 -7t10 -24v-133h103q14 3 25 -6.5t11 -20.5q0 -24 -21 -32t-71 -8l-212 16q-27 -82 -27 -159v-12q-1 -58 12 -58q9 0 32 43q43 81 78 81q17 0 30 -29q27 -54 55 -80q38 -33 75 -33t70 20.5t33 65.5t-48 71q-18 11 -18 22.5t15 24.5t40 13
t52.5 -32.5t27.5 -95.5t-49 -109.5t-117.5 -46.5t-119.5 41t-69 83q-56 -115 -107 -115q-33 4 -50 46q-11 33 -11 77q0 95 54 240q1 2 1 7t-3.5 9t-7.5 4q-29 0 -72 -32.5t-43 -59.5q0 -11 22 -15q35 -6 35 -35q0 -18 -15 -29t-43 -11t-48 22t-20 57q0 61 68 113
q66 47 140 47q25 0 37 -5q19 -7 19 -30.5t-5 -38.5l85 -7z" />
    <glyph glyph-name="Ca" unicode="&#xc1a;" horiz-adv-x="800" 
d="M136 248q-106 -5 -106 42q0 10 10 23q11 12 20 12t23 -6q40 -18 100 -18l128 15q17 0 29.5 -6t9.5 -22q0 -24 -47 -37q-79 -21 -79 -86q0 -37 17.5 -61.5t33 -24.5t44.5 52q45 85 82 85q29 0 65 -60q53 -87 115 -87q47 0 84.5 23.5t37.5 70.5q0 85 -54 144t-169 59h-5
q-6 0 -11 2q-50 0 -86.5 23.5t-36.5 57.5q0 51 102 112q78 48 116 85q26 27 41 83q10 39 53 39q18 -2 28 -14.5t10 -31.5q0 -34 -46 -92q-20 -25 -115.5 -90t-95.5 -89q0 -10 11 -17.5t26 -7.5h17q7 0 14 -2q147 -7 216 -90q53 -65 53 -170q9 -65 -47 -115.5t-159.5 -50.5
t-166.5 128q-22 -15 -49.5 -74t-57.5 -59q-56 0 -96 56.5t-40 108.5q0 32 13 58q8 20 22 32h-54z" />
    <glyph glyph-name="Cha" unicode="&#xc1b;" horiz-adv-x="800" 
d="M383 11q12 13 28.5 13t21.5 -16v-217q-33 -22 -51 -22t-18 12v189q2 26 19 41zM136 248q-106 -5 -106 42q0 10 10 23q11 12 20 12t23 -6q40 -18 100 -18l128 15q17 0 29.5 -6t9.5 -22q0 -24 -47 -37q-79 -21 -79 -86q0 -37 17.5 -61.5t33 -24.5t44.5 52q45 85 82 85
q29 0 65 -60q53 -87 115 -87q47 0 84.5 23.5t37.5 70.5q0 86 -47 140q-56 63 -170 63h-15q-6 0 -11 2q-48 1 -83.5 24t-35.5 57q0 51 102 112q78 48 116 85q26 27 41 83q10 39 53 39q18 -2 28 -14.5t10 -31.5q0 -34 -46 -92q-20 -25 -115.5 -90t-95.5 -89q0 -10 11 -17.5
t26 -7.5h17q7 0 14 -2q145 -8 214 -90q55 -66 55 -170q9 -65 -47 -115.5t-159.5 -50.5t-166.5 128q-22 -15 -49.5 -74t-57.5 -59q-56 0 -96 56.5t-40 108.5q0 32 13 58q8 20 22 32h-54z" />
    <glyph glyph-name="Ja" unicode="&#xc1c;" horiz-adv-x="713" 
d="M238 435q56 0 56 -34q0 -43 35 -71q36 -26 85 -26q97 0 97 51q0 28 -15 50.5t-53 52.5q-30 18 -43 35q3 20 14.5 33.5t26.5 13.5q63 -42 101 -89.5t38 -90t-44 -76.5q-42 -35 -101.5 -35t-97 15t-66.5 50q-32 -89 -32 -173q0 -70 12 -70q18 18 39 55.5t36 53t30 15.5
t21 -5.5t14 -23.5q27 -53 62.5 -83t74 -30t67.5 24t29 53q0 52 -48 80q-11 8 -15 11q-3 4 -3 13.5t16 22.5t36 13q34 0 59 -37q24 -38 24 -96.5t-52 -103.5q-51 -47 -116.5 -47t-115.5 34q-49 34 -71 90q-24 -52 -53 -83.5t-54 -31.5q-27 3 -45 36q-16 34 -16 87
q0 92 54 240q1 2 1 7t-4 9q-2 4 -7 4q-31 0 -73 -33.5t-42 -58.5q0 -7 5 -10t22 -6.5t23.5 -11t6.5 -23t-15.5 -27.5t-43 -12t-47.5 21.5t-20 57.5q0 60 65 110t143 50z" />
    <glyph glyph-name="Jha" unicode="&#xc1d;" horiz-adv-x="1296" 
d="M508 201q0 77 -72 120t-173 43l-57 -4q-52 -40 -80 -81q-27 -43 -27 -88q0 -57 57.5 -94t142.5 -37t147 44t62 97zM870 -67q6 53 38 53q13 0 24 -14t7 -28v-140q-7 -33 -40 -33q-9 0 -19 7.5t-10 16.5v138zM877 62q-65 -71 -187 -71q-51 0 -98 27.5t-58 54.5q-3 6 -5 12
q-14 -14 -30 -27q-80 -64 -209 -64t-200 64q-60 53 -60 135.5t74 157.5q34 35 72 54q-18 19 -18 43q0 51 101 112q79 48 110.5 79.5t46.5 88.5q10 38 53 38q19 -1 29 -15q10 -11 10 -31q0 -32 -47 -91q-20 -25 -115.5 -90t-95.5 -89q0 -18 26 -24q117 -1 199 -50
q101 -58 101 -165q0 -23 -5 -44q4 -9 5 -18q5 -40 41 -64t92.5 -24t95 29.5t38.5 78.5q0 95 -157 192q-76 47 -76 69q0 18 10 26q10 12 30 12t70.5 -42.5t89 -73.5t70 -79.5t31.5 -94.5v-21q3 -4 3 -8q5 -38 49.5 -63t103.5 -25t97.5 29.5t38.5 78.5q0 95 -157 192
q-76 47 -76 69q0 18 10 26q10 12 30 12t70.5 -42.5t87.5 -72t70 -85t33 -103.5q5 -85 -55 -129.5t-166.5 -44.5t-172.5 71z" />
    <glyph glyph-name="Nya" unicode="&#xc1e;" horiz-adv-x="1066" 
d="M535 129q-125 61 -210 61t-142 -24q-57 -22 -57 -56q0 -24 47.5 -40.5t119.5 -16.5q145 0 242 76zM629 130q107 -89 115 -160q0 -12 -19 -24.5t-33 -12.5q-24 0 -28 15q-14 53 -31 81q-19 27 -59 57q-53 -41 -136 -66t-169 -25t-149 31q-62 32 -62 75q0 62 73 98.5
t204 36.5t248 -72q38 50 38 111t-40.5 100.5t-91.5 39.5t-84 -30q-31 -31 -31 -74q0 -20 -12.5 -32.5t-32 -12.5t-31.5 7t-12 18q-5 45 -30 69.5t-64 24.5t-66 -20.5t-27 -50.5q0 -27 49 -45l12 -6q3 -2 3 -4q0 -14 -12.5 -22.5t-41 -8.5t-54 23t-25.5 55q0 55 50 94.5
t121 39.5q43 0 75 -22t42 -58q5 48 55.5 80.5t126 32.5t133 -51t57.5 -123v-39l61 -2l48 -4l10 90q1 4 1 14.5t10 23.5t25 13t24.5 -5t9.5 -12l-13 -55l-7 -74h171q16 0 16 -31q0 -22 -55 -22h-136v-101q0 -24 -21 -24q-43 0 -43 72q0 36 5 60l-118 5q-18 -48 -49 -78z" />
    <glyph glyph-name="Lla" unicode="&#xc1f;" horiz-adv-x="729" 
d="M246 321q0 33 -42 33q-31 0 -50 -11.5t-19 -28t14.5 -28t35.5 -11.5t41 15t20 31zM139 660q0 4 4 6h-2q7 15 13.5 26t20.5 11t24 -11.5t9 -28.5v-189q1 -13 -9.5 -21.5t-21.5 -8.5t-22 9q-12 7 -16 18v189zM295 381q20 -25 20 -59t-40 -71t-88.5 -37t-83.5 31
q0 -51 36.5 -113t71.5 -62q22 0 59.5 73t60.5 73q35 0 68 -68q45 -93 106 -93q39 0 83 35q43 35 43 70.5t-26 73t-71 63.5q-143 83 -143 116q0 10 12.5 20t26.5 10t66 -34.5t70 -43.5q54 -37 94 -87t40 -108q9 -67 -59 -124t-135 -57q-46 0 -74.5 10.5t-45.5 32.5t-32 56
q-18 36 -28 36q-28 -60 -59.5 -96.5t-55.5 -36.5q-62 0 -121.5 72t-59.5 161.5t53 140t137 50.5q50 0 75 -34z" />
    <glyph glyph-name="TTha" unicode="&#xc20;" horiz-adv-x="596" 
d="M334 236q16 -13 16 -42.5t-27 -39.5q-12 -5 -30.5 -5t-36.5 15t-18 36t17 36q18 15 41 15t38 -15zM151 98q53 -35 145.5 -35t152 35t59.5 100t-66 116.5t-166 51.5q-76 0 -131 -71q-46 -59 -46 -111.5t52 -85.5zM250 450q0 -15 23 -23l15 1q102 0 195 -64.5t92.5 -159.5
t-76 -154t-208 -59t-205.5 68q-56 54 -56 120q0 92 70 167q35 38 77 58q-19 19 -19 44q0 51 101 112q79 48 110.5 79.5t46.5 88.5q10 38 53 38q19 -1 29 -15q10 -11 10 -31q0 -32 -47 -91q-20 -25 -115.5 -90t-95.5 -89z" />
    <glyph glyph-name="DDa" unicode="&#xc21;" horiz-adv-x="660" 
d="M413 208q-8 -12 -0.5 -22t20 -10t22.5 9.5t10 24t-6 23t-22 8.5t-20 -8.5t-4 -24.5zM346 365q-110 -31 -178.5 -95t-68.5 -140t50 -76q24 0 55.5 64.5t68.5 64.5q20 0 48 -45q52 -83 123 -83q51 0 90 30q37 31 37 70.5t-18 60t-49 32.5q14 -24 14 -44q0 -34 -29.5 -56.5
t-64 -22.5t-57.5 22t-23 62t39 67q36 27 93.5 27t104.5 -33q59 -41 59 -117q-2 -58 -55 -104q-60 -55 -156 -55q-83 0 -138 85q-16 24 -22 24q-9 0 -20 -30q-31 -84 -95 -84t-94 43t-30 101q0 133 129 221q36 24 72 40q-31 23 -31 54q0 51 101 112q79 48 117 85q26 26 41 83
q9 38 52 38q19 -1 29 -15q10 -11 10 -31q0 -30 -46 -91q-20 -25 -115.5 -90t-95.5 -89q0 -10 11 -17.5t26 -7.5h16q6 0 12 -1h3q39 0 51 -10t12 -29.5t-70 -19.5h-8z" />
    <glyph glyph-name="DDha" unicode="&#xc22;" horiz-adv-x="660" 
d="M413 208q-8 -12 -0.5 -22t20 -10t22.5 9.5t10 24t-6 23t-22 8.5t-20 -8.5t-4 -24.5zM309 -220q0 -10 -10.5 -17t-25.5 -7t-24 17t-9 42v131q-1 20 9 34t24.5 14t25.5 -11q10 -12 10 -27v-176zM346 365q-110 -31 -178.5 -95t-68.5 -140t50 -76q24 0 55.5 64.5t68.5 64.5
q20 0 48 -45q52 -83 123 -83q51 0 90 30q37 31 37 70.5t-18 60t-49 32.5q14 -24 14 -44q0 -34 -29.5 -56.5t-64 -22.5t-57.5 22t-23 62t39 67q36 27 93.5 27t104.5 -33q59 -41 59 -117q-2 -58 -55 -104q-60 -55 -156 -55q-83 0 -138 85q-16 24 -22 24q-9 0 -20 -30
q-31 -84 -95 -84t-94 43t-30 101q0 133 129 221q36 24 72 40q-31 23 -31 54q0 51 101 112q79 48 117 85q26 26 41 83q9 38 52 38q19 -1 29 -15q10 -11 10 -31q0 -30 -46 -91q-20 -25 -115.5 -90t-95.5 -89q0 -10 11 -17.5t26 -7.5h16q6 0 12 -1h3q39 0 51 -10t12 -29.5
t-70 -19.5h-8z" />
    <glyph glyph-name="uni0C23" unicode="&#xc23;" horiz-adv-x="705" 
d="M175 425q122 0 159 -74q7 29 42 53.5t84 24.5q104 0 164.5 -70.5t60.5 -172.5q-1 -67 -49 -121q-56 -65 -143.5 -65t-133.5 44q-36 34 -36 80.5t35 80.5q37 34 91 34t80 -30q24 -25 24 -60q0 -11 -13.5 -20t-27.5 -9t-28.5 29t-41 29t-39 -13.5t-12.5 -33.5q0 -33 38 -52
q27 -15 59 -15q53 0 90.5 38.5t37.5 96t-43 106.5t-109 59q-74 0 -106 -73q-14 -32 -28 -32q-10 0 -20 9.5t-15 20.5q-7 37 -38.5 55.5t-66.5 18.5t-63 -11.5t-28 -35.5q0 -31 88 -51t88 -57q0 -33 -63.5 -54t-63.5 -40q0 -29 67.5 -49t67.5 -42q0 -13 -12.5 -23t-27.5 -10
q-45 0 -121 36.5t-76 76.5q0 56 100 86q29 9 29 14.5t-32 12.5q-113 27 -113 103q0 51 43 78.5t102 27.5z" />
    <glyph glyph-name="Ta" unicode="&#xc24;" horiz-adv-x="615" 
d="M378 226q40 0 40 44q0 1 1.5 10.5t-10.5 17.5q-20 0 -35.5 -11.5t-15.5 -35.5v-2q0 -23 20 -23zM99 205q0 -25 64 -25q7 0 21 14t14 25.5t-14 20.5q-11 9 -30.5 9t-38.5 -14q-16 -14 -16 -30zM306 424q107 -5 153 -54q56 -9 96 -47.5t40 -96.5q-2 -100 -92 -166
t-202.5 -66t-191.5 50t-79 132q0 57 46 92q40 32 86 32t75 -22.5t29 -53.5q0 -45 -38 -73q-34 -23 -72 -23t-61 17q16 -41 73 -64t131 -23t145 43q82 49 82 115q0 35 -14 59t-33 28q7 -20 7 -30q0 -42 -35 -73t-73 -31t-63.5 21t-25.5 60q0 76 82 101q-21 12 -58 14l-14 1
h-130q-20 0 -34 14t-14 33q0 35 99 121l119 107q24 24 41 83q5 17 20 27q14 12 33 12q16 -2 27 -15t11 -29q0 -35 -46 -93q-61 -78 -230 -201z" />
    <glyph glyph-name="Tha" unicode="&#xc25;" horiz-adv-x="636" 
d="M334 304q19 0 32 -13t13 -36.5t-24 -36.5q-10 -8 -25.5 -8t-29.5 15t-14 33t14.5 32t33.5 14zM309 -181q0 -10 -10.5 -17t-25.5 -7t-24 17t-9 41v131q-1 20 9 33.5t25 13.5t25.5 -11.5t9.5 -25.5v-175zM302 426h13q123 0 212 -70t89 -182q0 -68 -50 -120
q-56 -60 -143 -60q-77 0 -132 107q-20 39 -30.5 39t-25.5 -54q-27 -93 -60 -93q-75 0 -115 73q-30 54 -30 107q0 116 83 187q38 31 85 48q-15 18 -15 40q0 51 101 112q79 48 110.5 79.5t46.5 88.5q9 38 53 38q19 -1 29 -15q10 -11 10 -31q0 -32 -47 -91q-20 -25 -115.5 -90
t-95.5 -89q0 -18 27 -24zM294 367q-70 -6 -132.5 -59t-62.5 -123q0 -49 21 -82q19 -32 39 -32q11 0 29 48q35 95 81 95q32 0 62 -63q40 -90 108 -90q41 0 75 37q34 33 34 71q0 99 -75 152q-56 40 -133 45z" />
    <glyph glyph-name="Da" unicode="&#xc26;" horiz-adv-x="636" 
d="M294 367q-70 -6 -132.5 -59t-62.5 -123q0 -49 21 -82q19 -32 39 -32q11 0 29 48q35 95 81 95q32 0 62 -63q40 -90 108 -90q41 0 75 37q34 33 34 71q0 99 -75 152q-56 40 -133 45zM302 426h13q123 0 212 -70t89 -182q0 -68 -50 -120q-56 -60 -143 -60q-77 0 -132 107
q-20 39 -30.5 39t-25.5 -54q-27 -93 -60 -93q-75 0 -116 80q-29 57 -29 112q0 115 83 180q36 29 84 44q-14 18 -14 39q0 51 101 112q79 48 110.5 79.5t46.5 88.5q9 38 53 38q19 -1 29 -15q10 -11 10 -31q0 -32 -47 -91q-20 -25 -115.5 -90t-95.5 -89q0 -18 27 -24z" />
    <glyph glyph-name="Dha" unicode="&#xc27;" horiz-adv-x="636" 
d="M463 321q-70 45 -169 45q-80 0 -137.5 -55t-57.5 -126q0 -49 21 -82q19 -32 39 -32q11 0 29 49l8 23q29 71 73 71q32 0 61 -61l8 -15q16 -35 38.5 -56t63 -21t74.5 37q34 33 34 71q0 97 -85 152zM309 -181q0 -10 -10.5 -17t-25.5 -7t-24 17t-9 41v131q-1 20 9 33.5
t25 13.5t25.5 -11.5t9.5 -25.5v-175zM301 426h8q124 0 215.5 -70t91.5 -182q0 -68 -50 -120q-56 -60 -143 -60q-77 0 -132 107q-20 39 -30.5 39t-25.5 -54q-27 -93 -60 -93q-75 0 -116 73q-29 54 -29 107q0 117 80 187q38 33 87 49q-14 18 -14 39q0 51 101 112
q79 48 110.5 79.5t46.5 88.5q9 38 53 38q19 -1 29 -15q10 -11 10 -31q0 -32 -47 -91q-20 -25 -115.5 -90t-95.5 -89q0 -18 26 -24z" />
    <glyph glyph-name="Na" unicode="&#xc28;" horiz-adv-x="595" 
d="M287 424q142 -9 222 -90q64 -65 64 -136q2 -80 -54 -144q-63 -69 -159 -69q-65 0 -125 35l-9 5q-46 31 -67 31t-40.5 -26t-19.5 -76t25 -94q5 -10 -7.5 -21t-30.5 -11q-26 15 -41 50.5t-15 88t31 104.5q35 62 87 62q30 -3 85 -34l10 -6q62 -37 105 -37q63 0 109.5 44
t46.5 93q0 77 -57 125t-172 48h-7q-10 -1 -18 0h-86q-36 0 -61 19t-25 36q0 43 95.5 99t144.5 105q23 24 55 72.5t55 48.5q36 0 36 -25l-1 -7q-18 -53 -60 -98q-24 -26 -74.5 -64.5t-106.5 -70t-56 -42.5t15 -11q7 0 10 -2h88z" />
    <glyph glyph-name="Pa" unicode="&#xc2a;" horiz-adv-x="613" 
d="M214 90q0 25 -17 36.5t-32.5 11.5t-32 -16.5t-16.5 -30t12 -23.5q13 -13 30.5 -13t37.5 14q18 14 18 21zM240 476l-25 -23q-109 -108 -117 -140q-7 -18 -12 -23q-6 -9 -21 -9t-25 8.5t-10 23.5q0 46 113 151q48 46 61 62q42 64 77 127q19 35 34 35t29 -10
q14 -13 14 -21.5t-2 -11.5q-33 -80 -116 -169zM265 59q-47 -70 -112 -70q-45 0 -75 22t-30 65.5t33 82.5q42 47 101 47t106 -72q46 -74 105 -74q43 0 87 27.5t44 78.5q0 75 -80 122q-50 28 -50 58q0 14 14.5 25.5t31.5 11.5q71 -45 111 -98q42 -52 42 -101q0 -81 -60 -138
q-57 -52 -127 -52q-51 0 -84 12t-57 53z" />
    <glyph glyph-name="Pha" unicode="&#xc2b;" horiz-adv-x="613" 
d="M214 90q0 25 -17 36.5t-32.5 11.5t-32 -16.5t-16.5 -30t12 -23.5q13 -13 30.5 -13t37.5 14q18 14 18 21zM223 -47q0 47 40 47q17 0 30 -5t7 -23.5t-5 -66.5l1 -55q0 -4 -1.5 -22.5t8.5 -41.5q0 -15 -17 -22.5t-32.5 -7.5t-20.5 17q-5 13 -5 48v65q0 45 -5 67zM265 59
q-47 -70 -112 -70q-45 0 -75 22t-30 65.5t33 82.5q42 47 101 47t106 -72q46 -74 105 -74q43 0 87 27.5t44 78.5q0 75 -80 122q-50 28 -50 58q0 14 14.5 25.5t31.5 11.5q71 -45 111 -98q42 -52 42 -101q0 -81 -60 -138q-57 -52 -127 -52q-51 0 -84 12t-57 53zM240 476
l-25 -23q-109 -108 -117 -140q-7 -18 -12 -23q-6 -9 -21 -9t-25 8.5t-10 23.5q0 46 113 151q48 46 61 62q42 64 77 127q19 35 34 35t29 -10q14 -13 14 -21.5t-2 -11.5q-33 -80 -116 -169z" />
    <glyph glyph-name="Ba" unicode="&#xc2c;" horiz-adv-x="746" 
d="M30 275q0 61 67 110t135.5 49t61.5 -33q0 -18 -27.5 -102.5t-27.5 -157.5v-18q-3 -53 11 -53q11 0 36 46q43 78 74 78q18 0 31 -32t25 -46q28 -31 57.5 -48t51.5 -17q53 0 93 32t40 88q0 70 -135 153q-77 46 -77 70t11 40.5t32 16.5q9 0 11 -6q16 -20 71 -61
q155 -115 155 -220q0 -89 -68 -136q-58 -40 -142 -40q-60 0 -111 41.5t-69 84.5q-54 -118 -106 -118q-34 4 -49 47q-11 31 -11 75q0 95 54 240q1 2 1 7q0 14 -12 14q-29 0 -70 -33q-44 -32 -44 -60q0 -12 21 -16q34 -5 34 -34q0 -17 -15 -27.5t-42.5 -10.5t-47 21.5
t-19.5 55.5z" />
    <glyph glyph-name="Bha" unicode="&#xc2d;" horiz-adv-x="723" 
d="M308 -47q0 47 38 47q18 0 31 -5t7 -23.5t-4 -61.5l1 -60q0 -5 -1.5 -23t6.5 -41q0 -15 -16.5 -22.5t-31.5 -7.5t-20 17q-5 13 -5 48v65q0 45 -5 67zM526 53q108 0 108 118q0 82 -47.5 138.5t-113.5 56.5h-79q-20 0 -35 14q-14 14 -14 33q0 35 99 121l119 107q23 24 41 83
q5 17 20 27q14 12 32 12q17 -2 28 -15t11 -28t-14 -37l-38 -58q-65 -84 -205 -185q0 -6 14 -10.5t26 -4.5q90 0 157.5 -75t67.5 -173t-52.5 -144.5t-132.5 -46.5q-60 0 -111 41t-69 83q-56 -115 -107 -115q-33 4 -50 46q-11 33 -11 77q0 95 54 240q1 2 1 7t-3.5 9t-7.5 4
q-29 0 -72 -32.5t-43 -59.5q0 -11 19.5 -14t28.5 -10t9 -25.5t-15 -29.5t-43 -11t-48 22t-20 57q0 61 68 113q66 47 140 47q25 0 37 -5q19 -7 19 -29q0 -38 -18 -75q-37 -97 -37 -185v-12q-1 -58 12 -58q7 0 22 24l17 33q36 67 71 67q12 0 19 -9l18 -33q25 -54 78 -84
q29 -16 50 -16z" />
    <glyph glyph-name="Ma" unicode="&#xc2e;" horiz-adv-x="936" 
d="M209 95q0 29 -19 42t-38 13t-36 -18.5t-17 -35t13 -29t32.5 -12.5t42 15.5t22.5 24.5zM358 -9q-71 0 -110 68q-24 -36 -54.5 -53t-67 -17t-66.5 22t-30 65.5t37.5 86.5t97 43t105.5 -73t105 -73q34 0 69.5 34.5t35.5 97t-35 104.5q-54 67 -183 70q-4 -1 -8 -1h-113
q-36 0 -61 19t-25 36q0 43 95.5 99t144.5 105q24 24 56 72.5t54 48.5q36 0 36 -25l-1 -7q-17 -53 -60 -98q-24 -26 -74.5 -65t-106 -70t-55.5 -42.5t15 -11.5q6 0 10 -1h87q133 -1 213 -66t80 -175q-1 -11 -2 -21q7 -7 7 -14q5 -38 49.5 -63t103.5 -25t97.5 29.5t38.5 78.5
q0 95 -157 192q-76 47 -76 69q0 18 10 26q10 12 30 12t70.5 -42.5t87.5 -72t70 -85t33 -103.5q5 -85 -55 -129.5t-170.5 -44.5t-174.5 78q-57 -78 -153 -78z" />
    <glyph glyph-name="Ya" unicode="&#xc2f;" horiz-adv-x="1265" 
d="M159 80q51 -35 120 -35t121.5 44.5t52.5 111.5t-47 108.5t-120 41.5t-130 -43.5t-57 -126.5q0 -62 60 -101zM842 66q-64 -75 -181 -75q-45 0 -98 28.5t-72 64.5q-47 -51 -99.5 -77.5t-138 -26.5t-154.5 57t-69 145t64 154q71 75 190.5 75t183.5 -76q53 -64 53 -164
q7 -56 62 -87q43 -24 93 -24t93.5 34.5t43.5 92t-82 114.5q-73 53 -148 65h-65q-20 0 -35 14q-14 14 -14 33q0 35 99 121l118 107q24 24 42 83q5 17 20 27q13 12 32 12q16 -2 28 -14q11 -14 11 -29t-14 -37l-39 -58q-65 -84 -205 -185q0 -6 14.5 -10.5t31 -4.5t26.5 -8
q94 -22 165 -82q83 -72 83 -156q0 -11 -1 -22q3 -4 3 -8q5 -38 49 -63t103.5 -25t97.5 29.5t38 78.5q0 95 -156 192q-76 47 -76 69q0 18 10 26q10 12 30 12t77 -49q44 -36 81 -65.5t70 -85t33 -103.5q5 -85 -55 -129.5t-155 -44.5q-127 0 -188 75z" />
    <glyph glyph-name="Ra" unicode="&#xc30;" horiz-adv-x="596" 
d="M508 201q0 77 -72 120t-173 43l-57 -4q-52 -40 -80 -81q-27 -43 -27 -88q0 -57 57.5 -94t142.5 -37t147 44t62 97zM276 426q117 -1 199 -50q101 -58 101 -165q-1 -93 -79 -155t-207 -62t-200 64q-60 53 -60 135.5t74 157.5q34 35 72 54q-18 19 -18 43q0 51 101 112
q79 48 110.5 79.5t46.5 88.5q10 38 53 38q19 -1 29 -15q10 -11 10 -31q0 -32 -47 -91q-20 -25 -115.5 -90t-95.5 -89q0 -18 26 -24z" />
    <glyph glyph-name="RRa" unicode="&#xc31;" horiz-adv-x="716" 
d="M221 346q-60 0 -60 -43q0 -20 16 -31.5t34.5 -11.5t36 12t17.5 33t-13 31t-31 10zM539 215q0 -25 -26 -27h-245q-48 3 -85 -13q-18 -7 -31.5 -7t-24.5 7.5t-11 16.5t7 18q6 13 17 16q-10 8 -27 42q-16 -18 -14 -74q0 -139 92 -139q35 0 64.5 29.5t29.5 63.5
q0 8 11.5 15.5t22 7.5t23 -5.5t12.5 -16.5q5 -43 35 -66.5t77 -23.5q67 0 114.5 45.5t47.5 116.5q0 50 -35 96.5t-95 50.5q-30 -5 -42.5 -18.5t-12.5 -36.5q0 -33 55 -59q41 -20 41 -39zM416 244q-42 23 -42 72.5t37 78.5t90 29q80 0 137.5 -56.5t57.5 -152.5
q-6 -91 -68 -155t-159 -64q-48 0 -90.5 21t-63.5 66q-6 -35 -45.5 -62t-85.5 -27q-76 0 -116 56q-38 51 -38 142.5t65 155.5q58 55 126 55q50 0 79 -22q34 -22 34 -67q0 -39 -39 -70h121z" />
    <glyph glyph-name="La" unicode="&#xc32;" horiz-adv-x="615" 
d="M151 285q14 -12 33 -12t32 10t13 29t-12 30.5t-30.5 11.5t-33 -9.5t-14.5 -28t12 -31.5zM95 275l4 -47q0 -82 72 -129q62 -41 142 -41t146.5 37.5t66.5 102.5q0 85 -102 146q-41 25 -41 40t12 26q11 8 21 8q40 0 102 -58q77 -70 77 -161q-6 -69 -65 -125
q-81 -78 -227 -78q-98 0 -172 47q-101 61 -101 187q0 70 43 122t115 52q42 0 73 -24q37 -26 37 -66.5t-30 -69t-68 -28.5q-72 0 -105 59z" />
    <glyph glyph-name="LLa" unicode="&#xc33;" horiz-adv-x="630" 
d="M194 310q0 49 -44 49q-21 0 -36 -12.5t-15 -34t16 -32t33.5 -10.5t31.5 11.5t14 28.5zM428 91q0 32 -27.5 46t-76.5 17q-35 -3 -54.5 -19.5t-19.5 -40.5t26.5 -38.5t59 -14.5t59.5 14q33 15 33 36zM263 318q0 -52 -74 -75l25 -9q79 -25 97 -29q17 8 57 21q133 49 133 87
q0 22 -27.5 36.5t-63.5 16.5h-101q-20 0 -35 14q-14 14 -14 33q0 35 99 121l119 107q23 24 41 83q5 17 20 27q14 12 32 12q17 -2 28 -15t11 -28t-14 -37l-38 -58q-65 -84 -205 -185q0 -6 14 -10.5t34 -4.5h5q60 0 110 -21q69 -30 69 -85q0 -43 -74 -85q-55 -33 -132 -54
q49 -1 83 -31t34 -67.5t-41 -63t-110 -25.5t-116.5 25t-47.5 76q0 26 16 45.5t42 26.5q-19 9 -66 22q-143 38 -143 116q0 39 34 68t79.5 29t82.5 -20.5t37 -62.5z" />
    <glyph glyph-name="uni0C34" unicode="&#xc34;" horiz-adv-x="680" 
d="M204 353q57 0 57 49q0 20 -17 36q-15 17 -38.5 17t-39.5 -16t-16 -36.5t18 -35t36 -14.5zM429 402q0 -49 57 -49q18 0 36 14.5t18 35t-16 36.5t-39.5 16t-38.5 -17q-17 -16 -17 -36zM346 196q23 0 23 -26t24 -43q29 -18 79 -18q68 0 101.5 51.5t33.5 118.5t-26 105
q-3 -41 -30.5 -62.5t-69.5 -21.5t-78.5 29t-36.5 72t32 78q36 37 86 37q76 0 126 -76.5t50 -186t-49.5 -181.5t-135.5 -72q-49 0 -81.5 23t-46.5 60l-2 2l-2 -2q-14 -37 -46.5 -60t-81.5 -23q-86 0 -135.5 72t-49.5 181.5t50 186t126 76.5q50 0 86 -37q32 -35 32 -78
t-36.5 -72t-78.5 -29t-69.5 21.5t-30.5 62.5q-26 -38 -26 -105t33.5 -118.5t101.5 -51.5q50 0 79 18q24 17 24 43t23 26h2z" />
    <glyph glyph-name="Va" unicode="&#xc35;" horiz-adv-x="569" 
d="M209 95q0 29 -19 42t-38 13t-36 -18.5t-17 -35t13 -29t32.5 -12.5t42 15.5t22.5 24.5zM549 184q-5 -83 -56.5 -138t-128.5 -55t-116 68q-24 -36 -54.5 -53t-67 -17t-66.5 22t-30 65.5t37.5 86.5t97 43t105.5 -73t105 -73q34 0 69.5 34.5t35.5 97t-35 104.5
q-54 67 -183 70q-4 -1 -8 -1h-113q-36 0 -61 19t-25 36q0 43 95.5 99t144.5 105q24 24 56 72.5t54 48.5q36 0 36 -25l-1 -7q-17 -53 -60 -98q-24 -26 -74.5 -65t-106 -70t-55.5 -42.5t15 -11.5q6 0 10 -1h87q133 -1 213 -66t80 -175z" />
    <glyph glyph-name="Sha" unicode="&#xc36;" horiz-adv-x="709" 
d="M509 139q-11 9 -15 11q-30 -2 -53 -21t-23 -38.5t21 -32t46.5 -12.5t48.5 12q25 11 25 28t-50 53zM430 425h23q100 -7 168 -43t68 -79t-45.5 -75t-92.5 -44l18 -15q59 -48 59 -85.5t-38 -65.5q-41 -32 -100.5 -32t-100 27t-40.5 73q0 33 26 61.5t69 42.5
q-50 36 -101.5 47.5t-107 11.5t-96 -32t-40.5 -76l5 -55q2 -8 -5 -17q-10 -9 -29.5 -9t-29.5 19t-10 49q0 81 54.5 131.5t161.5 50.5q130 0 262 -89l12 4q100 35 100 70q0 24 -49.5 44t-124.5 27h-108q-20 0 -35 14q-14 14 -14 33q0 35 99 121l118 107q24 24 42 83
q5 17 20 27q13 12 32 12q16 -2 28 -14q11 -14 11 -29t-14 -37l-39 -58q-65 -84 -205 -185q0 -6 14.5 -10.5t34.5 -4.5z" />
    <glyph glyph-name="SSa" unicode="&#xc37;" horiz-adv-x="620" 
d="M265 59q-47 -70 -112 -70q-45 0 -75 22t-30 65.5t33 82.5q42 47 101 47t106 -72q46 -74 105 -74q43 0 87 27.5t44 78.5q0 75 -80 122q-50 28 -50 58q0 14 14.5 25.5t31.5 11.5q71 -45 111 -98q42 -52 42 -101q0 -11 -3 -29v-194q-6 -48 -1 -67t6 -30q5 -24 -8 -37.5
t-33 -6.5q-35 16 -35 103l10 120q-53 -49 -123 -49q-51 0 -84 12t-57 53zM214 90q0 25 -17 36.5t-32.5 11.5t-32 -16.5t-16.5 -30t12 -23.5q13 -13 30.5 -13t37.5 14q18 14 18 21zM240 476l-25 -23q-109 -108 -117 -140q-7 -18 -12 -23q-6 -9 -21 -9t-25 8.5t-10 23.5
q0 46 113 151q48 46 61 62q42 64 77 127q19 35 34 35t29 -10q14 -13 14 -21.5t-2 -11.5q-33 -80 -116 -169z" />
    <glyph glyph-name="Sa" unicode="&#xc38;" horiz-adv-x="600" 
d="M86 -172q-56 10 -56 112q0 71 37 132t81 61q23 -2 87 -35q71 -42 113 -42q62 0 106 39.5t44 87.5t-13.5 71.5t-60.5 65.5q-16 18 -16 26q0 23 32 44q9 4 15 2t19 -11q55 -37 80.5 -79t25.5 -96q0 -91 -64.5 -156t-155.5 -65q-72 0 -139 45q-40 26 -64 26t-41 -26.5
t-17 -68t24 -100.5q2 -33 -37 -33zM240 476l-25 -23q-109 -108 -117 -140q-7 -18 -12 -23q-6 -9 -21 -9t-25 8.5t-10 23.5q0 46 113 151q48 46 61 62q42 64 77 127q19 35 34 35t29 -10q14 -13 14 -21.5t-2 -11.5q-33 -80 -116 -169z" />
    <glyph glyph-name="Ha" unicode="&#xc39;" horiz-adv-x="840" 
d="M133 129q-15 -15 -15 -32t11.5 -26.5t33 -9.5t52.5 35q0 17 -13 30.5t-33 17.5q-21 0 -36 -15zM81 24q-32 30 -32 75t35 79.5t84 34.5q55 0 112 -74q56 -73 114 -73q41 0 71 20q29 20 29 44q0 49 -58 86q-51 38 -51 88.5t57 87.5t147.5 37t160.5 -48t70 -117
q0 -43 -33 -73t-79.5 -30t-79 25t-32.5 60q0 18 13.5 30t27 12t22.5 -9.5t11.5 -23.5t13.5 -23t27.5 -9t28 11.5t11.5 29.5q0 40 -51 67q-50 29 -112 29t-98 -15.5t-36 -38.5q0 -12 15.5 -30t40.5 -35q53 -35 53 -107q0 -55 -49 -94.5t-119 -39.5q-66 0 -129 65
q-13 -32 -42.5 -51t-69.5 -19t-73 29zM240 476l-25 -23q-109 -108 -117 -140q-7 -18 -12 -23q-6 -9 -21 -9t-25 8.5t-10 23.5q0 46 113 151q48 46 61 62q42 64 77 127q19 35 34 35t29 -10q14 -13 14 -21.5t-2 -11.5q-33 -80 -116 -169z" />
    <glyph glyph-name="Avagraha" unicode="&#xc3d;" horiz-adv-x="751" 
d="M74 227q43 39 107 39t112 27q47 31 47 66q0 65 -64 108l8 -39q0 -50 -37 -84q-32 -36 -83.5 -36t-86.5 31q-35 27 -35 68q0 57 44 95.5t117 38.5t136 -53q56 -53 56 -132q0 -63 -65 -107q-63 -40 -158 -44q-35 0 -56 -20t-22 -52q0 -23 27.5 -39t70.5 -19h495
q20 0 32 -13.5t12 -30.5q0 -36 -41 -44h-506q-64 0 -108 44q-45 41 -45.5 100.5t43.5 95.5zM216 475q-18 20 -46 20t-46 -20t-18 -46.5t19 -46t45 -19.5t46 19.5t20 46t-20 46.5z" />
    <glyph glyph-name="AAMatra" unicode="&#xc3e;" horiz-adv-x="588" 
d="M334 481q15 15 32 15q33 0 33 -18q-7 -12 -7 -24.5t13.5 -23.5t32.5 -11t31.5 12.5t14.5 29.5q0 40 -90 67t-214 27t-207.5 -24.5t-83.5 -61.5q0 -15 34 -26q33 -13 64.5 -13.5t43.5 -9.5q10 -10 10 -23t-11.5 -22.5t-26.5 -9.5q-81 0 -138 30.5t-57 73.5q0 61 110.5 105
t265.5 44t264.5 -47.5t109.5 -115.5q0 -39 -35.5 -67t-85 -28t-83 24.5t-33.5 59.5q0 21 13 37z" />
    <glyph glyph-name="Imatra" unicode="&#xc3f;" horiz-adv-x="0" 
d="M-91 403q-44 35 -44 89t52 90t114.5 36t107 -33.5t44.5 -80.5q0 -64 -40 -100t-115 -36t-119 35zM-64 494q0 -71 85 -71q33 0 62 20q28 20 28 51q0 66 -96 66q-29 0 -54 -18t-25 -48z" />
    <glyph glyph-name="IIMatra" unicode="&#xc40;" horiz-adv-x="0" 
d="M183 504q0 -136 -157 -136q-67 0 -114 35q-46 35 -46 85q0 71 80 110q-138 51 -138 147q0 76 62.5 117t161.5 41q62 0 113.5 -36.5t51.5 -99t-34 -62.5q-16 0 -28 9.5t-12 20.5l3 39q0 25 -27 47.5t-81.5 22.5t-97 -29.5t-42.5 -64.5q0 -46 70 -87q50 -29 118 -48
q50 -9 83.5 -39.5t33.5 -71.5zM89 543q-23 17 -62.5 17t-64.5 -18t-25 -53t23.5 -50.5t59.5 -15.5t64 20t28 51.5t-23 48.5z" />
    <glyph glyph-name="UMatra" unicode="&#xc41;" horiz-adv-x="361" 
d="M331 165q5 -85 -55 -129.5t-155.5 -44.5t-155.5 45t-60 109q0 11 9.5 18.5t24 7.5t25.5 -6q10 -7 10 -16q5 -38 49.5 -63t103.5 -25t97.5 29.5t38.5 78.5q0 95 -157 192q-76 47 -76 69q0 18 10 26q10 12 30 12t70.5 -42.5t87.5 -72t70 -85t33 -103.5z" />
    <glyph glyph-name="UUMatra" unicode="&#xc42;" horiz-adv-x="501" 
d="M-34 180q25 -22 27 -31q0 -55 60 -79q37 -15 77.5 -15t69.5 16q26 17 26 39q0 48 -98 106q-106 65 -106 120t64 87q54 25 117 25q113 0 189 -38q90 -42 90 -124q-9 -40 -37 -67.5t-72.5 -27.5t-72.5 21.5t-28 62.5q0 19 8 29t34.5 10t26.5 -34v-21q0 -20 23 -20t37 12
q12 13 12 28q0 52 -60.5 81.5t-137.5 29.5q-124 0 -124 -52q0 -20 70 -68q134 -90 134 -162q0 -52 -42 -83t-124.5 -31t-137 44.5t-54.5 106.5q0 15 9 25q7 10 20 10z" />
    <glyph glyph-name="RMatra" unicode="&#xc43;" horiz-adv-x="308" 
d="M102 -181q0 30 -54 30q-32 0 -61 -20.5t-29 -59.5q0 -55 51 -83q40 -22 107.5 -22t121.5 48.5t54 129.5t-150 259q-120 144 -120 198q0 36 9 54q10 17 33 17t30 -16q8 -14 8 -58q0 -51 100 -167q67 -78 100 -128q55 -86 55 -150q0 -108 -72.5 -175.5t-182.5 -67.5
q-90 0 -149.5 43t-59.5 113.5t61 109.5q48 30 102.5 30t86 -24t31.5 -62t-38 -64q-32 -20 -56 -20q-43 0 -43 31t32.5 31t32.5 23z" />
    <glyph glyph-name="RRMatra" unicode="&#xc44;" horiz-adv-x="493" 
d="M288 360q29 0 29 -29v-17q0 -18 7.5 -27t33.5 -9t41 15q15 12 15 36q0 44 -59 72q-48 24 -108 24t-100 -30.5t-40 -78.5q0 -28 23.5 -76.5t84 -118.5t93.5 -120q55 -86 55 -150q0 -108 -72.5 -175.5t-182.5 -67.5q-90 0 -149.5 43t-59.5 113.5t61 109.5q48 30 102.5 30
t86 -24t31.5 -62t-38 -64q-32 -20 -56 -20q-43 0 -43 30q0 26 32.5 31t32.5 24q0 30 -54 30q-32 0 -61 -20.5t-29 -59.5q0 -54 50 -79q38 -20 106 -20t121 45.5t53 125t-133.5 239t-133.5 239.5t76 126q62 38 151 38t154.5 -43.5t65.5 -110.5q0 -49 -37 -76t-77.5 -27
t-71.5 22q-38 25 -38 65q0 23 11 35t27 12z" />
    <glyph glyph-name="uni0C46" unicode="&#xc46;" horiz-adv-x="0" 
d="M203 506q0 65 -102 65q-45 0 -134 -9t-128 -9q-92 0 -92 42q0 31 26 31l64 -1q45 0 133 8t133 8q70 0 120 -39t50 -96q0 -72 -57 -110q-50 -31 -134 -31h-150q-25 0 -43.5 9.5t-18.5 24.5q0 29 30 29l185 -4q42 0 80 24q38 26 38 58z" />
    <glyph glyph-name="EEMatra" unicode="&#xc47;" horiz-adv-x="0" 
d="M-105 400q0 29 30 29l160 -4q42 0 80 25t38 59t-32 50q-26 14 -71 14t-136 -9.5t-130 -9.5q-87 0 -87 42q0 13 6.5 22.5t19.5 9.5l45 -2q48 0 142.5 8.5t141.5 8.5q-10 27 -10 63q0 53 44.5 84t111.5 31t122 -28q75 -40 75 -119q0 -36 -14 -60q-16 -30 -48 -30
q-16 0 -29 7t-13 17.5t14.5 29t14.5 45.5q0 38 -38.5 57.5t-76.5 19.5t-65 -17t-27 -53q0 -38 15 -59q40 -15 68 -50q27 -36 27 -73q0 -73 -53.5 -107.5t-137.5 -34.5h-125q-25 0 -43.5 9.5t-18.5 24.5z" />
    <glyph glyph-name="AIMatra" unicode="&#xc48;" horiz-adv-x="777" 
d="M642 -241q49 0 49 -33q0 -18 -12 -22.5t-46 -4.5l-398 -15q-68 0 -115 29q-58 35 -58 102q0 51 32.5 79.5t85.5 28.5t82 -35q24 -27 24 -58t-14 -56.5t-56 -37.5l371 24zM126 -176q0 -20 14.5 -34.5t34.5 -14.5t33.5 14.5t13.5 34.5t-13.5 33.5t-33.5 13.5t-34.5 -13.5
t-14.5 -33.5zM276 596q0 32 26 32l126 -2l135 17q59 0 105.5 -39t46.5 -90q0 -73 -70 -113q-60 -35 -147 -35h-125q-25 0 -43.5 9.5t-18.5 24.5q0 29 30 29l185 -4q42 0 80.5 25t38.5 59t-33 50q-26 14 -70 14l-186 -19q-33 0 -56.5 10t-23.5 32z" />
    <glyph glyph-name="OMatra" unicode="&#xc4a;" horiz-adv-x="618" 
d="M480 380q-45 0 -77.5 29t-32.5 74t35 67q-50 0 -85.5 -25t-35.5 -61q0 -14 -11.5 -23.5t-25.5 -9.5q-28 0 -37 27q-7 33 -51 56q-44 21 -97.5 21t-87.5 -17q-33 -19 -33 -41.5t17.5 -37t41.5 -14.5h23v-59h-34q-49 0 -84 32.5t-35 80t54 81.5t120 34q129 0 199 -66
q22 35 68.5 55.5t114.5 20.5t115 -32.5t47 -81.5t-31.5 -79.5t-76.5 -30.5zM506 527.5q-15 17.5 -34 17.5t-31 -17t-12 -40.5t13.5 -40t33 -16.5t32.5 16t13 39.5t-15 41z" />
    <glyph glyph-name="OOMatra" unicode="&#xc4b;" horiz-adv-x="575" 
d="M383 413q-32 28 -32 70.5t10 60.5q-38 4 -67 -18.5t-29 -57.5q0 -13 -10 -23q-11 -9 -24 -9q-29 0 -35 28q-6 31 -44.5 51t-88.5 20t-83.5 -16t-33.5 -38.5t15 -39.5q17 -16 38 -16h29v-59h-34q-49 0 -84 32.5t-35 80t54 81.5t130 34q108 0 170 -60q29 34 69 51.5
t83 14.5q22 75 53 122t59 47q15 0 26 -11q10 -12 10 -27q-67 -42 -90 -138q47 -19 76 -51t29 -67.5t-25.5 -63.5t-65.5 -28t-70 30zM485 464q0 17 -16 38t-44 38q-29 -64 4 -100q14 -14 27 -14q29 0 29 38z" />
    <glyph glyph-name="AuMatra" unicode="&#xc4c;" horiz-adv-x="587" 
d="M394 504q-11 -11 -11 -26t13 -28q15 -11 36 -11t36 14.5t15 37.5t-26.5 41t-62.5 18l-268 -11q18 -6 28 -26q11 -19 11 -45q0 -43 -47 -72.5t-113 -29.5h-25v59h20q41 0 70 14.5t29 37t-38 40t-92 17.5l-96 -3q-15 0 -27 10q-11 12 -11 27t24.5 25.5t59.5 10.5l254 -3
l247 4q56 0 96 -28t40 -67q0 -54 -40.5 -92.5t-93.5 -38.5t-87 25t-34 60q0 20 17.5 34.5t37.5 14.5t38 -9z" />
    <glyph glyph-name="Halanth" unicode="&#xc4d;" horiz-adv-x="0" 
d="M385 723q-7 -10 -18 -10q-23 3 -79 18q-156 42 -241 42q-190 0 -190 -75q0 -42 127 -70q99 -24 99 -49q0 -33 -79.5 -64t-79.5 -61q0 -14 21 -21q19 -8 44 -8l46 1q8 0 16.5 -11.5t8.5 -20.5q0 -20 -20 -26q-12 -4 -50 -4t-85 16q-65 24 -65 69q0 32 48 65q29 20 89 46v6
q-68 8 -123 33q-80 36 -80 91q0 89 95 123q64 22 176.5 22t229.5 -27t117 -60q0 -15 -7 -25z" />
    <glyph glyph-name="uni0C55" unicode="&#xc55;" horiz-adv-x="331" 
d="M256 768q0 30 -25.5 43.5t-63 13.5t-66 -23t-28.5 -71t47 -102l-84 4q-36 51 -36 109.5t47.5 102t119.5 43.5t118 -34.5t46 -87.5q0 -42 -36 -42q-39 0 -39 44z" />
    <glyph glyph-name="tvam" unicode="&#xc56;" horiz-adv-x="50" 
d="M785 -241q49 0 49 -33q0 -18 -12 -22.5t-46 -4.5l-342 -15q-68 0 -115 29q-58 35 -58 102q0 51 32.5 79.5t85.5 28.5t79.5 -31t26.5 -62t-14 -56.5t-56 -37.5l315 24zM325 -176q0 -20 14.5 -34.5t34.5 -14.5t33.5 14.5t13.5 34.5t-13.5 33.5t-33.5 13.5t-34.5 -13.5
t-14.5 -33.5z" />
    <glyph glyph-name="CaNukta" unicode="&#xc58;" horiz-adv-x="800" 
d="M136 248q-106 -5 -106 42q0 10 10 23q11 12 20 12t23 -6q40 -18 100 -18l128 15q17 0 29.5 -6t9.5 -22q0 -24 -47 -37q-79 -21 -79 -86q0 -37 17.5 -61.5t33 -24.5t44.5 52q45 85 82 85q29 0 65 -60q53 -87 115 -87q47 0 84.5 23.5t37.5 70.5q0 85 -54 144t-169 59h-5
q-6 0 -11 2q-50 0 -86.5 23.5t-36.5 57.5q0 51 102 112q78 48 116 85q26 27 41 83q10 39 53 39q18 -2 28 -14.5t10 -31.5q0 -34 -46 -92q-20 -25 -115.5 -90t-95.5 -89q0 -10 11 -17.5t26 -7.5h17q7 0 14 -2q147 -7 216 -90q53 -65 53 -170q9 -65 -47 -115.5t-159.5 -50.5
t-166.5 128q-22 -15 -49.5 -74t-57.5 -59q-56 0 -96 56.5t-40 108.5q0 32 13 58q8 20 22 32h-54zM443 720q-69 19 -69 98q0 27 23 53q29 35 82 35t86 -28t33 -79q0 -68 -59 -103q-47 -28 -115 -28l-370 15q-32 0 -44 4t-12 22.5t15 25.5q13 8 33 8l55 1zM533 808
q0 20 -14.5 33.5t-34.5 13.5t-33.5 -13.5t-13.5 -33.5t13.5 -34.5t33.5 -14.5t34.5 14.5t14.5 34.5z" />
    <glyph glyph-name="JaNukta" unicode="&#xc59;" horiz-adv-x="713" 
d="M238 435q56 0 56 -34q0 -43 35 -71q36 -26 85 -26q97 0 97 51q0 28 -15 50.5t-53 52.5q-30 18 -43 35q3 20 14.5 33.5t26.5 13.5q63 -42 101 -89.5t38 -90t-44 -76.5q-42 -35 -101.5 -35t-97 15t-66.5 50q-32 -89 -32 -173q0 -70 12 -70q18 18 39 55.5t36 53t30 15.5
t21 -5.5t14 -23.5q27 -53 62.5 -83t74 -30t67.5 24t29 53q0 52 -48 80q-11 8 -15 11q-3 4 -3 13.5t16 22.5t36 13q34 0 59 -37q24 -38 24 -96.5t-52 -103.5q-51 -47 -116.5 -47t-115.5 34q-49 34 -71 90q-24 -52 -53 -83.5t-54 -31.5q-27 3 -45 36q-16 34 -16 87
q0 92 54 240q1 2 1 7t-4 9q-2 4 -7 4q-31 0 -73 -33.5t-42 -58.5q0 -7 5 -10t22 -6.5t23.5 -11t6.5 -23t-15.5 -27.5t-43 -12t-47.5 21.5t-20 57.5q0 60 65 110t143 50zM443 670q-69 19 -69 98q0 27 23 53q29 35 82 35t86 -28t33 -79q0 -68 -59 -103q-47 -28 -115 -28
l-370 15q-32 0 -44 4t-12 22.5t15 25.5q13 8 33 8l55 1zM533 758q0 20 -14.5 33.5t-34.5 13.5t-33.5 -13.5t-13.5 -33.5t13.5 -34.5t33.5 -14.5t34.5 14.5t14.5 34.5z" />
    <glyph glyph-name="RRu" unicode="&#xc60;" horiz-adv-x="1475" 
d="M953 60q-45 -62 -137 -62q-40 0 -73.5 18t-53.5 50q-29 -37 -74.5 -57.5t-101 -20.5t-104.5 35q-50 33 -73 91q-23 -54 -52 -86t-54 -32q-25 3 -42.5 38t-17.5 88q0 100 54 236q1 2 1 7.5t-3.5 9.5t-13.5 4t-28 -9q-19 -7 -39 -24q-42 -34 -42 -60q0 -5 7.5 -10t19.5 -8
q28 -5 28 -32q0 -16 -15 -27t-40.5 -11t-47.5 22q-21 23 -21 55q0 66 60 113q61 46 146 46q24 0 41 -9.5t17 -23t-18 -66.5l-12 -37q-25 -78 -25 -157v-6q0 -65 10.5 -65t33.5 40l12 23q16 28 33.5 44.5t31.5 16.5q8 0 23 -29q34 -65 90 -96q28 -18 52 -18q55 0 94 35t39 85
q0 32 -28.5 67.5t-78.5 66.5l-35 23q-70 46 -70 65q0 23 12.5 40.5t30.5 17.5q7 0 11 -6l133 -110q45 -40 69 -85t24 -86l-2 -10q2 -5 2 -19q0 -31 27 -53.5t67.5 -22.5t70 24.5t29.5 59.5q0 51 -13 79.5t-23.5 49.5t-10.5 30t8 17.5t20 8.5q30 0 52 -46t22 -111
q0 -48 40.5 -82t90 -34t79.5 16q29 17 29 40q0 49 -100 112q-48 30 -74.5 60.5t-26.5 54.5q0 42 57 73q59 30 150 30t164 -45q71 -46 71 -110q0 -38 -29.5 -66.5t-70 -28.5t-66.5 25q-28 24 -28 59q0 15 12 25t26.5 10t21.5 -9q9 -8 8.5 -15t0 -14.5t0.5 -15t8 -13.5
q7 -8 22 -8t29 13t14 32q0 48 -59 80q-60 34 -144 34q-49 0 -84 -17.5t-35 -42.5q0 -13 19 -30.5t67.5 -48.5t82.5 -71q33 -41 33 -81t-51 -72.5t-123 -32.5q-111 0 -156 62z" />
    <glyph glyph-name="LLu" unicode="&#xc61;" horiz-adv-x="1218" 
d="M973 373q-110 0 -110 -104q0 -51 40.5 -143t40.5 -157q0 -96 -89 -148.5t-209 -52.5t-196 46q-80 50 -80 126q0 48 39.5 101t109.5 100q47 33 75 84q27 53 27 113.5t-41.5 100.5t-91.5 40t-82 -35t-32 -86q0 -23 -12.5 -36.5t-32 -13.5t-31.5 7.5t-12 19.5q-5 45 -30 77
t-62.5 32t-66 -22.5t-28.5 -57t45 -53.5q19 -8 19 -13q0 -35 -45 -35q-33 0 -60.5 23.5t-27.5 66.5q0 70 50.5 111.5t120.5 41.5q47 0 77.5 -27.5t39.5 -63.5q5 50 52 89q53 41 128 41t133.5 -60.5t58.5 -141.5q0 -63 -36 -128.5t-103 -120.5q-112 -95 -112 -155
q1 -44 63 -74.5t145 -30.5t155.5 38t72.5 96t-40.5 148t-40.5 150q0 87 57 132q49 36 129 36t149 -50t69 -114q0 -45 -36.5 -78t-81 -33t-75 17t-30.5 53q0 21 11.5 36.5t31.5 15.5q25 0 31 -31q9 -36 44 -36q15 0 25.5 13.5t10.5 30.5q0 51 -48 83t-108 32z" />
    <glyph glyph-name="uni0C62" unicode="&#xc62;" horiz-adv-x="0" 
d="M-292 -55q0 28 32 28q11 0 15 -3q3 -4 3 -17q0 -30 63 -79l25 -20q92 -74 92 -168q0 -25 -20 -64t-57 -69q-94 -65 -224 -65q-77 0 -132 28t-63 58q-5 17 -5 26q0 29 30 63.5t74 59.5q84 48 84 132q0 41 -32 68t-67.5 27t-59.5 -23.5t-24 -56.5q0 -15 -9 -24
q-10 -8 -23 -8q-32 0 -32 16q-3 31 -22 51.5t-46 20.5t-48.5 -14t-21.5 -37.5t36 -35.5q11 -4 11 -6q0 -12 -9.5 -18.5t-28 -6.5t-40.5 16t-22 42q0 47 40 75q36 27 79.5 27t66 -18.5t28.5 -43.5q2 34 39 59.5t93.5 25.5t99 -39t42.5 -86q0 -94 -104 -162q-39 -26 -60 -54
q-23 -27 -23 -54t47 -48q45 -22 107 -22q91 0 168 47.5t77 110.5q0 81 -110 174q-69 56 -69 87z" />
    <glyph glyph-name="uni0C63" unicode="&#xc63;" horiz-adv-x="0" 
d="M-227 -119q-80 0 -80 -68q0 -34 30 -94.5t30 -104.5q0 -60 -65.5 -93t-153.5 -33t-140 28q-57 30 -61 67q-2 11 -2 17q0 30 30 64q28 34 71 59q84 48 84 132q0 41 -32 68t-67.5 27t-59.5 -23.5t-24 -56.5q0 -15 -9 -24q-10 -8 -24 -8t-22 5q-9 3 -9 11q-3 31 -22 51.5
t-46 20.5t-48.5 -14t-21.5 -37.5t36 -35.5q11 -4 11 -6q0 -12 -9.5 -18.5t-28 -6.5t-40.5 16t-22 42q0 47 40 75q36 27 79.5 27t66 -18.5t28.5 -43.5q2 34 39 59.5t93.5 25.5t99 -39t42.5 -87.5t-27.5 -91t-71 -71t-64.5 -55.5t-21 -48q1 -30 45.5 -49.5t106.5 -19.5t112 23
q55 23 55 62t-29.5 97t-29.5 98q0 58 42 85q35 24 94 24t109.5 -32t50.5 -73q0 -29 -27 -51.5t-59.5 -22.5t-55 11.5t-22.5 30t9.5 29t23.5 10.5q19 0 22 -20q7 -23 33 -23q11 0 19 8t8 19q0 34 -37 55q-34 21 -79 21z" />
    <glyph glyph-name="Telugu0" unicode="&#xc66;" horiz-adv-x="553" 
d="M436 61q-61 -67 -161 -67t-159.5 67t-59.5 180.5t59.5 183.5t159.5 70t161 -70t61 -183.5t-61 -180.5zM375 89q35 56 35 152.5t-38 154.5q-37 60 -99 60t-99 -60q-38 -58 -38 -154.5t39.5 -152.5t101.5 -56t98 56z" />
    <glyph glyph-name="Telugu1" unicode="&#xc67;" horiz-adv-x="553" 
d="M91 64q-45 64 -45 175.5t61 184.5q62 71 167 71t169 -74.5t64 -186t-45 -173.5q-46 -61 -121 -61q-19 0 -19 19.5t19 19.5q39 0 61 52q24 54 24 146t-41 149.5t-109.5 57.5t-109.5 -62t-41 -154t23.5 -140.5t63.5 -48.5q19 0 19 -19.5t-19 -19.5q-75 0 -121 64z" />
    <glyph glyph-name="Telugu2" unicode="&#xc68;" horiz-adv-x="552" 
d="M68 88q0 8 5 13q4 7 10 7t12 -7t8.5 -19.5t13.5 -22t26 -9.5h155q53 0 84 39t31 104v126q0 54 -30 92.5t-72 38.5h-70l-20 -6q16 -6 25.5 -20.5t9.5 -33.5v-40q0 -24 -26.5 -40.5t-62.5 -16.5t-63 20q-26 20 -26 48v45q0 38 36.5 60.5t97.5 22.5h112q73 0 116 -51.5
t43 -136.5v-115q0 -85 -40 -135.5t-106 -50.5h-269v88zM181 333q5 6 5 13v65q0 9 -5 17q-7 6 -15 6t-13.5 -5.5t-5.5 -14.5v-71q0 -7 6 -10q5 -5 13 -5t15 5z" />
    <glyph glyph-name="Telugu3" unicode="&#xc69;" horiz-adv-x="553" 
d="M71 381q0 114 205.5 114t205.5 -145q0 -35 -18.5 -64.5t-49.5 -44.5q28 -12 45.5 -42t17.5 -66q0 -63 -55 -101t-146.5 -38t-148.5 35q-56 35 -56 94q0 12 11 20q12 8 28.5 8t29 -11t12.5 -27q0 -34 36.5 -57t87.5 -23t87 29t36 70t-27 64.5t-71 23.5h-62q-10 0 -17 6.5
t-7 15t7 15t17 6.5h67q39 0 65 26q28 25 28 68t-32.5 71t-86 28t-88.5 -21.5t-35 -53.5q0 -16 -13.5 -28t-31.5 -12t-30 12q-11 12 -11 28z" />
    <glyph glyph-name="Telugu4" unicode="&#xc6a;" horiz-adv-x="553" 
d="M276 -6q-97 0 -155 38t-58 101q0 33 21 63q22 29 57 45q-35 18 -57 48q-21 30 -21 64q0 65 39.5 103.5t104.5 38.5q21 0 21 -22t-24.5 -22t-40.5 -26t-16 -68.5t35 -68t93 -25.5t93 25.5t35 68t-15.5 68.5t-41.5 26q-18 0 -17 20q3 19 20 19q64 0 102 -36t38 -98
q0 -35 -21 -66t-57 -49q35 -12 56.5 -41t21.5 -62q0 -65 -58 -104.5t-155 -39.5zM179 198q-32 -24 -32 -66t35 -67.5t93 -25.5t93 25.5t35 67.5t-35 65t-95.5 23t-93.5 -22z" />
    <glyph glyph-name="Telugu5" unicode="&#xc6b;" horiz-adv-x="553" 
d="M330 284q-24 37 -24 102q0 43 27.5 73t66.5 30h39q31 0 52 -19q23 -17 23 -44.5t-30 -66t-84 -76.5q0 -23 45 -68q30 -25 47 -58.5t17 -69.5t-19 -61.5t-45 -25.5h-129v39q0 7 6 13t14 6q14 0 14 -19h36q19 0 32 18.5t13 42.5t-10 46q-8 23 -27 44q-19 16 -44 59
l-262 -243q-19 -15 -38 0q-7 8 -7 16q0 12 8 23l77 74q58 52 58 121v171q0 17 -10 28t-24 11t-24 -10.5t-10 -25.5v-20q0 -18 -11.5 -31t-27.5 -13t-28 16q-11 17 -11 45.5t22.5 53t55.5 24.5h60q32 0 55 -22.5t23 -55.5v-122q0 -57 -18 -89zM386 338q65 53 65 82
q0 15 -5.5 25t-20.5 10t-29.5 -18t-14.5 -52t5 -47z" />
    <glyph glyph-name="Telugu6" unicode="&#xc6c;" horiz-adv-x="553" 
d="M225 495q164 0 164 -100q0 -14 -11.5 -24t-28 -10t-30.5 8q-13 9 -13 20q0 27 -22 47q-23 20 -64 20t-70 -27q-27 -28 -27 -71t26 -68t64 -25h63q10 0 17.5 -5.5t7.5 -14.5t-7.5 -15t-17.5 -6h-58q-43 0 -69 -24t-26 -61.5t35 -62.5t83 -25h192q16 0 28 9t15 22
q5 26 19 26q6 0 10 -6t4 -14v-88h-263q-90 0 -143.5 37.5t-53.5 100.5q0 36 16 65.5t44 41.5q-29 14 -46.5 42.5t-17.5 63.5q0 144 180 144z" />
    <glyph glyph-name="Telugu7" unicode="&#xc6d;" horiz-adv-x="552" 
d="M122 35q-62 41 -62 95t55.5 91.5t136.5 43.5q68 0 115.5 23t47.5 56q0 46 -41 80q-43 32 -97.5 32t-93.5 -25t-54 -65q0 -17 -13 -30q-14 -12 -29 -12t-22 14q-9 15 -9 35q0 51 64 86q62 36 151 36t151.5 -45.5t62.5 -110.5q0 -49 -55 -82.5t-125 -33.5t-124 -28
q-52 -29 -52 -65t42.5 -66.5t95 -30.5t92.5 21q38 21 51 56q6 18 19 28q11 11 26.5 11t28.5 -11q12 -13 12 -29q0 -48 -65.5 -81.5t-155.5 -33.5t-153 41z" />
    <glyph glyph-name="Telugu8" unicode="&#xc6e;" horiz-adv-x="553" 
d="M369 446q57 -92 57 -207.5t-54 -180t-138 -64.5t-139 69.5t-55 176t37.5 176.5t100.5 70q21 0 21 -21.5t-21 -21.5q-27 0 -45.5 -60t-18.5 -146t35 -146.5t83.5 -60.5t83 59t34.5 144t-17.5 145.5t-44.5 67.5q-22 3 -22 23.5t22 20.5h167q17 0 24 25q2 14 20 14
q6 0 10.5 -7t4.5 -16v-60h-145z" />
    <glyph glyph-name="Telugu9" unicode="&#xc6f;" horiz-adv-x="553" 
d="M235 -6q-204 0 -204 142q0 35 23 64.5t61 43.5q-35 12 -56.5 41.5t-21.5 65.5q0 63 44.5 100.5t118.5 37.5h322v-88q0 -8 -5 -14t-11 -6q-12 0 -17 19q-8 39 -40 39h-239q-41 0 -70 -24t-29 -62t26 -64q27 -25 69 -25h59q10 0 16 -6q8 -5 8 -14t-8 -14q-6 -6 -16 -6h-65
q-36 0 -62.5 -25.5t-26.5 -68t30.5 -70t82.5 -27.5t86 21.5t34 51.5q0 17 12 29q14 11 31.5 11t29.5 -11.5t12 -28.5q0 -56 -49 -83q-49 -29 -145 -29z" />
    <glyph glyph-name="uni0C78" unicode="&#xc78;" horiz-adv-x="593" 
d="M399 82q-44 -22 -105.5 -22t-111 19t-84.5 57q-81 86 -81 208q0 107 71 184q34 37 84.5 59.5t111 22.5t109 -21.5t84 -56.5t56.5 -84.5t21 -109.5q0 -117 -74 -200q-9 -11 -21 -18l17 -8q17 -12 34 -26q36 -31 36 -72.5t-31.5 -75.5t-97.5 -74t-118 -62l-45 -20
q-8 -3 -17.5 -3t-19.5 10.5t-10 22t6.5 20t15.5 10.5l26 13q48 19 117 56q56 34 77 54t21 41q0 34 -38 58q-17 10 -33 18zM101.5 441q-17.5 -36 -17.5 -83t18.5 -84.5t48.5 -60.5q56 -43 135 -43q35 0 72.5 13t65 38t46 62t18.5 77t-16.5 75t-44 61.5t-65.5 41.5t-75 15
t-72.5 -13.5t-65.5 -38t-47.5 -60.5z" />
    <glyph glyph-name="uni0C79" unicode="&#xc79;" horiz-adv-x="121" 
d="M81 605l2 -12v-592q-9 -17 -37.5 -17t-28.5 22v592q0 14 10.5 20t28 6t25.5 -19z" />
    <glyph glyph-name="uni0C7A" unicode="&#xc7a;" horiz-adv-x="385" 
d="M177 333q66 0 98 21v282q0 30 34 30q31 0 35 -23l1 -13v-616l-1 -12q-4 -21 -35 -21q-12 0 -22.5 5t-11 11.5t-0.5 10.5v276q-36 -18 -81.5 -18t-73.5 9t-50 27q-53 43 -53 119v215q0 17 11.5 23.5t23.5 6.5t22.5 -6t11.5 -17l1 -13v-211q0 -86 90 -86z" />
    <glyph glyph-name="uni0C7B" unicode="&#xc7b;" horiz-adv-x="633" 
d="M559 655q30 0 34 -22v-631q-6 -21 -34 -21q-12 0 -22.5 5t-11 11.5t-0.5 10.5v271q-4 -2 -29 -8q-37 -9 -67 -9q-60 0 -109 37q-9 6 -13 13q-5 -3 -13 -10q-46 -40 -119 -40q-61 0 -105 34q-22 17 -37.5 48t-15.5 71v218q2 23 34.5 23t34.5 -23v-221q0 -84 89 -84
q51 0 74 20.5t23 61.5v223q1 11 11.5 16.5t22.5 5.5q30 0 34 -22v-221q0 -84 88 -84q59 0 97 20v285q1 11 11.5 16.5t22.5 5.5z" />
    <glyph glyph-name="uni0C7C" unicode="&#xc7c;" horiz-adv-x="750" 
d="M712 413q0 -24 -19 -32h-7q-4 0 -10 -1h-475t-165 1q-19 8 -19 35.5t19 33.5q7 2 9 2h639q28 0 28 -39z" />
    <glyph glyph-name="uni0C7D" unicode="&#xc7d;" horiz-adv-x="887" 
d="M57 535q-40 0 -40 38q0 28 21 36q6 1 12 1h292q94 0 145 -41t51 -113q0 -64 -52 -110q-57 -51 -191 -84q-89 -18 -147 -48q-31 -16 -31 -43t36 -50t107 -23h548q7 0 23.5 -8.5t16 -37t-14.5 -38t-19 -9.5h-512q-212 0 -261 93q-17 32 -17 69t9.5 59.5t34.5 42t70.5 37
t114.5 34t107 30.5q68 27 82 59q6 12 6 29q0 34 -26 55.5t-80 21.5h-285z" />
    <glyph glyph-name="uni0C7E" unicode="&#xc7e;" horiz-adv-x="707" 
d="M658 15h-437q-92 0 -123 9t-44 20q-31 26 -31 65.5t25.5 62t71.5 26.5t68.5 7.5t35.5 6.5q24 7 24 22t-20 18.5t-64.5 3.5t-75.5 5.5t-51 14.5q-37 17 -37 58q0 36 26 54q26 17 83 23q74 11 90 17q28 12 28 28q0 23 -53 24q-15 1 -32 1h-138v50h138q78 0 103.5 -13.5
t35 -28t9.5 -35t-6.5 -34t-21.5 -24.5q-27 -19 -79 -26t-73 -10t-32 -6q-19 -5 -19 -18q0 -11 15 -15q30 -8 90 -8q112 0 138 -39q10 -15 10 -37t-7.5 -37.5t-26.5 -25.5q-41 -21 -138 -30q-15 -3 -26 -4.5t-17 -3.5q-12 -6 -12 -14q0 -12 21 -16q44 -7 114 -7h438v-84z" />
    <glyph glyph-name="uni0C7F" unicode="&#xc7f;" horiz-adv-x="672" 
d="M621 217q-41 -79 -99 -124.5t-110.5 -63t-114 -17.5t-116.5 18t-95 52q-86 73 -86 191q0 71 38 116q38 46 104 46q71 0 90 -59q6 -19 6 -41t-8.5 -39t-21.5 -27q-29 -21 -51 -21t-37.5 5.5t-27.5 17.5q-24 26 -24 65q0 12 5 33q-21 -27 -25 -38q-8 -23 -8 -63t20.5 -72.5
t55.5 -54.5q65 -42 184 -42q100 0 168 37q61 34 113 113zM102 344q0 -54 49 -54q23 0 35 14t12 29.5t-3 24.5t-9 17q-13 20 -32 20t-27 -6.5t-14 -14.5q-11 -13 -11 -30z" />
    <glyph glyph-name="KshNnaAI" unicode="&#x200c;" horiz-adv-x="238" 
d="M177 -11v679h61v-679h-61z" />
    <glyph glyph-name="afii301" unicode="&#x200d;" horiz-adv-x="748" 
d="M689 398l59 49l-241 214l230 227l-52 54l-231 -225l-227 216l-58 -52l226 -215l-233 -209l49 -60l204 179v-587h73v587z" />
    <glyph glyph-name="uni2018" unicode="&#x2018;" horiz-adv-x="208" 
d="M100 390q-19 0 -32.5 14t-13.5 33v48q0 43 21 77q16 25 47 43q4 4 14 4t16.5 -7.5t6.5 -19t-13 -18.5q-18 -10 -29.5 -26.5t-11.5 -50.5h3q19 0 32.5 -13.5t13.5 -31.5v-5q0 -19 -13.5 -33t-32.5 -14h-8z" />
    <glyph glyph-name="uni2019" unicode="&#x2019;" horiz-adv-x="194" 
d="M143.5 595.5q13.5 -13.5 13.5 -33.5v-48q0 -43 -23 -76q-15 -25 -44 -43q-4 -4 -14.5 -4.5t-17 7.5t-6.5 19.5t12 18.5q18 10 30 26t12 50h-4q-19 0 -32 13.5t-13 32.5v4q0 19 13 33t32 14h8q20 0 33.5 -13.5z" />
    <glyph glyph-name="uni201C" unicode="&#x201c;" horiz-adv-x="357" 
d="M248 390q-19 0 -32.5 14t-13.5 33v48q0 43 23 77q15 25 45 43q4 4 14 4t16.5 -7.5t6.5 -19t-12 -18.5q-18 -10 -30 -26.5t-12 -50.5h4q19 0 32 -13.5t13 -31.5v-5q0 -19 -13.5 -33t-31.5 -14h-9zM100 390q-19 0 -32.5 14t-13.5 33v48q0 43 21 77q16 25 47 43q4 4 14 4
t16.5 -7.5t6.5 -19t-13 -18.5q-18 -10 -29.5 -26.5t-11.5 -50.5h3q19 0 32.5 -13.5t13.5 -31.5v-5q0 -19 -13.5 -33t-32.5 -14h-8z" />
    <glyph glyph-name="uni201D" unicode="&#x201d;" horiz-adv-x="344" 
d="M110 609q19 0 33 -13.5t14 -33.5v-48q0 -43 -23 -76q-15 -25 -44 -43q-4 -4 -14.5 -4.5t-17 7.5t-6.5 19.5t12 18.5q18 10 30 26t12 50h-4q-19 0 -32 13.5t-13 32.5v4q0 19 13 33t32 14h8zM259 609q19 0 32.5 -13.5t13.5 -33.5v-48q0 -43 -22 -76q-16 -25 -45 -43
q-4 -4 -14.5 -4.5t-17 7.5t-6.5 19.5t12 18.5q18 10 30 26t12 50h-4q-19 0 -32 13.5t-13 32.5v4q0 19 13.5 33t31.5 14h9z" />
    <glyph glyph-name="uni2022" unicode="&#x2022;" horiz-adv-x="527" 
d="M312 288l160 -63q22 -12 22 -32q0 -44 -34 -56q-22 -8 -41 6q-4 4 -44 36t-87 69q10 -61 16 -95l8 -53q2 -16 2 -19v-14t-16 -25t-34 -14t-33 14t-15 26v14q0 8 8 56.5t18 109.5q-137 -109 -145.5 -113t-26.5 2q-36 12 -36 44t24 44q2 0 5 1t17.5 7.5t47.5 19.5t90 35
l-160 64q-22 13 -24 33q0 44 36 56q18 6 35 -6q2 0 45 -35t92 -72q-26 162 -26 166v4q0 20 16 34t32 14q18 0 34 -13t16 -25t-1 -15t-1 -19l-8 -51q-4 -36 -16 -95q137 109 135 107q17 12 37 6q36 -12 35 -44t-23 -45q-2 0 -5 -2t-18.5 -8t-46.5 -19t-90 -35z" />
    <glyph glyph-name="uni20B9" unicode="&#x20b9;" horiz-adv-x="696" 
d="M625 429q32 0 32 -16q0 -9 -9 -15.5t-23 -6.5h-141q0 -77 -60 -132q-57 -55 -141 -55l205 -135q35 -23 35 -39t-13.5 -25t-30.5 -3l-379 257l-10 9q-10 9 -10 12q0 13 11 22q12 9 22 9t21 -7q71 -43 133 -43t107 38q44 38 44 92h-327q-17 0 -29 6.5t-12 15.5q0 16 41 16
h327q-20 69 -109 124h-226q-12 0 -21 6t-9 15t9 16t21 7h551q23 0 23 -23q0 -9 -6.5 -15t-16.5 -6h-232q61 -48 82 -124h141z" />
    <glyph glyph-name="trademark" unicode="&#x2122;" horiz-adv-x="847" 
d="M9 657h289l8 -80h-13q-4 28 -21 41.5t-56 13.5h-30v-229q0 -33 7.5 -42t34.5 -11v-14h-149v14q26 3 33.5 11.5t7.5 41.5v229h-31q-38 0 -53.5 -12t-22.5 -43h-13zM448 657l109 -227l105 227h111v-15q-23 0 -30.5 -4t-10.5 -13t-3 -37v-185q0 -34 7 -42.5t37 -10.5v-14
h-159v14q23 0 31.5 4.5t12.5 13t4 34.5v195l-122 -261h-14l-122 258v-191q0 -28 4 -36q7 -17 33 -17h14v-14h-121v14q22 0 29.5 4t11 12.5t3.5 36.5v184q0 31 -3 39q-6 16 -41 16v15h114z" />
    <glyph glyph-name="arrowleft" unicode="&#x2190;" horiz-adv-x="659" 
d="M174 276q50 -67 50 -131q-79 108 -200 152q120 44 200 151q0 -38 -15 -74t-34 -57h450v-41h-451z" />
    <glyph glyph-name="arrowup" unicode="&#x2191;" horiz-adv-x="364" 
d="M157 447q-67 -50 -131 -50q107 80 151 200q44 -121 152 -200q-38 0 -74 15t-57 34v-450h-41v451z" />
    <glyph glyph-name="arrowright" unicode="&#x2192;" horiz-adv-x="660" 
d="M476 317q-50 70 -50 131q80 -107 201 -151q-122 -45 -201 -152q0 38 15.5 74t33.5 57h-449v41h450z" />
    <glyph glyph-name="arrowdown" unicode="&#x2193;" horiz-adv-x="366" 
d="M29 197q63 0 131 -51v451h41v-449q21 18 57 33.5t74 15.5q-108 -82 -152 -201q-43 118 -151 201z" />
    <glyph glyph-name="Ksha" horiz-adv-x="663" 
d="M638 -371q0 -24 -46 -24q-25 0 -32.5 21.5t-7.5 68t21 121.5q-16 -17 -49.5 -31.5t-61.5 -14.5q-77 0 -127 74q-20 30 -33 30q-9 0 -32 -41q-62 -114 -128 -114t-110.5 54.5t-44.5 121t10 93.5t36 27q14 0 24.5 -7t8.5 -19q0 -18 -5 -42t-5 -56.5t23 -64.5t60.5 -32
t75.5 71q43 85 95 85q31 0 58 -46q39 -65 103 -65q44 0 76.5 34.5t32.5 84.5t-13 82q-11 37 -11 51t11 24t25 10q56 0 56 -119l-25 -290q0 -27 7.5 -52t7.5 -35zM186 175q-101 0 -101 69.5t101 128.5q-21 5 -39 17q-37 24 -37 58q0 51 101 112q79 48 111 79.5t47 88.5
q9 38 52 38q19 -1 29 -15q10 -11 10 -31q0 -30 -46 -91q-20 -25 -116 -90t-96 -89q0 -10 11.5 -17.5t26.5 -7.5h16q16 0 28 -8q61 19 122 19q20 0 35.5 -13.5t15.5 -26.5t-11.5 -22t-18.5 -9q-112 0 -192.5 -36t-80.5 -79q0 -19 55 -19l150 10q85 0 127 -26q36 -24 36 -64
q0 -75 -96 -122q-84 -41 -189 -41q-73 0 -103 7q-48 10 -48 43t38 33q8 0 57 -10t98.5 -10t100.5 25q59 28 59 67q0 43 -113 43z" />
    <glyph glyph-name="Kaottu" horiz-adv-x="378" 
d="M211 -103q113 -34 113 -104q0 -58 -60.5 -90.5t-169.5 -32.5q-79 0 -136 46t-57 109q0 45 19 74q21 29 80 72l27 20q72 52 98.5 83t26.5 60t-18 47q-20 17 -55 28.5t-45 18t-10 21.5t11 27q12 12 29 12q78 -19 115.5 -56.5t37.5 -97.5q0 -39 -30 -76q-29 -39 -98 -88
l-20 -14q-57 -44 -75 -71q-20 -26 -20 -65t37 -67q38 -27 102 -27t103 17q38 19 38 51.5t-36 53.5t-95 21q-10 0 -15 8q-3 8 -3 27.5t18 26.5t64 7h110q13 0 38 8l35 6q10 0 17 -7.5t7 -16.5t-5.5 -17t-24.5 -15t-53 -7z" />
    <glyph glyph-name="KhaOttu" horiz-adv-x="30" 
d="M352 -67q0 33 38 33q50 0 101 -42q66 -55 66 -145q0 -60 -40 -99t-98.5 -39t-111.5 32h2q-8 2 -22 11q-44 -46 -128 -46q-29 0 -57 15q-32 20 -32 52.5t27.5 56t80.5 23.5t102 -29q10 24 10 57t-22.5 61.5t-65.5 33.5q10 -13 10 -40.5t-26 -47.5q-25 -17 -55.5 -17
t-50.5 17q-19 19 -19 45q0 41 35 65.5t95 24.5t108 -39.5t48 -105.5q0 -46 -21 -82q40 -27 85 -27q39 0 64 23.5t25 56.5q0 74 -89 119q-9 5 -34 10t-25 23zM107 -132q0 -25 24 -25q15 0 26.5 8t11.5 20.5t-8 19.5q-7 9 -21 9t-23.5 -8.5t-9.5 -23.5zM251 -281
q-26 26 -76 26q-14 0 -28 -9q-12 -10 -12 -20q0 -25 31 -25q61 0 85 28zM291 -339q21 0 21 -17l-1 -55l1 -35q0 -25 -7 -38q-11 -16 -32.5 -16t-21.5 11v64q0 86 40 86z" />
    <glyph glyph-name="GaOttu" horiz-adv-x="30" 
d="M148 -290q2 -46 -30 -46q-13 0 -20 13q-9 12 -9 35q0 120 59.5 186t136.5 66t150 -75.5t73 -184.5q0 -17 -9 -29t-21.5 -12t-20.5 5t-8 11l3 28q0 67 -56 137.5t-113.5 70.5t-96 -60t-38.5 -145z" />
    <glyph glyph-name="GhaOttu" horiz-adv-x="30" 
d="M516 -291q-49 -64 -124 -64q-41 0 -68 11t-50 50q-14 -35 -48 -51q-27 -14 -62.5 -14t-62.5 20t-27 60.5t32.5 76t91.5 35.5t97.5 -66.5t83 -66.5t78 23t33.5 66q0 62 -66 100q-42 26 -42 50q0 11 12 20.5t26 9.5q27 0 77.5 -54t50.5 -112q6 -54 30.5 -78.5t64.5 -24.5
t68.5 24t28.5 67q0 79 -75 122q-35 20 -35 37q0 33 35 33q65 -33 102 -82.5t37 -101.5q0 -70 -45.5 -112.5t-114.5 -42.5q-45 0 -80.5 20.5t-47.5 44.5zM305 -528q0 -12 -14 -18t-27 -6t-17 12t-4 41v54q0 38 -4 55q0 23 8.5 31.5t23.5 8.5t23.5 -4.5t8.5 -17.5
q-5 -19 -5 -42.5t-1 -34.5q-4 -52 8 -79zM226 -263q0 25 -14.5 34t-31 9t-29.5 -11.5t-13 -28.5t13 -27.5t30.5 -10.5t29.5 10t15 25z" />
    <glyph glyph-name="NgaOttu" horiz-adv-x="30" 
d="M505 -130q0 -36 -75 -36l-154 11l-2 -9q-19 -62 -19 -102q0 -8 -3 -27t3.5 -19t24.5 30q36 62 64 62q14 0 30 -30q35 -75 92 -75q24 0 41 10q25 14 25 47t-35 53q-13 8 -13 16t15 21.5t32.5 13.5t41.5 -28t24 -74t-39 -83.5t-91 -37.5t-91 26.5t-51 56.5q-39 -77 -80 -77
q-24 2 -39 37q-11 29 -11 60q0 70 40 183v1q0 3 1 4h-2q-23 0 -51 -20.5t-28 -40.5q0 -10 16 -13q25 -5 25 -27q0 -13 -14.5 -23.5t-35 -10.5t-38 19.5t-17.5 45.5q0 45 53 85t106 40q19 0 32 -8q19 -8 19 -22.5t-4 -25.5l79 -5l-6 43q0 13 8.5 23.5t17 10.5t14.5 1
q14 2 15 -11q2 19 6 -6t4 -63q45 0 37 3q-2 0 0 0q9 0 21 -10.5t12 -18.5z" />
    <glyph glyph-name="CaOttu" horiz-adv-x="190" 
d="M110 16q68 -95 89 -141t21 -105.5t-55 -105t-135 -45.5q-36 0 -72.5 32t-64.5 92q-22 -16 -38.5 -53t-27 -48.5t-26.5 -11.5q-49 0 -84.5 40.5t-35.5 99.5q0 40 34 74h-51q-48 0 -67 8.5t-19 23t9.5 24.5t17 10t32 -6.5t71.5 -6.5l63 3l47 3q15 0 24 -6.5t9 -18.5t-9 -17
q-8 -8 -38 -15q-64 -15 -64 -69q0 -31 13.5 -53t33.5 -22q6 0 14 9q7 9 26 41q38 66 67 66q14 0 25.5 -11.5t34 -51t44.5 -59.5q23 -19 58 -19t64.5 28.5t29.5 66.5q0 73 -81 180l-37 51q-3 8 -3 17.5t10 14.5q7 7 23 7q29 0 48 -26z" />
    <glyph glyph-name="ChaOttu" horiz-adv-x="190" 
d="M-87 -516q-15 -21 -49 -21q-16 0 -16 14l2 43l2 87q0 22 13 37t30 15q19 -66 22 -86zM110 16q68 -95 89 -141t21 -105.5t-55 -105t-135 -45.5q-36 0 -72.5 32t-64.5 92q-22 -16 -38.5 -53t-27 -48.5t-26.5 -11.5q-49 0 -84.5 40.5t-35.5 99.5q0 40 34 74h-51
q-48 0 -67 8.5t-19 23t9.5 24.5t17 10t32 -6.5t71.5 -6.5l63 3l47 3q15 0 24 -6.5t9 -18.5t-9 -17q-8 -8 -38 -15q-64 -15 -64 -69q0 -31 13.5 -53t33.5 -22q6 0 14 9q7 9 26 41q38 66 67 66q14 0 25.5 -11.5t34 -51t44.5 -59.5q23 -19 58 -19t64.5 28.5t29.5 66.5
q0 73 -81 180l-37 51q-3 8 -3 17.5t10 14.5q7 7 23 7q29 0 48 -26z" />
    <glyph glyph-name="JaOttu" horiz-adv-x="30" 
d="M376 -195q-77 0 -109 40q-33 -92 -33 -115q0 -45 8 -45q18 40 43 64t50 24q22 -47 55 -74q31 -28 61.5 -28t52.5 19q21 19 21 40t-21.5 44.5t-21.5 37.5t9 24q10 9 23 9q31 0 53 -31t22 -80t-42 -86.5t-94 -37.5t-88 23q-36 21 -53 58q-15 -33 -37 -55q-23 -20 -44 -20
q-24 3 -40 33t-16 71q0 75 40 185v6q0 4 -24.5 4t-43 -22t-18.5 -53q0 -12 21 -25.5t21 -24t-10 -17.5t-30.5 -7t-39.5 22q-20 20 -20 50q0 53 48 92t117 39q24 0 41 -11.5t17 -26.5q0 -30 24 -51t52.5 -21t44.5 11t16 28q0 4 -15 12q-25 13 -25 25.5t14 19.5q12 9 34 9
t39.5 -19t17.5 -51.5t-35 -60.5t-85 -28z" />
    <glyph glyph-name="JhaOttu" horiz-adv-x="30" 
d="M736 -46q0 29 31 29q11 0 26 -8l49 -39l33 -28q40 -32 63 -68l23 -36q0 -94 -45 -131.5t-121 -37.5q-37 0 -69 16q-29 17 -42 41q-45 -57 -138 -57q-41 0 -74 19q-33 21 -46 50q-57 -67 -173 -67q-77 0 -131 39.5t-54 98.5t34.5 105.5t90.5 62.5h25q117 -4 181.5 -43.5
t64.5 -107.5q0 -49 23 -75q25 -24 68 -24t70.5 21.5t27.5 53.5q0 65 -113 136q-31 18 -41 29q-12 9 -12 23q0 27 31 27q107 -67 147 -109t46.5 -92t30 -69.5t65 -19.5t69.5 21.5t28 53.5q0 66 -112 136q-33 19 -44.5 29.5t-11.5 20.5zM198 -109q-70 -51 -70 -114
q0 -41 35 -64.5t100 -23.5t105.5 26.5t40.5 71.5t-52 74.5t-138 29.5h-21zM714 -496q-2 -25 -30 -25q-11 0 -17 8q-8 6 -8 17v104q0 12 8 20t20 8t19 -8l8 -6v-118z" />
    <glyph glyph-name="NyaOttu" horiz-adv-x="30" 
d="M573 -331q-30 0 -30 57q0 25 3 37l-67 5q-10 -31 -26 -53q26 -28 46 -56.5t17 -53.5q4 -12 -8 -21.5t-22.5 -9.5t-14.5 3q-3 3 -5 8q-20 68 -53 96q-32 -30 -83.5 -46.5t-105.5 -16.5t-94 22.5t-40 58.5q0 51 61 78q47 19 110 19q93 0 158 -48q21 34 21 74.5t-25 69.5
q-25 25 -53.5 25t-48.5 -20q-18 -22 -18 -44.5t-9 -33t-23 -10.5q-24 0 -38 43.5t-48 43.5q-18 0 -32.5 -11t-14.5 -26t6 -26t6 -14q0 -26 -31 -26q-17 0 -26.5 15t-9.5 38q0 44 32.5 69.5t68.5 25.5t54.5 -14.5t24.5 -29.5q8 23 39 46t75.5 23t82.5 -39.5t38 -90.5
q0 -16 -1 -23q24 0 59 -5l7 61v6q0 12 5 21q9 12 18 12t16.5 -4t7.5 -10l-10 -86q73 0 95 -4t22 -25t-37 -21h-15l-68 3v-66q0 -11 -1 -16q-5 -10 -15 -10zM388 -286q-13 14 -52.5 28t-77.5 14t-71 -13q-40 -14 -40 -39q0 -19 29 -29q25 -10 62 -10t78 12.5t72 38.5v-2z" />
    <glyph glyph-name="TTaOttu" horiz-adv-x="58" 
d="M234 -84q15 -17 15 -41t-28.5 -50t-61 -26t-60.5 22q0 -36 28 -80.5t55 -44.5q16 0 51.5 57t54.5 57q30 0 59.5 -63.5t57.5 -63.5q32 0 56 24t24 63q0 61 -98 120q-44 25 -44 39t8.5 25.5t21 11.5t31 -18.5t54 -43t58 -51.5t22.5 -78t-38 -96.5t-101 -45.5q-54 0 -91 77
q-14 29 -21.5 29t-32.5 -36q-47 -69 -72 -69q-47 0 -90 54.5t-43 117.5t38 98q36 36 93 36q35 0 54 -24zM199 -125q0 23 -25.5 23t-38.5 -8q-12 -9 -12 -20.5t10 -19t24.5 -7.5t28 10.5t13.5 21.5z" />
    <glyph glyph-name="TTHaOttu" horiz-adv-x="30" 
d="M425 -321q-57 -50 -153 -50t-144 47.5t-48 115.5t55.5 120t144.5 52q65 0 119 -33q77 -49 77 -149q0 -60 -51 -103zM144 -211q0 -99 130 -99q50 0 87 19q53 26 53 82q0 44 -39 80t-94.5 36t-95.5 -32q-41 -35 -41 -86zM315 -189q0 -32 -17.5 -44.5t-36 -12.5t-30.5 13.5
t-12 35t13.5 35.5t33 14t34.5 -13t15 -28z" />
    <glyph glyph-name="DDaOttu" horiz-adv-x="30" 
d="M525 -317q-48 -45 -120 -45t-117 67q-14 20 -21 20t-17 -25q-23 -67 -74.5 -67t-76.5 35.5t-25 81.5q0 94 104 160q86 54 165 54q32 0 42 -8t10 -22q0 -24 -65.5 -24t-135 -48.5t-69.5 -107.5q0 -26 12 -45q12 -23 35 -23q18 0 41 47q27 58 57 58q18 0 42 -37
q42 -66 100 -66q42 0 72 25q31 23 31 56.5t-16 53.5q-12 13 -39 23q12 -21 12 -43t-24.5 -40.5t-52 -18.5t-47 18.5t-19.5 50.5t30 54.5t78 22.5t89.5 -29.5t41.5 -85t-43 -92.5zM383 -167q-9 -8 -9 -20t9 -20t20.5 -8t19.5 9q9 7 9 19t-9 20t-20 8t-20 -8z" />
    <glyph glyph-name="DDhaOttu" horiz-adv-x="29" 
d="M252 -347q14 13 34.5 13t20.5 -18l-3 -168q-7 -9 -23 -15.5t-31.5 -6.5t-15.5 15l3 137q0 26 15 43zM397 -65q0 -22 -65.5 -22t-135 -49t-69.5 -108q0 -26 12 -45q12 -22 35 -22q18 0 41 46q27 59 57 59q18 0 42 -38q42 -66 100 -66q42 0 72.5 24.5t30.5 57.5t-14 50
t-41 27q12 -21 12 -43t-24.5 -41t-52 -19t-47 19t-19.5 51t30 54.5t78 22.5t85 -27q46 -32 46 -96q0 -47 -43 -85q-48 -45 -120 -45t-117 68q-14 20 -21 20t-17 -25q-23 -68 -74.5 -68t-77.5 38q-24 33 -24 80q0 93 104 160q86 53 165 53q32 0 42 -8t10 -23zM385 -204
q9 -8 20.5 -8t20 8t8.5 20t-8.5 20t-20 8t-20.5 -8t-9 -20t9 -20z" />
    <glyph glyph-name="NNaOttu" horiz-adv-x="30" 
d="M158 -38q93 0 119 -54q6 21 30 38q28 18 65 18q77 0 122 -51t45 -126q0 -50 -35 -89q-41 -48 -106.5 -48t-101.5 32q-27 26 -27 60.5t27 57.5q28 26 68 26t58.5 -20.5t18.5 -46.5q0 -7 -9.5 -14t-20 -7t-22 21t-30.5 21t-29.5 -9.5t-10.5 -29t25 -31.5t48 -12q40 0 70 28
q27 28 27 70.5t-32 78.5q-33 34 -81 42q-55 0 -80 -54q-10 -24 -22 -24q-9 0 -26 22q-14 55 -77 55q-26 0 -43 -7q-20 -10 -20 -27q0 -23 62 -37t62 -42q0 -24 -47.5 -39.5t-47.5 -29.5q0 -21 54 -36q48 -16 48 -31q0 -10 -9 -17t-22 -7q-33 0 -89.5 26.5t-56.5 55.5
q0 25 27 46.5t69 26.5q0 5 -25 10q-83 21 -83 76q0 37 32.5 57.5t75.5 20.5z" />
    <glyph glyph-name="TaOttu" horiz-adv-x="40" 
d="M643 -220q-69 19 -69 98q0 27 23 53q29 35 82 35t86 -28t33 -79q0 -68 -59 -103q-47 -28 -115 -28l-410 15q-32 0 -44 4t-12 22.5t15 25.5q13 8 33 8l55 1zM733 -132q0 20 -14.5 33.5t-34.5 13.5t-33.5 -13.5t-13.5 -33.5t13.5 -34.5t33.5 -14.5t34.5 14.5t14.5 34.5z
" />
    <glyph glyph-name="ThaOttu" horiz-adv-x="30" 
d="M74 -219q0 86 67.5 134.5t172.5 48.5t176 -48q78 -51 78 -135q0 -47 -44.5 -89t-118.5 -42q-63 0 -110 79q-17 30 -26.5 30t-23.5 -42q-21 -68 -48 -68q-64 0 -98 55q-25 38 -25 77zM439 -114q-59 30 -135 30t-125 -37t-49 -89q0 -35 17.5 -58t35.5 -23q10 0 24 35
q30 71 68 71q29 0 54 -48q34 -67 91 -67q35 0 63.5 25.5t28.5 51.5q0 72 -73 109zM349 -175q-9 -5 -22 -5t-24 10.5t-11 25t11.5 25.5t27.5 11t27 -10.5t11 -29t-20 -27.5zM310 -450q0 -6 -9 -10.5t-22.5 -4.5t-21 10.5t-7.5 24.5v40l-1 40q0 14 9 22t21.5 8t20.5 -8
q10 -7 10 -16l-2 -69z" />
    <glyph glyph-name="DaOttu" horiz-adv-x="30" 
d="M74 -219q0 86 67.5 134.5t172.5 48.5t176 -48q78 -51 78 -135q0 -47 -44.5 -89t-118.5 -42q-63 0 -110 79q-17 30 -26.5 30t-23.5 -42q-21 -68 -48 -68q-64 0 -98 55q-25 38 -25 77zM439 -114q-59 30 -135 30t-125 -37t-49 -89q0 -35 17.5 -58t35.5 -23q10 0 24 35
q30 71 68 71q29 0 54 -48q34 -67 91 -67q35 0 63.5 25.5t28.5 51.5q0 72 -73 109z" />
    <glyph glyph-name="DhaOttu" horiz-adv-x="31" 
d="M74 -219q0 86 67.5 134.5t172.5 48.5t176 -48q78 -51 78 -135q0 -47 -44.5 -89t-118.5 -42q-63 0 -110 79q-17 30 -26.5 30t-23.5 -42q-21 -68 -48 -68q-64 0 -98 55q-25 38 -25 77zM439 -114q-59 30 -135 30t-125 -37t-49 -89q0 -35 17.5 -58t35.5 -23q10 0 24 35
q30 71 68 71q29 0 54 -48q34 -67 91 -67q35 0 63.5 25.5t28.5 51.5q0 72 -73 109zM310 -450q0 -6 -9 -10.5t-22.5 -4.5t-21 10.5t-7.5 24.5v40l-1 40q0 14 9 22t21.5 8t20.5 -8q10 -7 10 -16l-2 -69z" />
    <glyph glyph-name="NaOttu" horiz-adv-x="247" 
d="M201 78q0 -118 -47 -179q56 -28 91 -62t41 -67v-5q0 -17 -13 -30q-15 -12 -27 -12q-17 0 -25 6q-3 41 -35 74q-30 33 -75 46q-86 -111 -236 -111q-51 0 -88 26.5t-37 70.5t52.5 79t135.5 35t155 -29q46 64 46 159q0 34 -20 60.5t-42 30.5q-37 8 -37 36q0 15 11 27
q12 10 27 10q51 0 87 -48.5t36 -116.5zM48 -129q-48 22 -107.5 22t-91.5 -19q-34 -18 -34 -44q0 -15 17 -26t51.5 -11t80 20.5t84.5 57.5z" />
    <glyph glyph-name="PaOttu" horiz-adv-x="247" 
d="M53 281q41 0 41 -45.5t71.5 -170t71.5 -199.5t-50 -127q-45 -49 -94 -49t-79 12t-54 48q-41 -62 -98 -62q-40 0 -66.5 19t-26.5 58t33 77t85.5 38t92.5 -64q43 -65 95 -65q40 0 71.5 29.5t31.5 99.5q0 41 -53 140l-10 19q-5 10 -23 41q-74 129 -74 166q0 14 10 25
q11 10 25 10zM-81 -219q0 24 -12 34t-29.5 10t-32.5 -15t-15 -30t12 -22q10 -9 26.5 -9t34.5 12q16 13 16 20z" />
    <glyph glyph-name="PhaOttu" horiz-adv-x="247" 
d="M53 281q41 0 41 -45.5t71.5 -170t71.5 -199.5t-50 -127q-45 -49 -94 -49t-79 12t-54 48q-41 -62 -98 -62q-40 0 -66.5 19t-26.5 58t33 77t85.5 38t92.5 -64q43 -65 95 -65q40 0 71.5 29.5t31.5 99.5q0 41 -53 140l-10 19q-5 10 -23 41q-74 129 -74 166q0 14 10 25
q11 10 25 10zM-81 -219q0 24 -12 34t-29.5 10t-32.5 -15t-15 -30t12 -22q10 -9 26.5 -9t34.5 12q16 13 16 20zM-72 -387l-3 32q0 19 10 30q9 13 22 13t25 -10t12 -22.5t-3.5 -25t-3.5 -50.5l2 -55q0 -10 -9.5 -15.5t-20.5 -5.5q-31 0 -31 51v58z" />
    <glyph glyph-name="BaOttu" horiz-adv-x="231" 
d="M-125 -231q0 -44 9 -44t24 29q28 54 52 54q10 0 31 -29q48 -65 102 -65q37 0 65 24q27 25 27 61q0 65 -40.5 139.5t-115.5 146.5q0 12 9 22q8 12 18 12h12q3 0 5 -1q80 -66 123.5 -152t43.5 -173q0 -58 -47.5 -94.5t-97 -36.5t-87 25t-54.5 55q-30 -73 -83 -73
q-25 0 -35.5 27t-10.5 53t10.5 99.5t-1.5 73.5q-19 0 -48.5 -20t-29.5 -38q0 -4 13 -6q27 -5 27 -26q0 -13 -12 -22q-13 -8 -33.5 -8t-35.5 15t-15 40q0 42 49.5 76t98 34t48.5 -27q0 -16 -10.5 -71.5t-10.5 -99.5z" />
    <glyph glyph-name="BhaOttu" horiz-adv-x="231" 
d="M-71 -368q0 45 30 45q10 0 18 -7.5t8 -19.5l-1 -136q-6 -35 -40 -35q-19 0 -19 15zM-125 -231q0 -44 9 -44t24 29q28 54 52 54q10 0 31 -29q48 -65 102 -65q37 0 65 24q27 25 27 61q0 65 -40.5 139.5t-115.5 146.5q0 12 9 22q8 12 18 12h12q3 0 5 -1q80 -66 123.5 -152
t43.5 -173q0 -58 -47.5 -94.5t-97 -36.5t-87 25t-54.5 55q-30 -73 -83 -73q-25 0 -35.5 27t-10.5 53t10.5 99.5t-1.5 73.5q-19 0 -48.5 -20t-29.5 -38q0 -4 13 -6q27 -5 27 -26q0 -13 -12 -22q-13 -8 -33.5 -8t-35.5 15t-15 40q0 42 49.5 76t98 34t48.5 -27
q0 -16 -10.5 -71.5t-10.5 -99.5z" />
    <glyph glyph-name="MaOttu" horiz-adv-x="193" 
d="M-282 -330q0 -32 -40 -32q-21 0 -38 17q-28 26 -28 85q0 110 114 173q97 53 234 53l53 -2q40 129 40 166l-1 43q0 13 8 23q8 14 25.5 14t28.5 -15t11 -53.5t-25 -130.5q-14 -32 -20 -52q58 -10 85.5 -40t27.5 -65t-28 -60.5t-75 -25.5t-74 36q-23 29 -23 60.5t5 46.5
l-58 3q-72 0 -143 -30q-111 -46 -111 -144q0 -24 19 -41q13 -14 13 -29zM122 -166q10 9 10 28t-19.5 32.5t-34.5 13.5q-25 0 -25 -27q0 -56 45 -56q14 0 24 9z" />
    <glyph glyph-name="YaOttu" horiz-adv-x="313" 
d="M219 252l-39 7q-26 0 -49.5 -17.5t-23.5 -56.5v-2q0 -50 40 -101q22 -29 84 -83q41 -37 61.5 -69t20.5 -74q0 -68 -61 -117.5t-159 -49.5q-65 0 -102 36.5t-37 83.5q0 20 10 38l-93 -8q-69 0 -69 26q0 19 6.5 26t25.5 7l92 -1q36 0 73 8.5t44 8.5t16.5 -9t9.5 -22
q0 -22 -29 -32q-28 -11 -28 -32q0 -31 20 -53.5t76 -22.5t98 30q49 33 49 92q0 49 -82 115q-119 97 -119 201q0 53 27 88q37 47 114 47q52 0 52 -38q0 -11 -8 -19q-9 -7 -20 -7z" />
    <glyph glyph-name="RaOttuWide2" horiz-adv-x="31" 
d="M35 -42q27 0 27 -25q-1 -43 62 -73q58 -29 149 -30t152 30t61 73q0 27 30 27q12 0 20 -7t8 -19q1 -68 -79.5 -115.5t-192.5 -47.5t-190 46t-78 111q0 12 11.5 21t19.5 9z" />
    <glyph glyph-name="RaOttuMiddle" horiz-adv-x="29" 
d="M499 -40q26 0 26 -27q1 -70 -73 -119.5t-177 -49.5t-175 48t-72 115q0 12 12 21q9 10 19 10t16 -9q7 -6 7 -17q-1 -45 57 -75q53 -31 136.5 -32t139.5 31t56 76q0 13 8 20.5t20 7.5z" />
    <glyph glyph-name="RaOttuRight" horiz-adv-x="115" 
d="M43 45q108 -95 108 -251q0 -119 -85.5 -196.5t-226.5 -77.5q-50 0 -104.5 10t-86.5 10t-60 -34q-20 -22 -33.5 -22t-22.5 7.5t-9 18.5q0 29 37 59t93 30l140 -16q124 0 202 44q98 55 98 167.5t-67 178.5q-25 24 -25 38t13 24q14 10 29 10z" />
    <glyph glyph-name="RRaOttu" horiz-adv-x="30" 
d="M384 -169q-34 20 -34 56t28 56q27 22 81 22t96.5 -41t42.5 -111.5t-47.5 -118t-125.5 -47.5q-38 0 -72 15.5t-49 49.5q-6 -27 -36.5 -47t-68.5 -20q-59 0 -92 37.5t-33 94.5q0 85 54 134q44 40 92 40q98 0 98 -68q0 -28 -30 -52h96zM228 -92q-46 0 -46 -33
q0 -14 12.5 -23t26.5 -9t28 9t14 24.5t-13 24.5q-8 7 -22 7zM480 -188q0 -21 -21 -24l-195 5q-34 -2 -56.5 -11t-32.5 -9q-28 0 -28 22q0 5 3 12q7 10 15 11q-22 19 -22 32q-12 -14 -20 -57q0 -41 20.5 -72t54.5 -31t57.5 22.5t23.5 48.5q0 6 8 10.5t17.5 4.5t15.5 -4
q9 -4 10 -11q4 -31 29.5 -49.5t70.5 -18.5t82 34.5t37 89.5q0 35 -28 67.5t-73 33.5h-3q-45 0 -45 -36q0 -25 47 -44q33 -13 33 -26z" />
    <glyph glyph-name="LaOttu" horiz-adv-x="30" 
d="M455 -118q-37 -22 -37 -71t-37 -49q-24 0 -26 20q-7 34 -42 70t-70.5 36t-57.5 -12q-37 -19 -37 -60t20 -64.5t54 -23.5q13 0 21 -8.5t8 -18t-10.5 -16.5t-32.5 -7q-51 0 -83.5 39.5t-32.5 90t40 92.5t111 42h15q35 -2 70 -28.5t48 -56.5q6 38 47.5 73.5t105 35.5
t111.5 -42.5t48 -116.5t-55 -121q-43 -39 -88 -39q-14 0 -21.5 9t-7.5 23t6 22q8 7 28 7q33 0 54 30t21 68.5t-29 66.5q-30 28 -72 28t-69 -19z" />
    <glyph glyph-name="LLaOttu" horiz-adv-x="224" 
d="M-166 -24q42 0 72 -20t30 -63.5t-59 -63.5l70 -20q30 -9 40 -10q72 21 124 61t52 85q0 30 -34 49q-11 9 -11 19t8 17q7 10 22 10q38 0 56 -32q15 -24 15 -62q0 -52 -51 -101.5t-120 -71.5q44 -2 78 -29q33 -28 33 -61.5t-40 -57.5q-41 -26 -102 -26t-104.5 24.5
t-43.5 70.5q0 25 14 42.5t38 23.5q-17 8 -59 19q-129 35 -129 105q0 36 29 64q30 28 72 28zM-121 -112q0 43 -40 43q-18 0 -32 -11t-14 -30t15 -29t30.5 -10t28.5 10q12 10 12 27zM1 -259q-30 -1 -50 -15.5t-20 -33.5t25.5 -31t53 -12t52.5 12t25 33t-25 33.5t-61 13.5z" />
    <glyph glyph-name="VaOttu" horiz-adv-x="260" 
d="M-28 -232q0 39 -38 39q-16 0 -30 -14t-14 -27q0 -25 35 -25q16 0 31.5 10.5t15.5 16.5zM123 -310q-78 0 -114 51q-19 -27 -43.5 -40t-54 -13t-51.5 16q-26 17 -26 50.5t27 62.5q33 37 82 37t86 -56t85 -56q37 0 57 16q31 21 31 78t-96 172t-96 191q0 53 30 92t93 39
q58 0 88 -41q1 -4 1 -15t-8.5 -22.5t-17 -11.5t-23 11t-42 11t-44.5 -14t-17 -52q0 -55 95 -173t95 -200q0 -56 -44 -96q-43 -37 -93 -37z" />
    <glyph glyph-name="ShaOttu" horiz-adv-x="178" 
d="M21 -209l-9 7q-28 -2 -48.5 -18.5t-20.5 -34t19 -29.5q19 -10 42.5 -10t45.5 9.5t22 23.5q0 17 -51 52zM168 10q0 -119 -106 -182q7 -7 22 -19q53 -39 53 -71.5t-37 -56t-93 -23.5t-90 20q-40 22 -40 63q0 29 24.5 54t62.5 39q-110 85 -200 85q-50 0 -87 -23
q-43 -25 -43 -66q0 -17 4 -30.5t4 -24.5q0 -25 -26 -25q-19 0 -28.5 17.5t-9.5 43.5q0 65 48 108q53 50 151 50q93 0 244 -105q91 48 91 126t-53 111q-18 12 -18 23.5t10.5 24t22.5 12.5q40 0 67 -48.5t27 -102.5z" />
    <glyph glyph-name="SSaOttu" horiz-adv-x="31" 
d="M283 -320q-41 -60 -96 -60q-39 0 -62 18q-28 20 -28 58t29 70q35 42 86 42t90 -63q41 -64 91 -64q38 0 75.5 24.5t37.5 68.5q0 62 -69 101q-44 25 -44 50q0 14 12.5 23.5t27.5 9.5q62 -38 95 -84q35 -45 35 -86q0 -9 -2 -24l-5 -168q0 -40 4.5 -56t5.5 -26
q5 -20 -5.5 -32.5t-28.5 -7.5q-31 14 -31 89l10 103q-47 -41 -99 -41t-80.5 10t-48.5 45zM240 -292q0 21 -14.5 31t-28.5 10t-27.5 -14.5t-13.5 -25.5t11 -22t25.5 -11t31 12.5t16.5 19.5z" />
    <glyph glyph-name="SaOttu" horiz-adv-x="272" 
d="M178 156q94 -166 94 -242t-58 -136q-63 -68 -157 -68q-70 0 -140 43q-40 25 -60.5 25t-39 -25t-18.5 -66t22 -92q2 -31 -37 -31q-23 4 -39.5 33t-16.5 78t34 111t82.5 62t104 -35t95.5 -35q64 0 109 43q43 43 43 95q0 75 -103 244q-75 123 -75 161q0 18 11 29
q13 11 31.5 11t32 -11t14.5 -30q5 -45 71 -164z" />
    <glyph glyph-name="HaOttu" horiz-adv-x="31" 
d="M247 -330q-41 -62 -99 -62q-39 0 -66 25q-28 23 -28 63t35.5 72t87.5 32q41 0 91.5 -66t95.5 -66t79 25t34 60q0 23 -34 55t-34 56q0 46 49 78.5t128 32.5t143 -42q63 -44 63 -104q0 -43 -30 -74q-32 -30 -72 -30t-66.5 22.5t-26.5 55.5q0 15 11 25.5t27.5 10.5t29.5 -29
q15 -29 31 -29t27 10q10 12 10 27q0 40 -44 67q-42 29 -94.5 29t-83.5 -15.5t-31 -37.5q0 -18 18 -32q40 -38 40 -61q0 -67 -48 -113t-117 -46q-41 0 -75 16t-51 45zM160 -260q-17 0 -30 -13.5t-13 -28.5t10 -23.5t28.5 -8.5t46.5 32q0 15 -12 26.5t-30 15.5z" />
    <glyph glyph-name="KshaOttu" horiz-adv-x="30" 
d="M421 -425q-45 0 -116 69q-14 -38 -51.5 -69t-74 -31t-68 30.5t-31.5 72t6 57.5q7 15 21 15t19 -4.5t5 -14.5l-6 -51q0 -25 18 -43t47 -18t59 46t57.5 46t62 -32.5t62.5 -32.5t50.5 20t22.5 42.5t-16 78.5q0 9 7 17q9 7 25 7t26 -16q12 -15 12 -49l-23 -172l13 -52
q0 -20 -35 -20q-17 0 -22.5 12t-5.5 46t15 71q-11 -9 -35.5 -17t-43.5 -8zM205 -139q0 -17 31 -17l109 6q56 0 86 -14q32 -13 32 -37q0 -41 -61 -70t-134 -29t-95 7t-22 26q0 20 25 20l105 -14q43 0 82.5 17.5t39.5 36.5q0 16 -19 22t-66 6l-95 -7q-72 0 -72 38.5t74 75
t153 36.5q11 0 24 -7.5t13 -15t-10.5 -12.5t-25.5 -5q-73 0 -123 -19q-51 -17 -51 -44z" />
    <glyph glyph-name="TRaOttu" horiz-adv-x="29" 
d="M583 -128q0 -71 -39 -110.5t-103 -39.5l-215 10q-23 1 -32 8t-9 25.5t14.5 24t44.5 5.5l175 -13q32 0 49 6q-26 7 -38 32q-12 22 -12 57.5t24 63.5q25 27 58 27t58 -30t25 -66zM513 -183q19 9 19 38q0 48 -31 48q-17 0 -26 -15q-5 -11 -5 -24.5t8 -25.5q10 -18 35 -21z
M127 -188q38 0 38 -27q0 -66 58.5 -108.5t152.5 -42.5t159 43q64 45 64 108q0 14 6.5 22.5t17 8.5t24.5 -8.5t14 -20.5q-1 -90 -87 -153q-83 -64 -201.5 -64t-197.5 60.5t-79 148.5q0 14 11 25q10 8 20 8z" />
    <glyph glyph-name="Titvam" horiz-adv-x="29" 
d="M736 -427q47 0 47 -31q0 -18 -14 -23q-9 -4 -42 -4l-385 -14q-66 0 -111 28q-56 34 -56 99q0 49 31.5 76.5t82.5 27.5t80 -34q23 -26 23 -56q0 -71 -68 -91l358 23zM251 -397q14 -14 33.5 -14t31.5 14q14 14 14 33.5t-13 32.5t-32.5 13t-33.5 -13t-14 -32.5t14 -33.5z
M674 -211q-69 19 -69 98q0 27 23 53q29 35 82 35t86 -28t33 -79q0 -68 -59 -103q-47 -28 -115 -28l-305 15q-32 0 -44 4t-12 22.5t15 25.5q13 8 33 8zM764 -123q0 20 -14.5 33.5t-34.5 13.5t-33.5 -13.5t-13.5 -33.5t13.5 -34.5t33.5 -14.5t34.5 14.5t14.5 34.5z" />
    <glyph glyph-name="TLaOttu" horiz-adv-x="28" 
d="M214 -84q15 -17 15 -41t-28.5 -50t-61 -26t-60.5 22q0 -36 28 -80.5t55 -44.5q16 0 51.5 57t54.5 57q30 0 59.5 -63.5t57.5 -63.5q32 0 56 24t24 63q0 61 -98 120q-44 25 -44 39t8.5 25.5t21 11.5t31 -18.5t54 -43t58 -51.5t22.5 -78t-38 -96.5t-101 -45.5q-54 0 -91 77
q-14 29 -21.5 29t-32.5 -36q-47 -69 -72 -69q-47 0 -90 54.5t-43 117.5t38 98q36 36 93 36q35 0 54 -24zM179 -125q0 23 -25.5 23t-38.5 -8q-12 -9 -12 -20.5t10 -19t24.5 -7.5t28 10.5t13.5 21.5zM184 -632q0 -20 -39 -20t-66 32.5t-27 74.5t33 76.5t92 34.5h12
q29 -2 58 -23.5t40 -46.5q5 31 39.5 60.5t87 29.5t92 -35t39.5 -96.5t-45 -100.5q-36 -32 -73 -32q-24 0 -24 26q0 12 5 19q6 5 28 5t39.5 25t17.5 57t-24 55q-25 23 -59.5 23t-57.5 -16q-30 -18 -30 -58.5t-31 -40.5q-21 0 -21 17q-6 28 -35 57.5t-59 29.5q-78 0 -78 -63
q0 -30 16.5 -49.5t45.5 -19.5q10 0 17 -7t7 -14z" />
    <glyph glyph-name="GNaOttu" horiz-adv-x="28" 
d="M259 -639q2 -42 -28 -42q-28 0 -28 44q0 105 57 167q48 54 108 54q76 0 140 -66.5t64 -161.5q0 -16 -8.5 -27t-20 -11t-19 5t-7.5 11l2 24q0 58 -48 118.5t-97 60.5t-82 -51.5t-33 -124.5zM507 -130q0 -36 -75 -36l-154 11l-2 -9q-19 -62 -19 -102q0 -8 -3 -27t3.5 -19
t24.5 30q36 62 64 62q14 0 30 -30q35 -75 92 -75q24 0 41 10q25 14 25 47t-35 53q-13 8 -13 16t15 21.5t32.5 13.5t41.5 -28t24 -74t-39 -83.5t-91 -37.5t-91 26.5t-51 56.5q-39 -77 -80 -77q-24 2 -39 37q-11 29 -11 60q0 70 40 183v1q0 3 1 4h-2q-23 0 -51 -20.5
t-28 -40.5q0 -10 16 -13q25 -5 25 -27q0 -13 -14.5 -23.5t-35 -10.5t-38 19.5t-17.5 45.5q0 45 53 85t106 40q19 0 32 -8q19 -8 19 -22.5t-4 -25.5l79 -5l-6 43q0 13 8.5 23.5t17 10.5t14.5 1q14 2 15 -11q2 19 6 -6t4 -63q45 0 37 3q-2 0 0 0q9 0 21 -10.5t12 -18.5z" />
    <glyph glyph-name="SHNaOttu" horiz-adv-x="29" 
d="M154 -506q0 -16 52.5 -28t52.5 -39q0 -23 -40.5 -36.5t-40.5 -22.5q0 -15 43 -27q44 -15 44 -31q0 -10 -9 -17t-29.5 -7t-70.5 23.5t-50 50.5q0 24 24.5 43t57.5 23q0 -3 -18 1q-74 19 -74 69q0 34 29 52t65.5 18t64.5 -10.5t38 -28.5q2 10 25 25.5t56 15.5
q68 0 107.5 -45t31.5 -110v43q8 -87 -25.5 -125.5t-91 -38.5t-85.5 26t-28 57t24.5 53t60 22t52.5 -18.5t17 -42.5q0 -8 -9 -15q-10 -6 -20.5 -6t-20.5 17.5t-24 17.5t-22 -7t-8 -21.5t23 -24.5q17 -9 42.5 -9t48.5 22.5t23 57t-26 64.5q-27 29 -67 35q-43 0 -64 -44
q-10 -22 -22 -22t-26 21q-11 44 -61 44t-50 -25zM287 -320q-41 -60 -96 -60q-39 0 -62 18q-28 20 -28 58t29 70q35 42 86 42t90 -63q41 -64 91 -64q38 0 75.5 24.5t37.5 68.5q0 62 -69 101q-44 25 -44 50q0 14 12.5 23.5t27.5 9.5q62 -38 95 -84q35 -45 35 -86q0 -9 -2 -24
l-5 -168q0 -40 4.5 -56t5.5 -26q5 -20 -5.5 -32.5t-28.5 -7.5q-31 14 -31 89l10 103q-47 -41 -99 -41t-80.5 10t-48.5 45zM244 -292q0 21 -14.5 31t-28.5 10t-27.5 -14.5t-13.5 -25.5t11 -22t25.5 -11t31 12.5t16.5 19.5z" />
    <glyph glyph-name="GyaOttu" horiz-adv-x="31" 
d="M583 -689q-28 0 -28 53q0 23 2 34l-60 4q-10 -28 -25 -48q24 -26 39 -46q22 -33 19 -56q4 -11 -7 -20t-20.5 -9t-14.5 3q-2 3 -4 8q-18 62 -49 88q-30 -28 -77.5 -43t-97 -15t-87 20.5t-37.5 54.5q0 47 57 72q43 18 101 18q86 0 147 -45q19 31 19 69t-23 62.5t-49.5 24.5
t-44.5 -18q-17 -20 -17 -41t-8.5 -31t-21.5 -10q-23 0 -34 38q-14 43 -45 43q-17 0 -30.5 -10t-13.5 -24t5.5 -24.5t5.5 -12.5q0 -24 -28 -24q-16 0 -25 14t-9 35q0 41 30.5 64.5t63.5 23.5q55 0 73 -41q7 22 36 43t70 21t76 -36.5t35 -83.5v-22q22 0 54 -4l6 56v6
q0 10 5 19q8 11 17 11q22 0 22 -13l-9 -79q67 0 86 -3q22 -5 22 -23q0 -21 -34 -21h-14l-63 3v-61q0 -24 -15 -24zM412 -647q-12 13 -49 25.5t-71.5 12.5t-65.5 -12q-37 -13 -37 -36q0 -17 26 -26q24 -10 58 -10t72 11.5t67 36.5v-2zM378 -195q-77 0 -109 40
q-33 -92 -33 -115q0 -45 8 -45q18 40 43 64t50 24q22 -47 55 -74q31 -28 61.5 -28t52.5 19q21 19 21 40t-21.5 44.5t-21.5 37.5t9 24q10 9 23 9q31 0 53 -31t22 -80t-42 -86.5t-94 -37.5t-88 23q-36 21 -53 58q-15 -33 -37 -55q-23 -20 -44 -20q-24 3 -40 33t-16 71
q0 75 40 185v6q0 4 -24.5 4t-43 -22t-18.5 -53q0 -12 21 -25.5t21 -24t-10 -17.5t-30.5 -7t-39.5 22q-20 20 -20 50q0 53 48 92t117 39q24 0 41 -11.5t17 -26.5q0 -30 24 -51t52.5 -21t44.5 11t16 28q0 4 -15 12q-25 13 -25 25.5t14 19.5q12 9 34 9t39.5 -19t17.5 -51.5
t-35 -60.5t-85 -28z" />
    <glyph glyph-name="RaOttuWide1" horiz-adv-x="31" 
d="M539 -66q1 -67 -78.5 -114.5t-191 -47.5t-188.5 46t-77 111q0 12 12 21.5t23.5 9.5t18.5 -9q7 -6 7 -18q-1 -41 60 -69q57 -29 146 -30t148 29t59 70q0 29 31 29q13 0 20 -6l10 -9v-13z" />
    <glyph glyph-name="RaOttuMiddle1" horiz-adv-x="29" 
d="M560 -66q1 -67 -81.5 -114.5t-198 -47.5t-195.5 46t-80 111q0 12 12.5 21.5t24.5 9.5t19 -9q7 -6 7 -18q-1 -41 62 -69q59 -29 151.5 -30t154 29t61.5 70q0 14 9 21.5t22.5 7.5t21.5 -6l10 -9v-13z" />
    <glyph glyph-name="LowItvam" horiz-adv-x="0" 
d="M523 -425v-91h-402v91h402z" />
    <glyph glyph-name="SsaTtaOttu" horiz-adv-x="8" 
d="M283 -320q-41 -60 -96 -60q-39 0 -62 18q-28 20 -28 58t29 70q35 42 86 42t90 -63q41 -64 91 -64q38 0 75.5 24.5t37.5 68.5q0 62 -69 101q-44 25 -44 50q0 14 12.5 23.5t27.5 9.5q62 -38 95 -84q35 -45 35 -86q0 -9 -2 -24l-5 -168q0 -40 4.5 -56t5.5 -26
q5 -20 -5.5 -32.5t-28.5 -7.5q-31 14 -31 89l10 103q-47 -41 -99 -41t-80.5 10t-48.5 45zM240 -292q0 21 -14.5 31t-28.5 10t-27.5 -14.5t-13.5 -25.5t11 -22t25.5 -11t31 12.5t16.5 19.5zM260 -513q-22 -20 -46.5 -20t-47.5 17q0 -28 21.5 -62t42.5 -34q13 0 40 44t42 44
q23 0 46 -49t44 -49q25 0 43.5 18.5t18.5 48.5q0 47 -76 92q-33 20 -33 30.5t6 19.5q7 9 16.5 9t23.5 -14.5t41.5 -33t45 -39.5t17.5 -60.5t-29.5 -74.5t-74.5 -35t-74 59q-10 23 -16 23t-25 -28q-36 -53 -56 -53q-36 0 -69 42t-33 90.5t28.5 76t64 27.5t49.5 -19
q12 -13 12 -31.5t-22 -38.5zM243 -474q0 18 -19.5 18t-29 -7t-9.5 -15.5t7 -15.5q8 -5 19.5 -5t21.5 8t10 17z" />
    <glyph glyph-name="Multiply" horiz-adv-x="0" 
d="M283 -320q-41 -60 -96 -60q-39 0 -62 18q-28 20 -28 58t29 70q35 42 86 42t90 -63q41 -64 91 -64q38 0 75.5 24.5t37.5 68.5q0 62 -69 101q-44 25 -44 50q0 14 12.5 23.5t27.5 9.5q62 -38 95 -84q35 -45 35 -86q0 -9 -2 -24l-5 -168q0 -40 4.5 -56t5.5 -26
q5 -20 -5.5 -32.5t-28.5 -7.5q-31 14 -31 89l10 103q-47 -41 -99 -41t-80.5 10t-48.5 45zM240 -292q0 21 -14.5 31t-28.5 10t-27.5 -14.5t-13.5 -25.5t11 -22t25.5 -11t31 12.5t16.5 19.5zM476 -542q0 -48 -42.5 -84.5t-118 -36.5t-113.5 37.5t-38 91t43.5 94.5t114.5 41
q51 0 93 -26q61 -39 61 -117zM214 -537q0 -78 103 -78q39 0 68 15q42 21 42 60t-30.5 67.5t-74.5 28.5t-76 -26.5t-32 -66.5zM333 -557q-11 -7 -26 -7t-24.5 10.5t-9.5 27.5t11 28t26 11t27 -10.5t12 -29t-16 -30.5z" />
    <glyph glyph-name="DoubleDanda" horiz-adv-x="8" 
d="M283 -320q-41 -60 -96 -60q-39 0 -62 18q-28 20 -28 58t29 70q35 42 86 42t90 -63q41 -64 91 -64q38 0 75.5 24.5t37.5 68.5q0 62 -69 101q-44 25 -44 50q0 14 12.5 23.5t27.5 9.5q62 -38 95 -84q35 -45 35 -86q0 -9 -2 -24l-5 -168q0 -40 4.5 -56t5.5 -26
q5 -20 -5.5 -32.5t-28.5 -7.5q-31 14 -31 89l10 103q-47 -41 -99 -41t-80.5 10t-48.5 45zM240 -292q0 21 -14.5 31t-28.5 10t-27.5 -14.5t-13.5 -25.5t11 -22t25.5 -11t31 12.5t16.5 19.5zM260 -513q-22 -20 -47 -20t-46 17q0 -28 21.5 -62t42.5 -34q12 0 39.5 44t41.5 44
q24 0 46.5 -49t45.5 -49t42 18.5t19 48.5q0 47 -76 92q-34 20 -34 30.5t6.5 19.5t16 9t24 -14.5t42 -33t44.5 -39.5t17 -60.5t-27 -73.5q-31 -36 -76.5 -36t-73.5 59q-11 23 -16.5 23t-25.5 -28q-36 -53 -55 -53q-37 0 -70 42t-33 90.5t28.5 76t64 27.5t48.5 -16t13 -34.5
t-22 -38.5zM238.5 -461.5q-5.5 5.5 -20 5.5t-24 -7t-9.5 -15.5t8 -14.5t19 -6t21.5 8t10.5 16t-5.5 13.5zM533 -811q43 0 43 -29q0 -16 -12 -20q-9 -4 -39 -4l-300 -13q-60 0 -101 25q-51 31 -51 90q0 45 28.5 70t75 25t70 -27t23.5 -51q0 -69 -62 -86l277 21zM129 -754
q0 -18 13 -30.5t30.5 -12.5t28.5 13q13 12 13 30t-12 29.5t-29.5 11.5t-30.5 -11.5t-13 -29.5z" />
    <glyph glyph-name="SsaTthaOttu" horiz-adv-x="0" 
d="M283 -320q-41 -60 -96 -60q-39 0 -62 18q-28 20 -28 58t29 70q35 42 86 42t90 -63q41 -64 91 -64q38 0 75.5 24.5t37.5 68.5q0 62 -69 101q-44 25 -44 50q0 14 12.5 23.5t27.5 9.5q62 -38 95 -84q35 -45 35 -86q0 -9 -2 -24l-5 -168q0 -40 4.5 -56t5.5 -26
q5 -20 -5.5 -32.5t-28.5 -7.5q-31 14 -31 89l10 103q-47 -41 -99 -41t-80.5 10t-48.5 45zM240 -292q0 21 -14.5 31t-28.5 10t-27.5 -14.5t-13.5 -25.5t11 -22t25.5 -11t31 12.5t16.5 19.5zM440 -601q-40 -36 -108.5 -36t-102.5 34t-34 82t39.5 85t94 37t93.5 -23
q54 -35 54 -106q0 -43 -36 -73zM241 -523q0 -70 92 -70q36 0 62 13q37 18 37 53.5t-27.5 61.5t-67 26t-68 -24t-28.5 -60zM349.5 -539q-12.5 -9 -25.5 -9t-21.5 9.5t-8.5 25t9.5 25.5t23.5 10t24.5 -9.5t10.5 -26t-12.5 -25.5zM533 -752q43 0 43 -29q0 -16 -12 -20
q-9 -4 -39 -4l-300 -13q-60 0 -101 25q-51 31 -51 90q0 45 28.5 70t75 25t70 -27t23.5 -51q0 -69 -62 -86l277 21zM129 -695q0 -18 13 -30.5t30.5 -12.5t28.5 13q13 12 13 30t-12 29.5t-29.5 11.5t-30.5 -11.5t-13 -29.5z" />
    <glyph glyph-name="KhaHalanth" horiz-adv-x="825" 
d="M99 303q0 -35 31 -35q16 0 30 11.5t14 28.5t-11 27q-12 10 -27.5 10t-26 -12t-10.5 -30zM124 93q0 -34 51 -34q72 0 109 39q-15 16 -44 25.5t-54.5 9.5t-43.5 -13.5t-18 -26.5zM301 -2q15 16 35 16t20 -19v-167q-18 -23 -50 -23q-18 0 -18 15v138q0 23 13 40zM206 358
q20 -18 20 -55.5t-31.5 -62.5t-72.5 -25t-66.5 24t-25.5 57q0 53 45 85t129 32t145 -54.5t61 -137.5q0 -55 -34 -113l20 -10q54 -29 108.5 -29t86.5 29q33 27 33 78q0 29 -53 86.5t-121 103.5l-25 3q-46 5 -72 35q-27 27 -27 60q0 46 40 71q23 14 73 28q-85 5 -140 41
t-55 91q0 83 104 119q70 25 164 25t201 -25q132 -33 132 -79q0 -12 -11 -22t-25 -10q-170 70 -298 70q-63 0 -110 -12q-73 -18 -73 -62q0 -59 175 -76q41 -4 54 -6q24 -4 24 -32q0 -14 -6 -25t-17.5 -14t-41.5 -11q-112 -27 -112 -66q0 -18 11 -26.5t31 -16.5l25 -4
q19 -5 64 -43l49 -36q60 -44 85 -80q24 -38 24 -85q0 -75 -57 -127.5t-129.5 -52.5t-146.5 42l-29 16q-57 -63 -153 -63q-52 0 -87.5 28t-35.5 70t34.5 69.5t92.5 27.5t141 -48q18 35 18 88t-36 92q-37 38 -99 38z" />
    <glyph glyph-name="GaHalanth" horiz-adv-x="653" 
d="M115 61q0 -58 -44 -58q-18 0 -30 18q-11 19 -11 50q0 133 78 244q31 46 64 73q-51 23 -51 59.5t48 68.5q29 20 89 47v6q-68 7 -123 32q-80 37 -80 92q0 88 95 122q64 23 176.5 23t224.5 -27q122 -27 122 -61q0 -15 -7 -25t-18 -10q-23 4 -79 19q-156 41 -241 41
q-190 0 -190 -75q0 -41 127 -70q99 -24 99 -49q0 -32 -79.5 -63.5t-79.5 -61.5q0 -13 20 -20.5t45 -7.5l46 1q8 0 17 -13v-1q66 -28 128 -120q89 -134 89 -277q0 -35 -37 -35q-32 0 -32 26q0 114 -70 229.5t-135 115.5t-113 -78t-48 -178v-37z" />
    <glyph glyph-name="GhaHalanth" horiz-adv-x="976" 
d="M214 90q0 25 -17 36.5t-32.5 11.5t-32 -16.5t-16.5 -30t12 -23.5q13 -13 30.5 -13t37.5 14q18 14 18 21zM241 366q-145 0 -145 69q0 39 53 69q27 15 101 41q-14 6 -55 20q-165 54 -165 126q0 83 103 122q71 26 164.5 26t200.5 -26q132 -32 132 -78q0 -12 -11 -22t-25 -10
q-170 70 -298 70q-67 0 -113 -10q-79 -18 -79 -62.5t134 -85.5q98 -31 98 -55q0 -36 -18 -49q-8 -5 -43 -15q-104 -30 -104 -63q3 -14 38 -14l71 6q13 0 23 -5q15 -6 15 -20q0 -24 -24 -30q-14 -4 -53 -4zM265 59q-47 -70 -112 -70q-45 0 -75 22t-30 65.5t33 82.5
q42 47 101 47t106 -72q46 -74 105 -74q43 0 87 27.5t44 78.5q0 75 -80 122q-50 28 -50 58q0 14 14.5 25.5t31.5 11.5q71 -45 111 -98q42 -52 42 -101q0 -14 -2 -26q3 -5 3 -9q5 -38 49.5 -63t103.5 -25t97.5 29.5t38.5 78.5q0 95 -157 192q-76 47 -76 69q0 18 10 26
q10 12 30 12t70.5 -42.5t87.5 -72t70 -85t33 -103.5q5 -85 -55 -129.5t-156 -44.5q-126 0 -188 76q-60 -73 -146 -73q-51 0 -84 12t-57 53zM223 -47q0 47 40 47q17 0 30 -5t7 -23.5t-5 -66.5l1 -55q0 -4 -1.5 -22.5t8.5 -41.5q0 -15 -17 -22.5t-32.5 -7.5t-20.5 17
q-5 13 -5 48v65q0 45 -5 67z" />
    <glyph glyph-name="NGaHalanth" horiz-adv-x="820" 
d="M418 510q11 -5 13 -26v-49h7l46 1q7 0 16 -11.5t9 -20.5q0 -20 -20 -26q-13 -4 -46 -4h-12v-23h103q14 3 25 -6.5t11 -20.5q0 -24 -21 -32t-71 -8l-212 16q-27 -82 -27 -159v-12q-1 -58 12 -58q9 0 32 43q43 81 78 81q17 0 30 -29q27 -54 55 -80q38 -33 75 -33t70 20.5
t33 65.5t-48 71q-18 11 -18 22.5t15 24.5t40 13t52.5 -32.5t27.5 -95.5t-49 -109.5t-117.5 -46.5t-119.5 41t-69 83q-56 -115 -107 -115q-33 4 -50 46q-11 33 -11 77q0 95 54 240q1 2 1 7t-3.5 9t-7.5 4q-29 0 -72 -32.5t-43 -59.5q0 -11 22 -15q35 -6 35 -35q0 -18 -15 -29
t-43 -11t-48 22t-20 57q0 61 68 113q66 47 140 47q25 0 37 -5q19 -7 19 -30.5t-5 -38.5l85 -7l-3 30q-8 3 -17 6q-65 24 -65 69q0 32 47 65q29 20 89 46v6q-67 8 -122 33q-80 36 -80 91q0 89 95 123q63 22 175.5 22t229.5 -27t117 -60q0 -15 -6 -25q-8 -10 -19 -10
q-22 3 -79 18q-156 42 -241 42q-190 0 -190 -75q0 -42 128 -70q98 -24 98 -49q0 -33 -81 -65q-18 -7 -32 -14z" />
    <glyph glyph-name="CaHalanth" horiz-adv-x="845" 
d="M136 248q-106 -5 -106 42q0 10 10 23q11 12 20 12t23 -6q40 -18 100 -18l128 15q17 0 29.5 -6t9.5 -22q0 -24 -47 -37q-79 -21 -79 -86q0 -37 17.5 -61.5t33 -24.5t44.5 52q45 85 82 85q29 0 65 -60q53 -87 115 -87q47 0 84.5 23.5t37.5 70.5q0 85 -54 144t-169 59h-5
q-6 0 -11 2q-59 0 -91 36q-27 27 -27 60q0 46 40 71q23 14 73 28q-85 5 -140 41t-55 91q0 83 104 119q70 25 164 25t201 -25q132 -33 132 -79q0 -12 -11 -22t-25 -10q-170 70 -298 70q-63 0 -110 -12q-73 -18 -73 -62q0 -59 175 -76q41 -4 54 -6q24 -4 24 -32q0 -14 -6 -25
t-17.5 -14t-41.5 -11q-112 -27 -112 -66q0 -18 11 -26.5t31 -16.5h25v-1q155 -5 227 -91q53 -65 53 -170q9 -65 -47 -115.5t-159.5 -50.5t-166.5 128q-22 -15 -49.5 -74t-57.5 -59q-56 0 -96 56.5t-40 108.5q0 32 13 58q8 20 22 32h-54z" />
    <glyph glyph-name="CaNuktaHalanth" horiz-adv-x="845" 
d="M136 248q-106 -5 -106 42q0 10 10 23q11 12 20 12t23 -6q40 -18 100 -18l128 15q17 0 29.5 -6t9.5 -22q0 -24 -47 -37q-79 -21 -79 -86q0 -37 17.5 -61.5t33 -24.5t44.5 52q45 85 82 85q29 0 65 -60q53 -87 115 -87q47 0 84.5 23.5t37.5 70.5q0 85 -54 144t-169 59h-5
q-6 0 -11 2q-59 0 -91 36q-27 27 -27 60q0 46 40 71q23 14 73 28q-85 5 -140 41t-55 91q0 83 104 119q70 25 164 25t201 -25q132 -33 132 -79q0 -12 -11 -22t-25 -10q-170 70 -298 70q-63 0 -110 -12q-73 -18 -73 -62q0 -59 175 -76q41 -4 54 -6q24 -4 24 -32q0 -14 -6 -25
t-17.5 -14t-41.5 -11q-112 -27 -112 -66q0 -18 11 -26.5t31 -16.5h25v-1q155 -5 227 -91q53 -65 53 -170q9 -65 -47 -115.5t-159.5 -50.5t-166.5 128q-22 -15 -49.5 -74t-57.5 -59q-56 0 -96 56.5t-40 108.5q0 32 13 58q8 20 22 32h-54zM553 920q-69 19 -69 98q0 27 23 53
q29 35 82 35t86 -28t33 -79q0 -68 -59 -103q-47 -28 -115 -28l-410 15q-32 0 -44 4t-12 22.5t15 25.5q13 8 33 8l55 1zM643 1008q0 20 -14.5 33.5t-34.5 13.5t-33.5 -13.5t-13.5 -33.5t13.5 -34.5t33.5 -14.5t34.5 14.5t14.5 34.5z" />
    <glyph glyph-name="ChaHalanth" horiz-adv-x="845" 
d="M383 11q12 13 28.5 13t21.5 -16v-217q-33 -22 -51 -22t-18 12v189q2 26 19 41zM136 248q-106 -5 -106 42q0 10 10 23q11 12 20 12t23 -6q40 -18 100 -18l128 15q17 0 29.5 -6t9.5 -22q0 -24 -47 -37q-79 -21 -79 -86q0 -37 17.5 -61.5t33 -24.5t44.5 52q45 85 82 85
q29 0 65 -60q53 -87 115 -87q47 0 84.5 23.5t37.5 70.5q0 86 -47 140q-56 63 -170 63h-15q-6 0 -11 2q-57 1 -87 36q-27 27 -27 60q0 46 40 71q23 14 73 28q-85 5 -140 41t-55 91q0 83 104 119q70 25 164 25t201 -25q132 -33 132 -79q0 -12 -11 -22t-25 -10q-170 70 -298 70
q-63 0 -110 -12q-73 -18 -73 -62q0 -59 175 -76q41 -4 54 -6q24 -4 24 -32q0 -14 -6 -25t-17.5 -14t-41.5 -11q-112 -27 -112 -66q0 -18 11 -26.5t31 -16.5h25v-1q154 -5 225 -91q55 -66 55 -170q9 -65 -47 -115.5t-159.5 -50.5t-166.5 128q-22 -15 -49.5 -74t-57.5 -59
q-56 0 -96 56.5t-40 108.5q0 32 13 58q8 20 22 32h-54z" />
    <glyph glyph-name="JaHalanth" horiz-adv-x="824" 
d="M238 435q56 0 56 -34l2 -12q-2 -10 -2 -21q0 -33 37 -65.5t72 -32.5t59 18t24 45q0 13 -7 23q-9 10 -20 10h-25q-6 0 -11 2q-45 5 -71.5 33.5t-26.5 61.5q0 46 40 71q23 14 73 27q-85 5 -140 41.5t-55 91.5q0 82 103 119q70 25 164.5 25t200.5 -25q133 -33 133 -79
q0 -13 -11.5 -23t-24.5 -10q-170 70 -298 70q-64 0 -110 -11q-74 -19 -74 -62q0 -59 175 -77q42 -3 55 -5q24 -4 24 -32q0 -14 -6 -25t-17.5 -14.5t-41.5 -10.5q-112 -28 -112 -66q0 -18 13 -29q9 -6 29 -14h25v-2q31 -5 58 -28.5t27 -61.5q0 -57 -42.5 -90.5t-112.5 -33.5
q-45 0 -82 22q-37 24 -54 63q-25 -78 -25 -153q0 -70 12 -70q18 18 39 55.5t36 53t30 15.5t21 -5.5t14 -23.5q27 -53 62.5 -83t74 -30t67.5 24t29 53q0 52 -48 80q-11 8 -15 11q-3 4 -3 13.5t16 22.5t36 13q34 0 59 -37q24 -38 24 -96.5t-49 -104.5t-113.5 -46t-114.5 34
t-72 90q-24 -52 -54 -84q-31 -31 -59 -31q-27 3 -45 36q-16 34 -16 87q0 92 54 240q1 2 1 7t-4 9q-2 4 -7 4q-31 0 -73 -33.5t-42 -58.5q0 -7 5 -10t22 -6.5t23.5 -11t6.5 -23t-15.5 -27.5t-43 -12t-47.5 21.5t-20 57.5q0 60 65 110t143 50z" />
    <glyph glyph-name="JaNuktaHalanth" horiz-adv-x="824" 
d="M238 435q56 0 56 -34l2 -12q-2 -10 -2 -21q0 -33 37 -65.5t72 -32.5t59 18t24 45q0 13 -7 23q-9 10 -20 10h-25q-6 0 -11 2q-45 5 -71.5 33.5t-26.5 61.5q0 46 40 71q23 14 73 27q-85 5 -140 41.5t-55 91.5q0 82 103 119q70 25 164.5 25t200.5 -25q133 -33 133 -79
q0 -13 -11.5 -23t-24.5 -10q-170 70 -298 70q-64 0 -110 -11q-74 -19 -74 -62q0 -59 175 -77q42 -3 55 -5q24 -4 24 -32q0 -14 -6 -25t-17.5 -14.5t-41.5 -10.5q-112 -28 -112 -66q0 -18 13 -29q9 -6 29 -14h25v-2q31 -5 58 -28.5t27 -61.5q0 -57 -42.5 -90.5t-112.5 -33.5
q-45 0 -82 22q-37 24 -54 63q-25 -78 -25 -153q0 -70 12 -70q18 18 39 55.5t36 53t30 15.5t21 -5.5t14 -23.5q27 -53 62.5 -83t74 -30t67.5 24t29 53q0 52 -48 80q-11 8 -15 11q-3 4 -3 13.5t16 22.5t36 13q34 0 59 -37q24 -38 24 -96.5t-49 -104.5t-113.5 -46t-114.5 34
t-72 90q-24 -52 -54 -84q-31 -31 -59 -31q-27 3 -45 36q-16 34 -16 87q0 92 54 240q1 2 1 7t-4 9q-2 4 -7 4q-31 0 -73 -33.5t-42 -58.5q0 -7 5 -10t22 -6.5t23.5 -11t6.5 -23t-15.5 -27.5t-43 -12t-47.5 21.5t-20 57.5q0 60 65 110t143 50zM553 920q-69 19 -69 98
q0 27 23 53q29 35 82 35t86 -28t33 -79q0 -68 -59 -103q-47 -28 -115 -28l-410 15q-32 0 -44 4t-12 22.5t15 25.5q13 8 33 8l55 1zM643 1008q0 20 -14.5 33.5t-34.5 13.5t-33.5 -13.5t-13.5 -33.5t13.5 -34.5t33.5 -14.5t34.5 14.5t14.5 34.5z" />
    <glyph glyph-name="JhaHalanth" horiz-adv-x="1296" 
d="M508 201q0 77 -72 120t-173 43l-57 -4q-52 -40 -80 -81q-27 -43 -27 -88q0 -57 57.5 -94t142.5 -37t147 44t62 97zM870 -67q6 53 38 53q13 0 24 -14t7 -28v-140q-7 -33 -40 -33q-9 0 -19 7.5t-10 16.5v138zM210 454q0 -22 48 -28h49.5t21.5 -3q83 -10 146 -47
q101 -58 101 -165q0 -23 -5 -44q4 -9 5 -18q5 -40 41 -64t92.5 -24t95 29.5t38.5 78.5q0 95 -157 192q-76 47 -76 69q0 18 10 26q10 12 30 12t70.5 -42.5t89 -73.5t70 -79.5t31.5 -94.5v-21q3 -4 3 -8q5 -38 49.5 -63t103.5 -25t97.5 29.5t38.5 78.5q0 95 -157 192
q-76 47 -76 69q0 18 10 26q10 12 30 12t70.5 -42.5t87.5 -72t70 -85t33 -103.5q5 -85 -55 -129.5t-166.5 -44.5t-172.5 71q-65 -71 -187 -71q-51 0 -98 27.5t-58 54.5q-3 6 -5 12q-14 -14 -30 -27q-80 -64 -209 -64t-200 64q-60 53 -60 135.5t74 157.5q27 27 55 44
q-33 22 -33 54t48 65q29 20 89 46v6q-68 8 -123 33q-80 36 -80 91q0 89 95 123q64 22 176.5 22t229.5 -27t117 -60q0 -15 -7 -25t-18 -10q-23 3 -79 18q-156 42 -241 42q-190 0 -190 -75q0 -42 127 -70q99 -24 99 -49q0 -33 -79.5 -64t-79.5 -61z" />
    <glyph glyph-name="NyaHalanth" horiz-adv-x="1184" 
d="M535 129q-125 61 -210 61t-142 -24q-57 -22 -57 -56q0 -24 47.5 -40.5t119.5 -16.5q145 0 242 76zM629 130q107 -89 115 -160q0 -12 -19 -24.5t-33 -12.5q-24 0 -28 15q-14 53 -31 81q-19 27 -59 57q-53 -41 -136 -66t-169 -25t-149 31q-62 32 -62 75q0 62 73 98.5
t204 36.5t248 -72q38 50 38 111t-40.5 100.5t-91.5 39.5t-84 -30q-31 -31 -31 -74q0 -20 -12.5 -32.5t-32 -12.5t-31.5 7t-12 18q-5 45 -30 69.5t-64 24.5t-66 -20.5t-27 -50.5q0 -27 49 -45l12 -6q3 -2 3 -4q0 -14 -12.5 -22.5t-41 -8.5t-54 23t-25.5 55q0 55 50 94.5
t121 39.5q43 0 75 -22t42 -58q5 48 55.5 80.5t126 32.5t133 -51t57.5 -123v-39l61 -2l48 -4l8 77h-2q-61 0 -94 37q-26 27 -26 60q0 46 40 71q23 14 73 27q-85 5 -140 41.5t-55 91.5q0 82 103 119q70 25 164.5 25t200.5 -25q133 -33 133 -79q0 -13 -11.5 -23t-24.5 -10
q-170 70 -298 70q-64 0 -110 -11q-74 -19 -74 -62q0 -59 175 -77q42 -3 55 -5q24 -4 24 -32q0 -14 -6 -25t-17.5 -14.5t-41.5 -10.5q-112 -28 -112 -66q0 -18 13 -29q9 -6 29 -14h23q7 5 19.5 5t22 -5t9.5 -12l-13 -55l-7 -74h171q16 0 16 -31q0 -22 -55 -22h-136v-101
q0 -24 -21 -24q-43 0 -43 72q0 36 5 60l-118 5q-18 -48 -49 -78z" />
    <glyph glyph-name="TTaHalanth" horiz-adv-x="815" 
d="M246 321q0 33 -42 33q-31 0 -50 -11.5t-19 -28t14.5 -28t35.5 -11.5t41 15t20 31zM139 660q0 4 4 6h-2q7 15 13.5 26t20.5 11t24 -11.5t9 -28.5v-189q1 -13 -9.5 -21.5t-21.5 -8.5t-22 9q-12 7 -16 18v189zM295 381q20 -25 20 -59t-40 -71t-88.5 -37t-83.5 31
q0 -51 36.5 -113t71.5 -62q22 0 59.5 73t60.5 73q35 0 68 -68q45 -93 106 -93q38 0 83 38q43 38 43 73t-33 76q-43 52 -107 79q-46 21 -76 29t-72 45q-27 28 -27 60q0 46 40 71q23 14 73 28q-85 5 -140 41t-55 91q0 83 104 119q70 25 164 25t201 -25q132 -32 132 -79
q0 -12 -11 -22t-25 -10q-170 70 -298 70q-63 0 -110 -11q-73 -19 -73 -63q0 -59 175 -76q41 -4 54 -6q24 -4 24 -32q0 -13 -6 -24.5t-17.5 -14.5t-41.5 -11q-112 -27 -112 -66q0 -17 14 -29q6 -4 127 -47l25 -13q54 -37 90 -82q50 -61 50 -119q9 -67 -59 -124t-135 -57
q-46 0 -74.5 10.5t-45.5 32.5t-32 56q-18 36 -28 36q-28 -60 -59.5 -96.5t-55.5 -36.5q-62 0 -121.5 72t-59.5 161.5t53 140t137 50.5q50 0 75 -34z" />
    <glyph glyph-name="TThaHalanth" horiz-adv-x="658" 
d="M334 236q16 -13 16 -42.5t-27 -39.5q-12 -5 -30.5 -5t-36.5 15t-18 36t17 36q18 15 41 15t38 -15zM256 365q-63 -8 -110 -68.5t-47 -113t52 -85.5q53 -35 145.5 -35t152 35t59.5 100t-60 112t-139 55q-12 -1 -26.5 -1t-26.5 1zM325 425q82 -9 154 -59q97 -67 96.5 -162
t-76 -154t-208 -59t-205.5 68q-56 54 -56 120q0 92 70 167q28 30 60 49q-34 21 -34 53.5t48 65.5q29 20 89 46v6q-68 8 -123 33q-80 36 -80 91q0 89 95 123q64 22 176.5 22t229.5 -27t117 -60q0 -15 -7 -25t-18 -10q-23 3 -79 18q-156 42 -241 42q-190 0 -190 -75
q0 -42 127 -70q99 -24 99 -49q0 -33 -79.5 -64t-79.5 -61q0 -22 48 -28q14 2 29.5 2t30.5 -2h3q2 0 4 -1z" />
    <glyph glyph-name="DDaHalanth" horiz-adv-x="700" 
d="M413 186q7 -10 19.5 -10t22.5 9.5t10 24t-6 23t-22 8.5t-26.5 -17.5t2.5 -37.5zM343 364q-108 -31 -176 -94.5t-68 -139.5t50 -76q24 0 55.5 64.5t68.5 64.5q20 0 48 -45q52 -83 123 -83q51 0 90 30q37 31 37 70.5t-18 60t-49 32.5q14 -24 14 -44q0 -34 -29.5 -56.5
t-64 -22.5t-57.5 22t-23 62t39 67q36 27 93.5 27t104.5 -33q59 -41 59 -117q-2 -58 -55 -104q-60 -55 -156 -55q-83 0 -138 85q-16 24 -22 24q-9 0 -20 -30q-31 -84 -95 -84t-94 43t-30 101q0 133 129 221q28 19 57 33q-47 23 -47 58.5t47 68.5q29 20 89 46v6q-67 8 -122 33
q-80 36 -80 91q0 89 95 123q63 22 175.5 22t229.5 -27t117 -60q0 -15 -6 -25q-8 -10 -19 -10q-22 3 -79 18q-156 42 -241 42q-190 0 -190 -75q0 -42 128 -70q98 -24 98 -49q0 -33 -79 -64t-79 -61q0 -14 21 -21q19 -8 44 -8l46 1q3 0 7 -2q31 -2 42 -11t11 -28.5t-70 -19.5
q-5 0 -11 -1z" />
    <glyph glyph-name="DDhaHalanth" horiz-adv-x="700" 
d="M413 186q7 -10 19.5 -10t22.5 9.5t10 24t-6 23t-22 8.5t-26.5 -17.5t2.5 -37.5zM309 -220q0 -10 -10.5 -17t-25.5 -7t-24 17t-9 42v131q-1 20 9 34t24.5 14t25.5 -11q10 -12 10 -27v-176zM343 364q-108 -31 -176 -94.5t-68 -139.5t50 -76q24 0 55.5 64.5t68.5 64.5
q20 0 48 -45q52 -83 123 -83q51 0 90 30q37 31 37 70.5t-18 60t-49 32.5q14 -24 14 -44q0 -34 -29.5 -56.5t-64 -22.5t-57.5 22t-23 62t39 67q36 27 93.5 27t104.5 -33q59 -41 59 -117q-2 -58 -55 -104q-60 -55 -156 -55q-83 0 -138 85q-16 24 -22 24q-9 0 -20 -30
q-31 -84 -95 -84t-94 43t-30 101q0 133 129 221q28 19 57 33q-47 23 -47 58.5t47 68.5q29 20 89 46v6q-67 8 -122 33q-80 36 -80 91q0 89 95 123q63 22 175.5 22t229.5 -27t117 -60q0 -15 -6 -25q-8 -10 -19 -10q-22 3 -79 18q-156 42 -241 42q-190 0 -190 -75
q0 -42 128 -70q98 -24 98 -49q0 -33 -79 -64t-79 -61q0 -14 21 -21q19 -8 44 -8l46 1q3 0 7 -2q31 -2 42 -11t11 -28.5t-70 -19.5q-5 0 -11 -1z" />
    <glyph glyph-name="NNaHalanth" horiz-adv-x="823" 
d="M361 392q-37 31 -37 74t40 68q22 14 72 27q-85 5 -140 41.5t-55 91.5q0 82 104 119q70 25 164.5 25t200.5 -25q133 -33 133 -79q0 -13 -11.5 -23t-25.5 -10q-170 70 -297 70q-64 0 -110 -11q-74 -19 -74 -62q0 -59 175 -77q41 -3 54 -5q25 -4 25 -32q0 -14 -6.5 -25
t-17.5 -14.5t-41 -10.5q-113 -28 -113 -66q0 -18 10.5 -26.5t26.5 -14.5q11 2 22 2q104 0 164.5 -70.5t60.5 -172.5q-1 -67 -49 -121q-56 -65 -143.5 -65t-133.5 44q-36 34 -36 80.5t35 80.5q37 34 91 34t80 -30q24 -25 24 -60q0 -11 -13.5 -20t-27.5 -9t-28.5 29t-41 29
t-39 -13.5t-12.5 -33.5q0 -33 38 -52q27 -15 59 -15q53 0 90.5 38.5t37.5 96t-43 106.5t-109 59q-74 0 -106 -73q-14 -32 -28 -32q-10 0 -20 9.5t-15 20.5q-7 37 -38.5 55.5t-66.5 18.5t-63 -11.5t-28 -35.5q0 -31 88 -51t88 -57q0 -33 -63.5 -54t-63.5 -40q0 -29 67.5 -49
t67.5 -42q0 -13 -12.5 -23t-27.5 -10q-45 0 -121 36.5t-76 76.5q0 56 100 86q29 9 29 14.5t-32 12.5q-113 27 -113 103q0 51 43 78.5t102 27.5q122 0 159 -74q6 23 27 41z" />
    <glyph glyph-name="TaHalanth" horiz-adv-x="661" 
d="M378 226q40 0 40 44q0 1 1.5 10.5t-10.5 17.5q-20 0 -35.5 -11.5t-15.5 -35.5v-2q0 -23 20 -23zM99 205q0 -25 64 -25q7 0 21 14t14 25.5t-14 20.5q-11 9 -30.5 9t-38.5 -14q-16 -14 -16 -30zM308 424q105 -5 151 -54q56 -9 96 -47.5t40 -96.5q-2 -100 -92 -166
t-202.5 -66t-191.5 50t-79 132q0 57 46 92q40 32 86 32t75 -22.5t29 -53.5q0 -45 -38 -73q-34 -23 -72 -23t-61 17q16 -41 73 -64t131 -23t145 43q82 49 82 115q0 35 -14 59t-33 28q7 -20 7 -30q0 -42 -35 -73t-73 -31t-63.5 21t-25.5 60q0 76 82 101q-21 12 -58 14l-14 1
h-22q-57 2 -88 37q-26 27 -26 60q0 46 40 71q22 14 72 27q-85 5 -140 41.5t-55 91.5q0 82 104 119q70 25 164.5 25t213.5 -29t119 -75q0 -13 -11 -23t-25 -10q-170 70 -297 70q-64 0 -110 -11q-74 -19 -74 -62q0 -59 175 -77q41 -3 54 -5q25 -4 25 -32q0 -14 -6.5 -25
t-17.5 -14.5t-41 -10.5q-113 -28 -113 -66q0 -18 14 -29q9 -6 29 -14h25v-1z" />
    <glyph glyph-name="ThaHalanth" horiz-adv-x="683" 
d="M334 304q19 0 32 -13t13 -36.5t-24 -36.5q-10 -8 -25.5 -8t-29.5 15t-14 33t14.5 32t33.5 14zM309 -181q0 -10 -10.5 -17t-25.5 -7t-24 17t-9 41v131q-1 20 9 33.5t25 13.5t25.5 -11.5t9.5 -25.5v-175zM352 425q99 -9 172 -66q92 -73 92 -185q0 -68 -50 -120
q-56 -60 -143 -60q-77 0 -132 107q-20 39 -30.5 39t-25.5 -54q-27 -93 -60 -93q-75 0 -115 73q-30 54 -30 107q0 116 83 187q29 25 65 40q-27 20 -27 50q0 51 137 110v6q-68 8 -123 33q-80 36 -80 91q0 89 95 123q64 22 176.5 22t229.5 -27t117 -60q0 -15 -7 -25t-18 -10
q-23 3 -79 18q-156 42 -241 42q-190 0 -190 -75q0 -42 127 -70q99 -24 99 -49q0 -33 -79.5 -64t-79.5 -61q0 -14 21 -21q14 -6 32 -8q13 1 27 1h31q3 0 6 -1zM280 365q-62 -9 -115 -54q-66 -56 -66 -126q0 -49 21 -82q19 -32 39 -32q11 0 29 48q35 95 81 95q32 0 62 -63
q40 -90 108 -90q41 0 75 37q34 33 34 71q0 99 -75 152q-54 38 -128 45q-13 -2 -32.5 -2t-32.5 1z" />
    <glyph glyph-name="DaHalanth" horiz-adv-x="683" 
d="M280 365q-62 -9 -115 -54q-66 -56 -66 -126q0 -49 21 -82q19 -32 39 -32q11 0 29 48q35 95 81 95q32 0 62 -63q40 -90 108 -90q41 0 75 37q34 33 34 71q0 99 -75 152q-54 38 -128 45q-13 -2 -32.5 -2t-32.5 1zM30 185q0 154 146 217q-25 19 -25 49q0 50 137 109v6
q-68 8 -123 33q-80 36 -80 91q0 89 95 123q64 22 176.5 22t229.5 -27t117 -60q0 -15 -7 -25t-18 -10q-23 3 -79 18q-156 42 -241 42q-190 0 -190 -75q0 -42 127 -70q99 -24 99 -49q0 -33 -79.5 -64t-79.5 -61q0 -14 21 -21q14 -6 32 -8q13 1 27 1h31q3 0 6 -1q99 -9 172 -66
q92 -73 92 -185q0 -68 -50 -120q-56 -60 -143 -60q-77 0 -132 107q-20 39 -30.5 39t-25.5 -54q-27 -93 -60 -93q-75 0 -116 80q-29 57 -29 112z" />
    <glyph glyph-name="DhaHalanth" horiz-adv-x="683" 
d="M309 -181q0 -10 -10.5 -17t-25.5 -7t-24 17t-9 41v131q-1 20 9 33.5t25 13.5t25.5 -11.5t9.5 -25.5v-175zM353 424q96 -10 168 -65q95 -73 95 -185q0 -68 -50 -120q-56 -60 -143 -60q-77 0 -132 107q-20 39 -30.5 39t-25.5 -54q-27 -93 -60 -93q-75 0 -116 73
q-29 54 -29 107q0 117 80 187q29 26 66 41q-25 20 -25 50q0 50 137 109v6q-68 8 -123 33q-80 36 -80 91q0 89 95 123q64 22 176.5 22t229.5 -27t117 -60q0 -15 -7 -25t-18 -10q-23 3 -79 18q-156 42 -241 42q-190 0 -190 -75q0 -42 127 -70q99 -24 99 -49q0 -33 -79.5 -64
t-79.5 -61q0 -14 21 -21q13 -6 30 -7h60q3 0 7 -2zM276 366q-69 -6 -123 -58t-54 -123q0 -49 21 -82q19 -32 39 -32q11 0 29 49l8 23q29 71 73 71q32 0 61 -61l8 -15q16 -35 38.5 -56t63 -21t74.5 37q34 33 34 71q0 97 -85 152q-57 36 -132 44q-11 -1 -25.5 -1t-29.5 2z" />
    <glyph glyph-name="NaHalanth" horiz-adv-x="643" 
d="M289 424q140 -10 220 -90q64 -65 64 -136q2 -80 -54 -144q-63 -69 -159 -69q-65 0 -125 35l-9 5q-46 31 -67 31t-40.5 -26t-19.5 -76t25 -94q5 -10 -7.5 -21t-30.5 -11q-26 15 -41 50.5t-15 88t31 104.5q35 62 87 62q30 -3 85 -34l10 -6q62 -37 105 -37q63 0 109.5 44
t46.5 93q0 77 -57 125t-172 48h-7q-10 -1 -18 0q-51 4 -80 37q-26 27 -26 60q0 46 40 71q22 14 72 27q-85 5 -140 41.5t-55 91.5q0 82 104 119q70 25 164.5 25t200.5 -25q133 -33 133 -79q0 -13 -11.5 -23t-25.5 -10q-170 70 -297 70q-64 0 -110 -11q-74 -19 -74 -62
q0 -59 175 -77q41 -3 54 -5q25 -4 25 -32q0 -14 -6.5 -25t-17.5 -14.5t-41 -10.5q-113 -28 -113 -66q0 -18 14 -29q9 -6 29 -14h25v-1z" />
    <glyph glyph-name="PaHalanth" horiz-adv-x="630" 
d="M214 90q0 25 -17 36.5t-32.5 11.5t-32 -16.5t-16.5 -30t12 -23.5q13 -13 30.5 -13t37.5 14q18 14 18 21zM241 366q-145 0 -145 69q0 39 53 69q27 15 101 41q-14 6 -55 20q-165 54 -165 126q0 83 103 122q71 26 164.5 26t200.5 -26q132 -32 132 -78q0 -12 -11 -22t-25 -10
q-170 70 -298 70q-67 0 -113 -10q-79 -18 -79 -62.5t134 -85.5q98 -31 98 -55q0 -36 -18 -49q-8 -5 -43 -15q-104 -30 -104 -63q3 -14 38 -14l71 6q13 0 23 -5q15 -6 15 -20q0 -24 -24 -30q-14 -4 -53 -4zM265 59q-47 -70 -112 -70q-45 0 -75 22t-30 65.5t33 82.5
q42 47 101 47t106 -72q46 -74 105 -74q43 0 87 27.5t44 78.5q0 75 -80 122q-50 28 -50 58q0 14 14.5 25.5t31.5 11.5q71 -45 111 -98q42 -52 42 -101q0 -81 -60 -138q-57 -52 -127 -52q-51 0 -84 12t-57 53z" />
    <glyph glyph-name="PhaHalanth" horiz-adv-x="630" 
d="M214 90q0 25 -17 36.5t-32.5 11.5t-32 -16.5t-16.5 -30t12 -23.5q13 -13 30.5 -13t37.5 14q18 14 18 21zM241 366q-145 0 -145 69q0 39 53 69q27 15 101 41q-14 6 -55 20q-165 54 -165 126q0 83 103 122q71 26 164.5 26t200.5 -26q132 -32 132 -78q0 -12 -11 -22t-25 -10
q-170 70 -298 70q-67 0 -113 -10q-79 -18 -79 -62.5t134 -85.5q98 -31 98 -55q0 -36 -18 -49q-8 -5 -43 -15q-104 -30 -104 -63q3 -14 38 -14l71 6q13 0 23 -5q15 -6 15 -20q0 -24 -24 -30q-14 -4 -53 -4zM223 -47q0 47 40 47q17 0 30 -5t7 -23.5t-5 -66.5l1 -55
q0 -4 -1.5 -22.5t8.5 -41.5q0 -15 -17 -22.5t-32.5 -7.5t-20.5 17q-5 13 -5 48v65q0 45 -5 67zM265 59q-47 -70 -112 -70q-45 0 -75 22t-30 65.5t33 82.5q42 47 101 47t106 -72q46 -74 105 -74q43 0 87 27.5t44 78.5q0 75 -80 122q-50 28 -50 58q0 14 14.5 25.5t31.5 11.5
q71 -45 111 -98q42 -52 42 -101q0 -81 -60 -138q-57 -52 -127 -52q-51 0 -84 12t-57 53z" />
    <glyph glyph-name="BaHalanth" horiz-adv-x="841" 
d="M526 53q108 0 108 118q0 82 -47.5 138.5t-113.5 56.5h-19q-5 0 -9 1q-48 5 -75 34t-27 62q0 46 40 71q22 14 72 27q-85 5 -140 41.5t-55 91.5q0 82 104 119q70 25 164.5 25t213.5 -29t119 -75q0 -13 -11 -23t-25 -10q-170 70 -297 70q-64 0 -110 -11q-74 -19 -74 -62
q0 -59 175 -77q41 -3 54 -5q25 -4 25 -32q0 -14 -6.5 -25t-17.5 -14.5t-41 -10.5q-113 -28 -113 -66q0 -18 14 -29q9 -6 29 -14h25q85 -6 150 -78t65 -170t-52.5 -144.5t-132.5 -46.5q-60 0 -111 41t-69 83q-56 -115 -107 -115q-33 4 -50 46q-11 33 -11 77q0 95 54 240
q1 2 1 7t-3.5 9t-7.5 4q-29 0 -72 -32.5t-43 -59.5q0 -11 19.5 -14t28.5 -10t9 -25.5t-15 -29.5t-43 -11t-48 22t-20 57q0 61 68 113q66 47 140 47q25 0 37 -5q19 -7 19 -29q0 -38 -18 -75q-37 -97 -37 -185v-12q-1 -58 12 -58q7 0 22 24l17 33q36 67 71 67q12 0 19 -9
l18 -33q25 -54 78 -84q29 -16 50 -16z" />
    <glyph glyph-name="BhaHalanth" horiz-adv-x="841" 
d="M308 -47q0 47 38 47q18 0 31 -5t7 -23.5t-4 -61.5l1 -60q0 -5 -1.5 -23t6.5 -41q0 -15 -16.5 -22.5t-31.5 -7.5t-20 17q-5 13 -5 48v65q0 45 -5 67zM526 53q108 0 108 118q0 82 -47.5 138.5t-113.5 56.5h-19q-5 0 -9 1q-48 5 -75 34t-27 62q0 46 40 71q22 14 72 27
q-85 5 -140 41.5t-55 91.5q0 82 104 119q70 25 164.5 25t213.5 -29t119 -75q0 -13 -11 -23t-25 -10q-170 70 -297 70q-64 0 -110 -11q-74 -19 -74 -62q0 -59 175 -77q41 -3 54 -5q25 -4 25 -32q0 -14 -6.5 -25t-17.5 -14.5t-41 -10.5q-113 -28 -113 -66q0 -18 14 -29
q9 -6 29 -14h25q85 -6 150 -78t65 -170t-52.5 -144.5t-132.5 -46.5q-60 0 -111 41t-69 83q-56 -115 -107 -115q-33 4 -50 46q-11 33 -11 77q0 95 54 240q1 2 1 7t-3.5 9t-7.5 4q-29 0 -72 -32.5t-43 -59.5q0 -11 19.5 -14t28.5 -10t9 -25.5t-15 -29.5t-43 -11t-48 22t-20 57
q0 61 68 113q66 47 140 47q25 0 37 -5q19 -7 19 -29q0 -38 -18 -75q-37 -97 -37 -185v-12q-1 -58 12 -58q7 0 22 24l17 33q36 67 71 67q12 0 19 -9l18 -33q25 -54 78 -84q29 -16 50 -16z" />
    <glyph glyph-name="MaHalanth" horiz-adv-x="936" 
d="M209 95q0 29 -19 42t-38 13t-36 -18.5t-17 -35t13 -29t32.5 -12.5t42 15.5t22.5 24.5zM358 -9q-71 0 -110 68q-24 -36 -54.5 -53t-67 -17t-66.5 22t-30 65.5t37.5 86.5t97 43t105.5 -73t105 -73q34 0 69.5 34.5t35.5 97t-35 104.5q-56 70 -195 70h-19q-5 0 -9 1
q-47 5 -74 36q-27 27 -27 60q0 46 40 71q23 14 73 27q-85 5 -140 41.5t-55 91.5q0 82 104 119q70 25 164 25t201 -25q132 -33 132 -79q0 -13 -11 -23t-25 -10q-170 70 -298 70q-63 0 -110 -11q-73 -19 -73 -62q0 -59 175 -77q41 -3 54 -5q24 -4 24 -32q0 -14 -6 -25
t-17.5 -14.5t-41.5 -10.5q-112 -28 -112 -66q0 -18 11 -26.5t31 -16.5h25q126 -3 202 -66q81 -65 81 -175q-1 -11 -2 -21q7 -7 7 -14q5 -38 49.5 -63t103.5 -25t97.5 29.5t38.5 78.5q0 95 -157 192q-76 47 -76 69q0 18 10 26q10 12 30 12t70.5 -42.5t87.5 -72t70 -85
t33 -103.5q5 -85 -55 -129.5t-170.5 -44.5t-174.5 78q-57 -78 -153 -78z" />
    <glyph glyph-name="YaHalanth" horiz-adv-x="1265" 
d="M159 80q51 -35 120 -35t121.5 44.5t52.5 111.5t-47 108.5t-120 41.5t-130 -43.5t-57 -126.5q0 -62 60 -101zM842 66q-64 -75 -181 -75q-45 0 -98 28.5t-72 64.5q-47 -51 -99.5 -77.5t-138 -26.5t-154.5 57t-69 145t64 154q71 75 190.5 75t183.5 -76q53 -64 53 -164
q7 -56 62 -87q43 -24 93 -24t93.5 34.5t43.5 92t-82 114.5q-73 53 -148 65q-7 0 -12 2q-50 4 -78 36q-27 27 -27 60q0 46 40 71q23 14 73 28q-85 5 -140 41t-55 91q0 83 104 119q70 25 164 25t201 -25q132 -33 132 -79q0 -12 -11 -22t-25 -10q-170 70 -298 70
q-63 0 -110 -12q-73 -18 -73 -62q0 -59 175 -76q41 -4 54 -6q24 -4 24 -32q0 -14 -6 -25t-17.5 -14t-41.5 -11q-112 -27 -112 -66q0 -18 11 -26.5t31 -16.5l25 -5q108 -19 189 -88.5t81 -153.5q0 -11 -1 -22q3 -4 3 -8q5 -38 49 -63t103.5 -25t97.5 29.5t38 78.5
q0 95 -156 192q-76 47 -76 69q0 18 10 26q10 12 30 12t77 -49q44 -36 81 -65.5t70 -85t33 -103.5q5 -85 -55 -129.5t-155 -44.5q-127 0 -188 75z" />
    <glyph glyph-name="RaHalanth" horiz-adv-x="658" 
d="M508 201q0 77 -72 120t-173 43l-57 -4q-52 -40 -80 -81q-27 -43 -27 -88q0 -57 57.5 -94t142.5 -37t147 44t62 97zM210 454q0 -22 48 -28h49.5t21.5 -3q83 -10 146 -47q101 -58 101 -165q-1 -93 -79 -155t-207 -62t-200 64q-60 53 -60 135.5t74 157.5q27 27 55 44
q-33 22 -33 54t48 65q29 20 89 46v6q-68 8 -123 33q-80 36 -80 91q0 89 95 123q64 22 176.5 22t229.5 -27t117 -60q0 -15 -7 -25t-18 -10q-23 3 -79 18q-156 42 -241 42q-190 0 -190 -75q0 -42 127 -70q99 -24 99 -49q0 -33 -79.5 -64t-79.5 -61z" />
    <glyph glyph-name="RRaHalanth" horiz-adv-x="833" 
d="M221 346q-60 0 -60 -43q0 -20 16 -31.5t34.5 -11.5t36 12t17.5 33t-13 31t-31 10zM539 215q0 -25 -26 -27h-245q-48 3 -85 -13q-18 -7 -31.5 -7t-24.5 7.5t-11 16.5t7 18q6 13 17 16q-10 8 -27 42q-16 -18 -14 -74q0 -139 92 -139q35 0 64.5 29.5t29.5 63.5
q0 8 11.5 15.5t22 7.5t23 -5.5t12.5 -16.5q5 -43 35 -66.5t77 -23.5q67 0 114.5 45.5t47.5 116.5q0 50 -35 96.5t-95 50.5q-30 -5 -42.5 -18.5t-12.5 -36.5q0 -33 55 -59q41 -20 41 -39zM416 244q-42 23 -42 79q0 31 19 55q-19 9 -33 25q-26 27 -26 60q0 46 40 71
q22 14 72 27q-85 5 -140 41.5t-55 91.5q0 82 104 119q70 25 164.5 25t200.5 -25q133 -33 133 -79q0 -13 -11.5 -23t-25.5 -10q-170 70 -297 70q-64 0 -110 -11q-74 -19 -74 -62q0 -59 175 -77q41 -3 54 -5q25 -4 25 -32q0 -14 -6.5 -25t-17.5 -14.5t-41 -10.5
q-113 -28 -113 -66q0 -18 14 -29q9 -6 29 -14h25v-3q11 2 22 2q80 0 137.5 -56.5t57.5 -152.5q-6 -91 -68 -155t-159 -64q-48 0 -90.5 21t-63.5 66q-6 -35 -45.5 -62t-85.5 -27q-76 0 -116 56q-38 51 -38 142.5t65 155.5q58 55 126 55q50 0 79 -22q34 -22 34 -67
q0 -39 -39 -70h121z" />
    <glyph glyph-name="LaHalanth" horiz-adv-x="721" 
d="M214 283q15 10 15 29t-12 30.5t-30.5 11.5t-33 -9.5t-14.5 -28t12 -31.5q13 -12 32.5 -12t30.5 10zM95 275l4 -47q0 -74 68.5 -122t152 -48t139.5 25q69 31 69 91.5t-48.5 112t-126.5 79.5h-19q-5 0 -9 1q-48 5 -75 34t-27 62q0 46 40 71q22 14 72 27q-85 5 -140 41.5
t-55 91.5q0 82 104 119q70 25 164.5 25t213.5 -29t119 -75q0 -13 -11 -23t-25 -10q-170 70 -297 70q-64 0 -110 -11q-74 -19 -74 -62q0 -59 175 -77q41 -3 54 -5q25 -4 25 -32q0 -14 -6.5 -25t-17.5 -14.5t-41 -10.5q-113 -28 -113 -66q0 -18 14 -29q9 -6 29 -14h25l-1 -3
q80 -20 153 -99q79 -88 69 -161t-79.5 -119.5t-206.5 -46.5q-93 0 -172 52q-101 65 -101 182q0 70 43 122t115 52q42 0 73 -24q37 -26 37 -66.5t-30 -69t-68 -28.5q-72 0 -105 59z" />
    <glyph glyph-name="LLaHalanth" horiz-adv-x="706" 
d="M194 310q0 49 -44 49q-21 0 -36 -12.5t-15 -34t16 -32t33.5 -10.5t31.5 11.5t14 28.5zM428 91q0 32 -27.5 46t-76.5 17q-35 -3 -54.5 -19.5t-19.5 -40.5t26.5 -38.5t59 -14.5t59.5 14q33 15 33 36zM263 318q0 -52 -74 -75l25 -9q79 -25 97 -29q17 8 57 21q133 49 133 87
q0 22 -27.5 36.5t-63.5 16.5h-94q-6 0 -10 2q-46 5 -72 35q-26 27 -26 60q0 46 40 71q22 14 72 27q-85 5 -140 41.5t-55 91.5q0 82 104 119q70 25 164.5 25t213.5 -29t119 -75q0 -13 -11 -23t-25 -10q-170 70 -297 70q-64 0 -110 -11q-74 -19 -74 -62q0 -59 175 -77
q41 -3 54 -5q25 -4 25 -32q0 -14 -6.5 -25t-17.5 -14.5t-41 -10.5q-113 -28 -113 -66q0 -18 14 -29q9 -6 29 -14h78q60 0 110 -21q69 -30 69 -85q0 -43 -74 -85q-55 -33 -132 -54q49 -1 83 -31t34 -67.5t-41 -63t-110 -25.5t-116.5 25t-47.5 76q0 26 16 45.5t42 26.5
q-19 9 -66 22q-143 38 -143 116q0 39 34 68t79.5 29t82.5 -20.5t37 -62.5z" />
    <glyph glyph-name="VaHalanth" horiz-adv-x="620" 
d="M209 95q0 29 -19 42t-38 13t-36 -18.5t-17 -35t13 -29t32.5 -12.5t42 15.5t22.5 24.5zM549 184q-5 -83 -56.5 -138t-128.5 -55t-116 68q-24 -36 -54.5 -53t-67 -17t-66.5 22t-30 65.5t37.5 86.5t97 43t105.5 -73t105 -73q34 0 69.5 34.5t35.5 97t-35 104.5
q-56 70 -195 70h-19q-5 0 -9 1q-47 5 -74 36q-27 27 -27 60q0 46 40 71q23 14 73 27q-85 5 -140 41.5t-55 91.5q0 82 104 119q70 25 164 25t201 -25q132 -33 132 -79q0 -13 -11 -23t-25 -10q-170 70 -298 70q-63 0 -110 -11q-73 -19 -73 -62q0 -59 175 -77q41 -3 54 -5
q24 -4 24 -32q0 -14 -6 -25t-17.5 -14.5t-41.5 -10.5q-112 -28 -112 -66q0 -18 11 -26.5t31 -16.5h25q126 -3 202 -66q81 -65 81 -175z" />
    <glyph glyph-name="ShaHalanth" horiz-adv-x="810" 
d="M509 139q-11 9 -15 11q-30 -2 -53 -21t-23 -38.5t21 -32t46.5 -12.5t48.5 12q25 11 25 28t-50 53zM421 366q-5 0 -9 1q-47 5 -74 36q-27 27 -27 60q0 46 40 71q23 14 73 27q-85 5 -140 41.5t-55 91.5q0 82 104 119q70 25 164 25t201 -25q132 -33 132 -79q0 -13 -11 -23
t-25 -10q-170 70 -298 70q-63 0 -110 -11q-73 -19 -73 -62q0 -59 175 -77q41 -3 54 -5q24 -4 24 -32q0 -14 -6 -25t-17.5 -14.5t-41.5 -10.5q-112 -28 -112 -66q0 -18 11 -26.5t31 -16.5h25q98 -8 165.5 -43.5t67.5 -78.5t-45.5 -75t-92.5 -44l18 -15q59 -48 59 -85.5
t-38 -65.5q-41 -32 -100.5 -32t-100 27t-40.5 73q0 33 26 61.5t69 42.5q-50 36 -101.5 47.5t-107 11.5t-96 -32t-40.5 -76l5 -55q2 -8 -5 -17q-10 -9 -29.5 -9t-29.5 19t-10 49q0 81 54.5 131.5t161.5 50.5q130 0 262 -89l12 4q100 35 100 70q0 24 -49.5 44t-124.5 27h-25z
" />
    <glyph glyph-name="SSaHalanth" horiz-adv-x="630" 
d="M214 90q0 25 -17 36.5t-32.5 11.5t-32 -16.5t-16.5 -30t12 -23.5q13 -13 30.5 -13t37.5 14q18 14 18 21zM241 366q-145 0 -145 69q0 39 53 69q27 15 101 41q-14 6 -55 20q-165 54 -165 126q0 83 103 122q71 26 164.5 26t200.5 -26q132 -32 132 -78q0 -12 -11 -22t-25 -10
q-170 70 -298 70q-67 0 -113 -10q-79 -18 -79 -62.5t134 -85.5q98 -31 98 -55q0 -36 -18 -49q-8 -5 -43 -15q-104 -30 -104 -63q3 -14 38 -14l71 6q13 0 23 -5q15 -6 15 -20q0 -24 -24 -30q-14 -4 -53 -4zM265 59q-47 -70 -112 -70q-45 0 -75 22t-30 65.5t33 82.5
q42 47 101 47t106 -72q46 -74 105 -74q43 0 87 27.5t44 78.5q0 75 -80 122q-50 28 -50 58q0 14 14.5 25.5t31.5 11.5q71 -45 111 -98q42 -52 42 -101q0 -11 -3 -29v-194q-6 -48 -1 -67t6 -30q5 -24 -8 -37.5t-33 -6.5q-35 16 -35 103l10 120q-53 -49 -123 -49q-51 0 -84 12
t-57 53z" />
    <glyph glyph-name="SaHalanth" horiz-adv-x="630" 
d="M241 366q-145 0 -145 69q0 39 53 69q27 15 101 41q-14 6 -55 20q-165 54 -165 126q0 83 103 122q71 26 164.5 26t200.5 -26q132 -32 132 -78q0 -12 -11 -22t-25 -10q-170 70 -298 70q-67 0 -113 -10q-79 -18 -79 -62.5t134 -85.5q98 -31 98 -55q0 -36 -18 -49
q-8 -5 -43 -15q-104 -30 -104 -63q3 -14 38 -14l71 6q13 0 23 -5q15 -6 15 -20q0 -24 -24 -30q-14 -4 -53 -4zM86 -172q-56 10 -56 112q0 71 37 132t81 61q23 -2 87 -35q71 -42 113 -42q62 0 106 39.5t44 87.5t-13.5 71.5t-60.5 65.5q-16 18 -16 26q0 23 32 44q9 4 15 2
t19 -11q55 -37 80.5 -79t25.5 -96q0 -91 -64.5 -156t-155.5 -65q-72 0 -139 45q-40 26 -64 26t-41 -26.5t-17 -68t24 -100.5q2 -33 -37 -33z" />
    <glyph glyph-name="HaHalanth" horiz-adv-x="840" 
d="M133 129q-15 -15 -15 -32t11.5 -26.5t33 -9.5t52.5 35q0 17 -13 30.5t-33 17.5q-21 0 -36 -15zM241 366q-145 0 -145 69q0 39 53 69q27 15 101 41q-14 6 -55 20q-165 54 -165 126q0 83 103 122q71 26 164.5 26t200.5 -26q132 -32 132 -78q0 -12 -11 -22t-25 -10
q-170 70 -298 70q-67 0 -113 -10q-79 -18 -79 -62.5t134 -85.5q98 -31 98 -55q0 -36 -18 -49q-8 -5 -43 -15q-104 -30 -104 -63q3 -14 38 -14l71 6q13 0 23 -5q15 -6 15 -20q0 -24 -24 -30q-14 -4 -53 -4zM81 24q-32 30 -32 75t35 79.5t84 34.5q55 0 112 -74q56 -73 114 -73
q41 0 71 20q29 20 29 44q0 49 -58 86q-51 38 -51 88.5t57 87.5t147.5 37t160.5 -48t70 -117q0 -43 -33 -73t-79.5 -30t-79 25t-32.5 60q0 18 13.5 30t27 12t22.5 -9.5t11.5 -23.5t13.5 -23t27.5 -9t28 11.5t11.5 29.5q0 40 -51 67q-50 29 -112 29t-98 -15.5t-36 -38.5
q0 -12 15.5 -30t40.5 -35q53 -35 53 -107q0 -55 -49 -94.5t-119 -39.5q-66 0 -129 65q-13 -32 -42.5 -51t-69.5 -19t-73 29z" />
    <glyph glyph-name="KshaHalanth" horiz-adv-x="711" 
d="M681 -371q0 -24 -46 -24q-25 0 -32.5 21.5t-7.5 68t21 121.5q-16 -17 -49.5 -31.5t-61.5 -14.5q-77 0 -127 74q-20 30 -33 30q-9 0 -32 -41q-62 -114 -128 -114t-110.5 54.5t-44.5 121t10 93.5t36 27q14 0 23.5 -7t9.5 -22t-7 -39t-7 -56t24.5 -64.5t62.5 -32.5t76 71
q43 85 95 85q31 0 58 -46q39 -65 103 -65q44 0 76.5 34.5t32.5 84.5t-13 82q-11 37 -11 51t11 24t25 10q56 0 56 -119l-25 -290q0 -27 7.5 -52t7.5 -35zM125 449q0 52 136 111v6q-67 8 -122 33q-80 36 -80 91q0 89 95 123q64 22 176.5 22t229 -27t116.5 -60q0 -15 -6.5 -25
t-18.5 -10q-22 3 -78 18q-157 42 -242 42q-190 0 -190 -75q0 -42 128 -70q99 -24 99 -49q0 -33 -79.5 -64t-79.5 -61q0 -14 21 -21q19 -8 44 -8l46 1q7 0 16 -11q55 15 112 15q20 0 35.5 -11t15.5 -23.5t-12 -21.5t-18 -9q-114 0 -194 -35.5t-80 -79.5q0 -19 55 -19l150 10
q85 0 126 -26q35 -24 35 -64q2 -75 -87.5 -119t-194.5 -44q-74 0 -104 7q-47 10 -47 44q0 16 8 24q10 8 26.5 8t62 -10t95 -10t111.5 29.5t62 68.5q0 25 -43 32q-25 5 -84 5l-138 -11q-102 0 -102 69t100 126q-17 3 -36 10q-65 24 -65 69z" />
    <glyph glyph-name="KaAA" horiz-adv-x="879" 
d="M233 175q-102 0 -102 69t99 127q-200 -1 -200 38q0 40 59 40q40 -16 222 -16q60 0 179.5 15.5t179.5 15.5q98 0 143.5 -29t45.5 -91q0 -46 -32.5 -72t-83 -26t-80 20t-29.5 44.5t16 38.5t36 14q39 0 47 -27q-7 -7 -7 -16.5t8 -14.5q6 -6 20 -6t22 11q10 11 10 31
q0 34 -30 48q-28 15 -89.5 15t-162.5 -14q-1 -8 -12.5 -16.5t-17.5 -8.5q-113 0 -193.5 -36t-80.5 -79q0 -19 55 -19l150 10q149 0 149 -96q1 -75 -88 -119q-77 -38 -166.5 -38t-119.5 7q-47 10 -47 44q0 16 8 24q10 8 24 8t62.5 -10t98 -10t100.5 25q59 28 59 67
q0 25 -31 34t-81 9z" />
    <glyph glyph-name="KaI" horiz-adv-x="474" 
d="M120 494q0 -71 83 -71q35 0 63.5 20t28.5 51q0 66 -96 66q-29 0 -54 -18t-25 -48zM131 175q-101 0 -101 70.5t109 131.5q-26 9 -46 26q-44 35 -44 89t52 90t114.5 36t106.5 -33.5t44 -76.5t-14 -72q19 0 35 -13.5t16 -26.5t-12 -22t-18 -9q-113 0 -193.5 -36t-80.5 -79
q0 -19 55 -19l150 10q149 0 149 -96q1 -75 -88 -119q-77 -38 -166.5 -38t-119.5 7q-48 10 -48 43t38 33q9 0 57.5 -10t98 -10t100.5 25q59 28 59 67q0 25 -31.5 34t-81.5 9z" />
    <glyph glyph-name="KaII" horiz-adv-x="513" 
d="M311 543q-23 17 -62.5 17t-64.5 -18t-25 -53t23.5 -50.5t59.5 -15.5t64 20t28 51.5t-23 48.5zM254 903q62 0 113.5 -36.5t51.5 -99t-34 -62.5q-16 0 -28 9.5t-12 20.5l3 39q0 25 -27 47.5t-81.5 22.5t-97 -29.5t-42.5 -64.5q0 -46 70 -87q50 -29 118 -48
q50 -9 83.5 -39.5t33.5 -70.5t-13 -69q19 0 34 -13.5t15 -26.5t-11.5 -22t-18.5 -9q-112 0 -192.5 -36t-80.5 -79q0 -19 55 -19l150 10q148 0 148 -96q2 -75 -81.5 -116t-188.5 -41q-73 0 -103 7q-48 10 -48 43t38 33q8 0 57 -10t98.5 -10t100.5 25q59 28 59 67
q0 43 -113 43l-140 -11q-101 0 -101 71t111 132q-25 9 -46 25q-46 35 -46 85q0 71 80 110q-138 51 -138 147q0 76 62.5 117t161.5 41z" />
    <glyph glyph-name="KaU" horiz-adv-x="843" 
d="M131 175q-101 0 -101 69.5t101 128.5q-21 5 -38 17q-38 24 -38 58q0 51 101 112q79 48 117 85q26 26 41 83q10 38 52 38q19 -1 29 -15q10 -11 10 -31q0 -30 -46 -91q-20 -25 -115.5 -90t-95.5 -89q0 -10 11 -17.5t26 -7.5h16q16 0 28 -8q61 19 122 19q20 0 36 -13.5
t16 -26.5t-12 -22t-18 -9q-113 0 -193.5 -36t-80.5 -79q0 -19 55 -19l150 10q122 0 144 -64l2 -2q10 -7 10 -20q6 -40 50 -67t103.5 -27t97.5 29.5t38 78.5q0 95 -156 192q-77 47 -77 69q0 18 10 26q10 12 30 12t71 -42.5t78 -64.5q46 -37 79.5 -92.5t33.5 -103.5
q5 -85 -57 -130q-58 -44 -154 -44q-125 0 -185 75q-21 -22 -57 -40q-77 -38 -166.5 -38t-119.5 7q-48 10 -48 43t38 33q9 0 57.5 -10t98 -10t100.5 25q59 28 59 67q0 25 -31.5 34t-81.5 9z" />
    <glyph glyph-name="KaUU" horiz-adv-x="966" 
d="M99 250q0 -19 55 -19l150 10q132 0 146 -74q8 -8 8 -18q0 -55 53 -79q33 -15 76.5 -15t73 15.5t29.5 39.5q0 48 -102 109.5t-102 116.5t64 87q54 25 118 25q112 0 188 -38q90 -42 90 -124q-8 -40 -36.5 -67.5t-72.5 -27.5t-72 20q-29 23 -29 64q0 19 8.5 29t27.5 10
t26 -6q7 -9 7 -28v-21q0 -20 23 -20t37 12q13 13 13 28q0 52 -61 81.5t-138 29.5q-124 0 -124 -52q0 -20 70 -68q134 -90 134 -162q-10 -54 -50.5 -84t-123 -30t-137.5 44q-17 12 -28 26q-21 -21 -55 -38q-77 -38 -166.5 -38t-119.5 7q-48 10 -48 43t38 33q9 0 57.5 -10
t98 -10t100.5 25q59 28 59 67q0 25 -31.5 34t-81.5 9l-140 -11q-101 0 -101 69.5t101 128.5q-21 5 -38 17q-38 24 -38 58q0 51 101 112q79 48 117 85q26 26 41 83q10 38 52 38q19 -1 29 -15q10 -11 10 -31q0 -30 -46 -91q-20 -25 -115.5 -90t-95.5 -89q0 -10 11 -17.5
t26 -7.5h16q16 0 28 -8q61 19 122 19q20 0 36 -13.5t16 -26.5t-12 -22t-18 -9q-113 0 -193.5 -36t-80.5 -79z" />
    <glyph glyph-name="KaE" horiz-adv-x="576" 
d="M153 408q0 28 30 28l185 -3q42 0 80 23q38 27 38 60.5t-32 49.5q-26 14 -70.5 14t-133.5 -9.5t-128 -9.5t-62 9q-30 11 -30 34q0 12 6.5 21.5t19.5 9.5l64 -1q45 0 133 8t133 8q70 0 120 -39.5t50 -95.5q0 -72 -56 -109q3 -7 3 -15t-12 -17t-18 -9q-113 0 -193.5 -36
t-80.5 -79q0 -19 55 -19l150 10q149 0 149 -96q1 -75 -88 -119q-77 -38 -166.5 -38t-119.5 7q-48 10 -48 43t38 33q9 0 57.5 -10t98 -10t100.5 25q59 28 59 67q0 25 -31.5 34t-81.5 9l-140 -11q-101 0 -101 70t104 129h-19q-25 0 -43.5 9.5t-18.5 24.5z" />
    <glyph glyph-name="KaEE" horiz-adv-x="708" 
d="M178 405q0 29 30 29l160 -4q42 0 80 25t38 59t-32 50q-26 14 -71 14t-136 -9.5t-130 -9.5q-87 0 -87 42q0 13 6.5 22.5t19.5 9.5l45 -2q48 0 142.5 8.5t141.5 8.5q-10 27 -10 63q0 53 44.5 84t111.5 31t122 -28q75 -40 75 -119q0 -36 -14 -60q-16 -30 -48 -30
q-16 0 -29 7t-13 17.5t14.5 29t14.5 45.5q0 38 -38.5 57.5t-76.5 19.5t-65 -17t-27 -53q0 -38 15 -59q40 -15 68 -50q27 -36 27 -73q0 -72 -56 -109q3 -6 3 -13.5t-12 -16.5t-18 -9q-113 0 -193.5 -36t-80.5 -79q0 -19 55 -19l150 10q149 0 149 -96q1 -75 -88 -119
q-77 -38 -166.5 -38t-119.5 7q-48 10 -48 43t38 33q9 0 57.5 -10t98 -10t100.5 25q59 28 59 67q0 25 -31.5 34t-81.5 9l-140 -11q-101 0 -101 69t100 128q-19 1 -35.5 9.5t-16.5 23.5z" />
    <glyph glyph-name="KaO" horiz-adv-x="791" 
d="M691 435q14 15 14 39t-15 41.5t-34.5 17.5t-31 -17t-11.5 -41t13.5 -40t33 -16t31.5 16zM238 581q120 0 188 -66q23 35 69 55.5t114.5 20.5t115.5 -32q46 -33 46 -81.5t-31 -79t-76 -30.5t-78 28q-32 29 -32 70q0 24 10 43q9 19 25 29q-50 0 -85.5 -25t-35.5 -62
q0 -13 -11.5 -22.5t-26.5 -9.5q-27 0 -36 26q-8 34 -51 56q-44 22 -98 22t-87 -18.5t-33 -41t17.5 -36.5t41.5 -14h22v-5q73 28 145 28q20 0 36 -13.5t16 -26.5t-12 -22t-18 -9q-113 0 -193.5 -36t-80.5 -79q0 -19 55 -19l150 10q149 0 149 -96q1 -75 -88 -119
q-77 -38 -166.5 -38t-119.5 7q-48 10 -48 43t38 33q9 0 57.5 -10t98 -10t100.5 25q59 28 59 67q0 25 -31.5 34t-81.5 9l-140 -11q-101 0 -101 70q0 65 89 120q-16 8 -30 21q-35 33 -35 80.5t53.5 81t130.5 33.5z" />
    <glyph glyph-name="KaOO" horiz-adv-x="708" 
d="M613 425q13 -14 27 -14t21.5 11t7.5 27.5t-16.5 37.5t-43.5 38q-29 -64 4 -100zM566 398q-31 28 -31 70.5t10 60.5q-39 4 -67.5 -18.5t-28.5 -57.5q0 -13 -10 -23q-11 -9 -24.5 -9t-21.5 8q-10 7 -13 20q-6 31 -45 51t-89 20t-83 -16t-33 -38.5t15 -39.5q16 -16 38 -16
h27q71 26 141 26q20 0 36 -13.5t16 -26.5t-12 -22t-18 -9q-113 0 -193.5 -36t-80.5 -79q0 -19 55 -19l150 10q149 0 149 -96q1 -75 -88 -119q-77 -38 -166.5 -38t-119.5 7q-48 10 -48 43t38 33q9 0 57.5 -10t98 -10t100.5 25q59 28 59 67q0 25 -31.5 34t-81.5 9l-140 -11
q-101 0 -101 70q0 65 89 120q-60 37 -60 98q0 48 53.5 82t130.5 34q108 0 170 -60q28 34 68 51.5t84 14.5q21 75 53 121q31 48 58 48q15 0 27 -11q10 -12 10 -27q-67 -42 -90 -138q47 -19 76 -51t29 -67.5t-26 -63.5t-66 -28t-70 30z" />
    <glyph glyph-name="KaAU" horiz-adv-x="771" 
d="M589 504q-11 -11 -11 -26t13 -28q15 -11 36 -11t36 14.5t15 37.5t-26.5 41t-62.5 18l-268 -11q18 -6 28 -26q11 -19 11 -40.5t-7 -36.5h10q20 0 35.5 -13.5t15.5 -26.5t-12 -22t-18 -9q-113 0 -193.5 -36t-80.5 -79q0 -19 55 -19l150 10q149 0 149 -96q1 -75 -88 -119
q-77 -38 -166.5 -38t-119.5 7q-47 10 -47 44q0 16 8 24q10 8 24 8t62.5 -10t98 -10t100.5 25q59 28 59 67q0 25 -31 34t-81 9l-140 -11q-102 0 -102 70q0 73 113 134q10 6 21 11v35h20q41 0 70 14.5t29 37t-38 40t-92 17.5l-96 -3q-15 0 -27 10q-11 12 -11 27t24.5 25.5
t59.5 10.5l254 -3l247 4q56 0 96 -28t40 -67q0 -54 -40.5 -92.5t-93.5 -38.5t-87 25t-34 60q0 20 17.5 34.5t37.5 14.5t38 -9z" />
    <glyph glyph-name="KhaAA" horiz-adv-x="994" 
d="M99 303q0 -35 31 -35q16 0 30 11.5t14 28.5t-11 27q-12 10 -27.5 10t-26 -12t-10.5 -30zM124 93q0 -34 51 -34q72 0 109 39q-15 16 -44 25.5t-54.5 9.5t-43.5 -13.5t-18 -26.5zM301 -2q15 16 35 16t20 -19v-167q-18 -23 -50 -23q-18 0 -18 15v138q0 23 13 40zM848 438
l-5 -29q0 -9 8 -14.5t21.5 -5.5t25.5 13.5t12 33.5q0 35 -73.5 59.5t-171 24.5t-162.5 -20.5t-65 -50.5q0 -14 21 -24q13 -1 28.5 -10t47.5 -36l49 -36q60 -44 85 -80q24 -38 24 -85q0 -75 -57 -127.5t-129.5 -52.5t-146.5 42l-29 16q-57 -63 -153 -63q-52 0 -87.5 28
t-35.5 70t34.5 69.5t92.5 27.5t141 -48q18 35 18 88t-36 92q-37 38 -99 38q20 -18 20 -55.5t-31.5 -62.5t-72.5 -25t-66.5 24t-25.5 57q0 53 45 85t129 32t145 -54.5t61 -137.5q0 -55 -34 -113l20 -10q54 -29 108.5 -29t86.5 29q33 27 33 78q0 29 -52.5 86t-118.5 102
q-10 0 -20 2h-8v2q-22 5 -40 18q-31 24 -31 57q0 56 91 95q90 40 219 40t219.5 -43.5t90.5 -103.5q0 -41 -32.5 -70.5t-75.5 -29.5t-73 25q-29 25 -29 62q0 20 13 33.5t30 13.5t29 -7q12 -9 12 -20z" />
    <glyph glyph-name="KhaI" horiz-adv-x="714" 
d="M109 330q-10 -11 -10 -28.5t5.5 -27t22 -9.5t30 12t13.5 29t-11 27t-26 10t-24 -13zM335 591q0 -20 16.5 -33t39 -13t36 14t13.5 33t-13.5 33.5t-35.5 14.5t-40 -14q-16 -15 -16 -35zM111 93q0 -34 64 -34q72 0 109 39q-15 16 -44 25.5t-56.5 9.5t-50 -13.5t-22.5 -26.5z
M301 -2q15 16 35 16t20 -19v-167q-18 -23 -50 -23q-18 0 -18 15v138q0 23 13 40zM331 56q-57 -63 -172 -63q-49 0 -83 23q-33 25 -33 59q0 49 37 78q39 28 105 28t138 -41q18 35 18 88t-36 92q-37 38 -99 38q33 -29 33 -61t-35.5 -57t-79 -25t-69 24t-25.5 57q0 53 45 85
t129 32t145 -54.5t61 -137.5q0 -55 -34 -113q9 -4 20 -10q54 -29 107 -29t88 32q34 33 34 93.5t-38.5 107t-92.5 46.5q-35 0 -50 7q-15 9 -15 26t9.5 25.5t47.5 23.5q79 33 79 118q0 43 -32 77q-33 34 -74 34q22 -11 36 -30.5t14 -40.5q0 -47 -36.5 -77t-87.5 -30t-85 31
t-34 73q0 64 47 99t126.5 35t137 -49t57.5 -106.5t-29.5 -106.5t-68.5 -62q62 -6 110 -68t48 -140.5t-52 -133.5t-130 -55t-152 42z" />
    <glyph glyph-name="KhaII" horiz-adv-x="714" 
d="M99 300q0 -35 27 -35q15 0 29.5 12.5t14.5 29t-11 26.5t-25.5 10t-24.5 -12.5t-10 -30.5zM358 626q-23 -13 -23 -33t17 -34t39 -14t35.5 14t13.5 37.5t-30 44.5q-31 0 -52 -15zM284 98q-35 35 -104 35q-26 0 -44 -12t-18 -27t16.5 -25t46 -10t58.5 10t45 29zM206 358
q33 -31 33 -62t-35.5 -56t-79 -25t-69 24t-25.5 57q0 49 48 83t116 34q90 0 152 -57q64 -56 64 -135q0 -55 -34 -113q88 -39 131.5 -39t81.5 35q36 35 36 93t-38.5 104.5t-92.5 46.5q-28 0 -46.5 10t-18.5 22q0 25 67 56q32 15 50.5 45t18.5 71.5t-31 74t-75 32.5
q22 -11 36 -30.5t14 -40.5q0 -44 -37.5 -75.5t-87.5 -31.5t-84 31t-34 71.5t29 74t76 48.5q-17 33 -17 63q0 57 45 98t110.5 41t113.5 -39t48 -94q0 -15 -11 -25t-26.5 -10t-31.5 14.5t-24.5 38t-28.5 38.5t-49 15t-53 -25.5t-24 -53t8 -48.5h14q79 0 134 -47.5t55 -110
t-28 -107.5q-26 -45 -70 -59q68 -7 113 -65.5t45 -138.5t-54 -136.5t-126.5 -56.5t-182.5 58q-57 -63 -172 -63q-45 0 -78 27q-32 29 -32 67.5t38.5 66t101 27.5t134.5 -41q18 35 18 85.5t-40 90.5q-38 42 -95 42zM356 -172q-15 -23 -50 -23q-7 0 -12.5 4.5t-5.5 10.5v138
q0 23 14 39.5t36 16.5q7 0 13 -5q5 -6 5 -14v-167z" />
    <glyph glyph-name="KhaU" horiz-adv-x="1080" 
d="M156 275q14 13 14 30.5t-11 28.5q-13 11 -31 11t-32.5 -13t-14.5 -31t10 -28t30 -10t35 12zM118 93q0 -37 55 -37q79 0 111 40l-1 3q-17 16 -45.5 26t-55 10t-44.5 -14q-20 -13 -20 -28zM356 -171q-7 -9 -23.5 -15t-27 -6t-14.5 2q-3 4 -3 10v138q0 23 13 38q14 15 29 15
t21 -3q5 -5 5 -13v-166zM424 386q0 39 45 39q84 0 154.5 -73.5t70.5 -161.5q0 -15 -2 -29q6 -6 6 -12q5 -38 49 -63t103.5 -25t97.5 29.5t38 78.5q0 95 -156 192q-76 47 -76 69q0 18 10 26q10 12 30 12t77 -49q44 -36 81 -65.5t70 -85t33 -103.5q5 -85 -55 -129.5
t-155.5 -44.5t-155.5 45q-23 17 -37 37q-7 -9 -16 -17q-58 -56 -131.5 -56t-146.5 43l-29 16q-60 -64 -154 -64q-52 0 -89 27t-37 68t35 69q36 26 100.5 26t138.5 -46q18 32 18 88t-40 94q-38 39 -105 39q25 -21 25 -57.5t-31 -60.5t-71 -24t-65 22q-24 23 -24 56
q0 52 44 83t117 31q95 0 157 -53.5t62 -135.5q0 -45 -39 -112q68 -43 126 -43t93 34t35 86.5t-39.5 95.5t-100.5 58q-35 9 -49 19q-12 10 -12 27z" />
    <glyph glyph-name="KhaUU" horiz-adv-x="1200" 
d="M156 275q14 13 14 30.5t-11 28.5q-13 11 -31 11t-32.5 -13t-14.5 -31t10 -28t30 -10t35 12zM118 93q0 -37 55 -37q79 0 111 40l-1 3q-17 16 -45.5 26t-55 10t-44.5 -14q-20 -13 -20 -28zM356 -171q-7 -9 -23.5 -15t-27 -6t-14.5 2q-3 4 -3 10v138q0 23 13 38q14 15 29 15
t21 -3q5 -5 5 -13v-166zM913 390q-124 0 -124 -52q0 -20 70 -68q134 -90 134 -162q0 -52 -42 -83t-124.5 -31t-136.5 44q-22 18 -35 38q-9 -10 -19 -20q-58 -56 -131.5 -56t-146.5 43l-29 16q-60 -64 -154 -64q-52 0 -89 27t-37 68t35 69q36 26 100.5 26t138.5 -46
q18 32 18 88t-40 94q-38 39 -105 39q25 -21 25 -57.5t-31 -60.5t-71 -24t-65 22q-24 23 -24 56q0 52 44 83t117 31q95 0 157 -53.5t62 -135.5q0 -45 -39 -112q68 -43 126 -43t93 34t35 86.5t-39.5 95.5t-100.5 58q-35 9 -49 19q-12 10 -12 27q0 39 45 39q84 0 154.5 -73.5
t70.5 -161.5q0 -20 -4 -38q1 -2 1 -3q0 -55 60 -79q37 -15 77.5 -15t69.5 16q26 17 26 39q0 48 -98 106q-106 65 -106 120t64 87q54 25 117 25q113 0 189 -38q90 -42 90 -124q-9 -40 -37 -67.5t-72.5 -27.5t-72.5 21.5t-28 62.5q0 19 8 29t34.5 10t26.5 -34v-21
q0 -20 23 -20t37 12q12 13 12 28q0 52 -60.5 81.5t-137.5 29.5z" />
    <glyph glyph-name="KhaE" horiz-adv-x="713" 
d="M99 303q0 -35 31 -35q16 0 30 11.5t14 28.5t-11 27q-12 10 -27.5 10t-26 -12t-10.5 -30zM124 93q0 -34 51 -34q72 0 109 39q-15 16 -44 25.5t-54.5 9.5t-43.5 -13.5t-18 -26.5zM301 -2q15 16 35 16t20 -19v-167q-18 -23 -50 -23q-18 0 -18 15v138q0 23 13 40zM374 401
q0 29 30 29q15 0 70.5 -2.5t63.5 -1.5q46 10 63 30t17 42q0 45 -27 60.5t-75 15.5l-348 -15q-35 0 -54 6q-26 10 -26 33q0 31 26 31l89 -1l335 16q61 0 105.5 -43t44.5 -105t-53 -97q-36 -24 -87 -30l36 -26q60 -44 85 -80q24 -38 24 -85q0 -75 -57 -127.5t-129.5 -52.5
t-146.5 42l-29 16q-57 -63 -153 -63q-52 0 -87.5 28t-35.5 70t34.5 69.5t92.5 27.5t141 -48q18 35 18 88t-36 92q-37 38 -99 38q20 -18 20 -55.5t-31.5 -62.5t-72.5 -25t-66.5 24t-25.5 57q0 53 45 85t129 32t145 -54.5t61 -137.5q0 -55 -34 -113l20 -10q54 -29 108.5 -29
t86.5 29q33 27 33 78q0 29 -53 86.5t-121 103.5h-25v2q-18 2 -34.5 10t-16.5 23z" />
    <glyph glyph-name="KhaEE" horiz-adv-x="855" 
d="M99 303q0 -35 31 -35q16 0 30 11.5t14 28.5t-11 27q-12 10 -27.5 10t-26 -12t-10.5 -30zM124 93q0 -34 51 -34q72 0 109 39q-15 16 -44 25.5t-54.5 9.5t-43.5 -13.5t-18 -26.5zM301 -2q15 16 35 16t20 -19v-167q-18 -23 -50 -23q-18 0 -18 15v138q0 23 13 40zM89 596
q0 32 26 32l64 -2l351 17q-9 30 -9 63q0 53 44.5 84t111.5 31t122 -28q76 -40 76 -119q0 -36 -15.5 -63t-46.5 -27q-17 0 -30 7t-13 17.5t14.5 29t14.5 45.5q0 38 -43 60q-33 17 -71.5 17t-65 -17t-26.5 -49q0 -54 27 -76q31 -20 50 -51.5t19 -66.5q0 -67 -53 -102
q-35 -24 -87 -30l35 -25q60 -44 85 -80q24 -38 24 -85q0 -75 -57 -127.5t-129.5 -52.5t-146.5 42l-29 16q-57 -63 -153 -63q-52 0 -87.5 28t-35.5 70t34.5 69.5t92.5 27.5t141 -48q18 35 18 88t-36 92q-37 38 -99 38q20 -18 20 -55.5t-31.5 -62.5t-72.5 -25t-66.5 24
t-25.5 57q0 53 45 85t129 32t145 -54.5t61 -137.5q0 -55 -34 -113l20 -10q54 -29 108.5 -29t86.5 29q33 27 33 78q0 29 -53 86.5t-121 103.5l-25 1q-17 2 -33.5 10t-16.5 23q0 29 30 29l126 -5q33 0 58 20.5t30 51.5q0 45 -27 61t-74 16l-349 -15q-80 0 -80 38z" />
    <glyph glyph-name="KhaO" horiz-adv-x="994" 
d="M99 303q0 -35 31 -35q16 0 30 11.5t14 28.5t-11 27q-12 10 -27.5 10t-26 -12t-10.5 -30zM863 408q45 0 45 53q0 29 -17 45q-13 15 -32.5 15t-32.5 -22q-10 -20 -10 -42t14 -35.5t33 -13.5zM124 93q0 -34 51 -34q72 0 109 39q-15 16 -44 25.5t-54.5 9.5t-43.5 -13.5
t-18 -26.5zM301 -2q15 16 35 16t20 -19v-167q-18 -23 -50 -23q-18 0 -18 15v138q0 23 13 40zM685 434q0 -26 -41 -26q-34 0 -36 15q-22 47 -57 75q-36 28 -77 28q-23 0 -39.5 -13t-16.5 -33.5t10 -37t23 -16.5q30 -7 41 -13.5t43 -33.5l49 -36q60 -44 85 -80q24 -38 24 -85
q0 -75 -57 -127.5t-129.5 -52.5t-146.5 42l-29 16q-57 -63 -153 -63q-52 0 -87.5 28t-35.5 70t34.5 69.5t92.5 27.5t141 -48q18 35 18 88t-36 92q-37 38 -99 38q20 -18 20 -55.5t-31.5 -62.5t-72.5 -25t-66.5 24t-25.5 57q0 53 45 85t129 32t145 -54.5t61 -137.5
q0 -55 -34 -113l20 -10q54 -29 108.5 -29t86.5 29q33 27 33 78q0 29 -53 86.5t-121 103.5l-25 4q-28 7 -54.5 33t-26.5 74.5t39.5 77t98 28.5t95.5 -17.5t64 -55.5q23 35 68 55t95 20q89 0 129.5 -34.5t40.5 -83.5t-29 -80t-83 -31t-82 34q-22 26 -22 70.5t35 65.5
q-108 -2 -108 -92z" />
    <glyph glyph-name="KhaOO" horiz-adv-x="983" 
d="M99 303q0 -35 31 -35q16 0 30 11.5t14 28.5t-11 27q-12 10 -27.5 10t-26 -12t-10.5 -30zM851 408q45 0 45 53q0 29 -15 44.5t-34 15.5t-32 -22q-10 -20 -10 -42t14 -35.5t32 -13.5zM124 93q0 -34 51 -34q72 0 109 39q-15 16 -44 25.5t-54.5 9.5t-43.5 -13.5t-18 -26.5z
M301 -2q15 16 35 16t20 -19v-167q-18 -23 -50 -23q-18 0 -18 15v138q0 23 13 40zM781 526q-120 -2 -120 -92q0 -13 -12.5 -19.5t-27.5 -6.5q-35 0 -37 15q-21 47 -56 75q-37 28 -78 28q-22 0 -40 -12q-16 -14 -16 -34.5t13.5 -37t39.5 -18t41 -10t47 -35.5l49 -36
q60 -44 85 -80q24 -38 24 -85q0 -75 -57 -127.5t-129.5 -52.5t-146.5 42l-29 16q-57 -63 -153 -63q-52 0 -87.5 28t-35.5 70t34.5 69.5t92.5 27.5t141 -48q18 35 18 88t-36 92q-37 38 -99 38q20 -18 20 -55.5t-31.5 -62.5t-72.5 -25t-66.5 24t-25.5 57q0 53 45 85t129 32
t145 -54.5t61 -137.5q0 -55 -34 -113l20 -10q54 -29 108.5 -29t86.5 29q33 27 33 78q0 29 -53 86.5t-121 103.5l-25 2q-41 3 -73 32t-32 77.5t39.5 77t98 28.5t95.5 -17.5t65 -55.5q32 36 79 55.5t96 19.5q15 0 22 -1q19 37 19 57q0 37 -36 57q-22 12 -22 24t9 21q10 8 25 8
q31 0 59.5 -33.5t28.5 -75t-19 -69.5q84 -27 84 -113q0 -42 -29 -73t-83.5 -31t-81.5 34q-23 26 -23 70t35 66z" />
    <glyph glyph-name="KhaAU" horiz-adv-x="1003" 
d="M99 303q0 -35 31 -35q16 0 30 11.5t14 28.5t-11 27q-12 10 -27.5 10t-26 -12t-10.5 -30zM124 93q0 -34 51 -34q72 0 109 39q-15 16 -44 25.5t-54.5 9.5t-43.5 -13.5t-18 -26.5zM301 -2q15 16 35 16t20 -19v-167q-18 -23 -50 -23q-18 0 -18 15v138q0 23 13 40zM629 481
q0 -81 -89 -106l44 -32q60 -44 85 -80q24 -38 24 -85q0 -75 -57 -127.5t-129.5 -52.5t-146.5 42l-29 16q-57 -63 -153 -63q-52 0 -87.5 28t-35.5 70t34.5 69.5t92.5 27.5t141 -48q18 35 18 88t-36 92q-37 38 -99 38q20 -18 20 -55.5t-31.5 -62.5t-72.5 -25t-66.5 24
t-25.5 57q0 53 45 85t129 32t145 -54.5t61 -137.5q0 -55 -34 -113l20 -10q54 -29 108.5 -29t86.5 29q33 27 33 78q0 29 -53 86.5t-121 103.5h-25v59h39q97 0 97 56q0 29 -28 43.5t-73 14.5l-87 -4q-33 0 -48 4q-26 7 -26 32t12 32t37 7h75l213 3l200 12q48 0 88 -21
q59 -31 59 -98q0 -46 -36.5 -81.5t-101.5 -35.5t-92 27t-27 53q0 51 49 51q28 0 36 -34.5t44 -34.5q20 0 35.5 12.5t15.5 32.5q0 63 -87 63q-36 0 -109 -6q-72 -8 -109 -8q28 -19 28 -64z" />
    <glyph glyph-name="GaAA" horiz-adv-x="879" 
d="M119 61q0 -58 -44 -58q-19 0 -30 18.5t-11 49.5q0 133 77 244q23 34 47 57q-128 6 -128 37q0 40 59 40q40 -16 222 -16q60 0 179.5 15.5t179.5 15.5q98 0 143.5 -29t45.5 -91q0 -46 -32.5 -72t-83 -26t-80 20t-29.5 44.5t16 38.5t36 14q39 0 47 -27q-7 -7 -7 -16.5
t8 -14.5q6 -6 20 -6t22 11q10 11 10 31q0 34 -30 48q-28 15 -92 15t-146.5 -11.5t-121.5 -15.5q35 -32 69 -82q89 -134 89 -277q0 -35 -38 -35q-31 0 -31 26q0 114 -70 229.5t-135 115.5t-114 -78q-47 -78 -47 -178v-37z" />
    <glyph glyph-name="GaI" horiz-adv-x="576" 
d="M293 386q23 17 23 43t-21 44q-22 17 -57 17t-61.5 -19.5t-26.5 -45t22.5 -40.5t59.5 -15t61 16zM241 265q-35 0 -88.5 -78.5t-53.5 -135.5t-30 -57q-23 0 -31 7.5t-8 28.5q0 59 54.5 152.5t113.5 136.5q-49 0 -83 29.5t-34 76t44.5 81.5t112 35t107.5 -31.5t40 -85.5
q0 -35 -29.5 -64t-74.5 -39q74 -16 174.5 -133.5t100.5 -188.5q0 -18 -13.5 -29.5t-30.5 -11.5q-32 0 -44 42q-25 88 -102 176q-75 89 -125 89z" />
    <glyph glyph-name="GaII" horiz-adv-x="583" 
d="M289 473q-23 17 -58 17t-61 -19.5t-26 -45t22.5 -40.5t59.5 -15t60.5 16.5t23.5 42.5t-21 44zM241 265q-35 0 -88.5 -78.5t-53.5 -135.5t-30 -57q-23 0 -31 7.5t-8 28.5q0 64 50.5 159.5t104.5 135.5q-45 0 -77.5 27.5t-32.5 68t33 74.5q31 34 80 43q-34 35 -46.5 58.5
t-12.5 52.5q0 49 45.5 80.5t121 31.5t124.5 -36t49 -97q0 -23 -9 -37q-7 -13 -23 -13q-37 0 -37 25l3 25q0 33 -30 55.5t-74.5 22.5t-72.5 -20t-28 -49t16 -49t64 -50q43 -8 72 -40.5t29 -70t-25.5 -64.5t-65.5 -35q73 -17 174 -139.5t101 -195.5q0 -18 -14 -30t-31 -12
q-32 0 -44 43q-26 90 -103.5 180.5t-129.5 90.5z" />
    <glyph glyph-name="GaU" horiz-adv-x="915" 
d="M115 61q0 -58 -44 -58q-18 0 -30 18q-11 19 -11 50q0 133 78 244q35 53 74 81q-29 22 -29 52q0 51 101 112q79 48 110.5 79.5t46.5 88.5q9 38 53 38q19 -1 29 -15q10 -11 10 -31q0 -32 -47 -91q-20 -25 -115.5 -90t-95.5 -89q0 -16 22 -23l8 1q96 0 186 -133
q39 -59 61 -120q11 -7 11 -20q6 -40 49.5 -67t103 -27t97.5 29.5t38 78.5q0 95 -156 192q-76 47 -76 69q0 18 10 26q10 12 30 12t77 -49q44 -36 81 -65.5t70 -85t33 -103.5q5 -85 -55 -129.5t-166 -44.5q-67 0 -119 29v-2q0 -35 -37 -35q-32 0 -32 26q0 114 -70 229.5
t-135 115.5t-113 -78t-48 -178v-37z" />
    <glyph glyph-name="GaUU" horiz-adv-x="1044" 
d="M115 61q0 -58 -44 -58q-18 0 -30 18q-11 19 -11 50q0 133 78 244q35 53 74 81q-29 22 -29 52q0 51 101 112q79 48 110.5 79.5t46.5 88.5q9 38 53 38q19 -1 29 -15q10 -11 10 -31q0 -32 -47 -91q-20 -25 -115.5 -90t-95.5 -89q0 -16 22 -23l8 1q96 0 186 -133
q41 -61 63 -124q10 -25 13.5 -46.5t51.5 -54.5q32 -15 76 -15t73.5 15.5t29.5 39.5q0 48 -98 106q-106 65 -106 120t58.5 83.5t122.5 28.5q113 0 189 -38q90 -42 90 -124q-9 -40 -37 -67.5t-72.5 -27.5t-72.5 21.5t-28 62.5q0 19 8 29t27.5 10t26.5 -7.5t7 -26.5v-21
q0 -20 23 -20t37 12q12 13 12 28q0 52 -60.5 81.5t-138.5 29.5q-123 0 -123 -52q0 -20 70 -68q133 -90 133 -162q-10 -54 -50.5 -84t-114.5 -30t-121 27v-3q0 -35 -37 -35q-32 0 -32 26q0 114 -70 229.5t-135 115.5t-113 -78t-48 -178v-37z" />
    <glyph glyph-name="GaE" horiz-adv-x="576" 
d="M153 401q0 29 30 29l185 -4q42 0 80 24q38 26 38 60t-32 50q-26 14 -70.5 14t-133.5 -9.5t-128 -9.5t-62 9q-30 11 -30 34q0 12 6.5 21.5t19.5 9.5l64 -1q45 0 133 8t133 8q70 0 120 -39.5t50 -95.5q0 -73 -57 -110q-39 -24 -97 -30q31 -29 62 -74q89 -134 89 -277
q0 -35 -38 -35q-15 0 -24 6q-7 7 -7 20q0 114 -70 229.5t-135 115.5t-114 -78q-47 -78 -47 -178v-37q0 -58 -44 -58q-19 0 -30 18.5t-11 49.5q0 133 77 244q27 40 56 65q-13 9 -13 21z" />
    <glyph glyph-name="GaEE" horiz-adv-x="708" 
d="M178 401q0 29 30 29l160 -4q42 0 80 25t38 59t-32 50q-26 14 -71 14t-136 -9.5t-130 -9.5q-87 0 -87 43q0 12 6.5 21.5t19.5 9.5l45 -1q48 0 142.5 8t141.5 8q-10 27 -10 64q0 52 44.5 83.5t111.5 31.5t122 -29q75 -40 75 -119q0 -36 -14 -60q-16 -30 -48 -30
q-16 0 -29 7t-13 17.5t14.5 29.5t14.5 45q0 39 -43 60q-34 17 -72 17t-63 -16q-29 -17 -29 -54t15 -58q40 -15 68 -50q27 -37 27 -74q0 -73 -57 -110q-35 -22 -85 -29q31 -29 62 -75q89 -134 89 -277q0 -35 -37 -35q-32 0 -32 26q0 114 -70 229.5t-135 115.5t-113 -78
t-48 -178v-37q0 -58 -44 -58q-18 0 -30 18q-11 19 -11 50q0 133 78 244q29 44 61 71q-6 7 -6 15z" />
    <glyph glyph-name="GaO" horiz-adv-x="889" 
d="M789 448q14 15 14 38.5t-15 41t-34.5 17.5t-31.5 -17t-12 -40.5t14 -40t33 -16.5t32 17zM115 61q0 -58 -44 -58q-18 0 -30 18q-11 19 -11 50q0 133 78 244q37 55 78 84q-35 32 -35 79.5t54 81.5t121 34q128 0 198 -66q22 35 68.5 55.5t114.5 20.5t115 -32.5t47 -81.5
t-31 -80q-32 -30 -77 -30t-77.5 29t-32.5 70q0 49 35 71q-50 0 -85.5 -25t-35.5 -61q0 -14 -11 -23.5t-26 -9.5q-28 0 -37 27q-7 33 -51 56q-44 21 -97.5 21t-87.5 -17q-32 -19 -32 -41.5t14 -34.5t27 -15l11 1q13 0 26 -3h3q81 -17 157 -130q89 -134 89 -277q0 -35 -37 -35
q-32 0 -32 26q0 114 -70 229.5t-135 115.5t-113 -78t-48 -178v-37z" />
    <glyph glyph-name="GaOO" horiz-adv-x="845" 
d="M766 464q0 17 -16 38t-44 38q-18 -44 -13 -65t17 -35q14 -14 28 -14q28 0 28 38zM664 413q-31 28 -31 70.5t10 60.5q-39 4 -68 -18.5t-29 -57.5q0 -13 -10 -23q-11 -9 -24 -9t-22.5 7.5t-11.5 20.5q-7 31 -45 51q-39 20 -89 20t-83 -16t-33 -38.5t12.5 -36t24.5 -17.5
l10 1q13 0 26 -3h8v-2q78 -19 152 -128q89 -134 89 -277q0 -35 -37 -35q-32 0 -32 26q0 114 -70 229.5t-135 115.5t-113 -78t-48 -178v-37q0 -58 -44 -58q-18 0 -30 18q-11 19 -11 50q0 133 78 244q38 57 81 86q-33 32 -33 78.5t54 80.5t130 34q108 0 170 -60q29 34 69 51.5
t84 14.5q21 75 52 122t59 47q15 0 26 -11q10 -12 10 -27q-67 -44 -90 -138q48 -19 76 -52q29 -31 29 -66.5t-25.5 -63.5t-65.5 -28t-70 30z" />
    <glyph glyph-name="GaAU" horiz-adv-x="858" 
d="M675 504q-11 -11 -11 -26t14 -28q15 -11 35.5 -11t35.5 14.5t15 37.5t-26 42q-27 17 -63 17l-267 -11q17 -6 27 -26q11 -19 11 -45q0 -43 -46 -72q-9 -6 -19 -10q41 -33 80 -91q89 -134 89 -277q0 -35 -37 -35q-32 0 -32 26q0 114 -70 229.5t-135 115.5t-113 -78
t-48 -178v-37q0 -58 -44 -58q-18 0 -30 18q-11 19 -11 50q0 133 78 244q76 113 167 113q12 0 23 -2q31 2 56.5 15t25.5 35.5t-38 40t-92 17.5l-96 -3q-15 0 -26.5 11t-11.5 26t24.5 25.5t59.5 10.5l254 -3l247 4q57 0 97 -28t40 -67q0 -54 -42 -92q-40 -39 -93 -39t-87 25
q-33 25 -33 60q0 20 17 35q18 14 38 14t37 -9z" />
    <glyph glyph-name="GhaAA" horiz-adv-x="1121" 
d="M214 90q0 25 -17 36.5t-32.5 11.5t-32 -16.5t-16.5 -30t12 -23.5q13 -13 30.5 -13t37.5 14q18 14 18 21zM834 390q-124 0 -124 -52q0 -20 70 -68q134 -90 134 -162q0 -52 -42 -83t-124.5 -31t-136.5 44q-29 24 -43 52q-14 -23 -35 -44q-57 -52 -127 -52q-51 0 -84 12
t-57 53q-47 -70 -112 -70q-45 0 -75 22t-30 65.5t33 82.5q42 47 101 47t106 -72q46 -74 105 -74q43 0 87 27.5t44 78.5q0 75 -80 122q-50 28 -50 58q0 14 14.5 25.5t31.5 11.5q71 -45 111 -98q42 -52 42 -101l-1 -11q17 -13 21 -24q0 -55 60 -79q36 -15 76.5 -15t69.5 16
q26 17 26 39q0 48 -102 109.5t-102 116.5t64 87q54 25 118 25q112 0 188 -38q90 -42 90 -124q-8 -40 -36.5 -67.5t-72.5 -27.5t-72 20q-29 23 -29 64q0 19 8.5 29t27.5 10t26 -6q7 -9 7 -28v-21q0 -20 23 -20t37 12q13 13 13 28q0 52 -61 81.5t-138 29.5zM223 -47
q0 47 40 47q17 0 30 -5t7 -23.5t-5 -66.5l1 -55q0 -4 -1.5 -22.5t8.5 -41.5q0 -15 -17 -22.5t-32.5 -7.5t-20.5 17q-5 13 -5 48v65q0 45 -5 67zM240 476l-25 -23q-109 -108 -117 -140q-7 -18 -12 -23q-6 -9 -21 -9t-25 8.5t-10 23.5q0 46 113 151q48 46 61 62q42 64 77 127
q19 35 34 35t29 -10q14 -13 14 -21.5t-2 -11.5q-33 -80 -116 -169z" />
    <glyph glyph-name="GhaI" horiz-adv-x="976" 
d="M214 90q0 25 -17 36.5t-32.5 11.5t-32 -16.5t-16.5 -30t12 -23.5q13 -13 30.5 -13t37.5 14q18 14 18 21zM265 59q-47 -70 -112 -70q-45 0 -75 22t-30 65.5t33 82.5q42 47 101 47t106 -72q46 -74 105 -74q43 0 87 27.5t44 78.5q0 75 -80 122q-50 28 -50 58q0 14 14.5 25.5
t31.5 11.5q71 -45 111 -98q42 -52 42 -101q0 -14 -2 -26q3 -5 3 -9q5 -38 49.5 -63t103.5 -25t97.5 29.5t38.5 78.5q0 95 -157 192q-76 47 -76 69q0 18 10 26q10 12 30 12t70.5 -42.5t87.5 -72t70 -85t33 -103.5q5 -85 -55 -129.5t-156 -44.5q-126 0 -188 76
q-60 -73 -146 -73q-51 0 -84 12t-57 53zM223 -47q0 47 40 47q17 0 30 -5t7 -23.5t-5 -66.5l1 -55q0 -4 -1.5 -22.5t8.5 -41.5q0 -15 -17 -22.5t-32.5 -7.5t-20.5 17q-5 13 -5 48v65q0 45 -5 67zM268 430q4 15 4 48t-20 62t-58.5 29t-67.5 -25q-33 -26 -33 -62t26 -55t58 -19
q59 0 91 22zM309 317q-3 -10 -15 -15q-10 -6 -23.5 -6t-21.5 5q-8 3 -8 12t8 26q11 18 13 32q-44 -17 -80 -17q-64 0 -108 29.5t-44 90t51.5 106.5t129.5 46q45 0 77 -32q42 -42 42 -123.5t-21 -153.5z" />
    <glyph glyph-name="GhaII" horiz-adv-x="1034" 
d="M154 471q0 -69 83 -69q32 0 59 19t27 50q0 63 -92 63q-27 0 -52 -17.5t-25 -45.5zM271 90q0 25 -16.5 36.5t-32.5 11.5t-32 -16.5t-16 -30t12.5 -25t30 -11.5t37.5 14q17 14 17 21zM163 571q-133 47 -133 142q0 73 60.5 112.5t155.5 39.5q60 0 109.5 -35t49.5 -97
q0 -26 -6.5 -42.5t-24 -16.5t-29 9t-11.5 20l2 38q0 24 -21 43q-31 24 -83 24t-93 -28.5t-41 -61.5q0 -45 67 -85q49 -29 113 -46q49 -8 81.5 -37.5t32.5 -69.5q0 -60 -41.5 -95.5t-113.5 -35.5t-112 36t-40 86q0 64 78 100zM610 67q-60 -73 -146 -73q-51 0 -84.5 12
t-56.5 53q-24 -36 -54.5 -53t-67 -17t-66.5 22t-30 65.5t37.5 86.5t97 43t105.5 -73t105 -73q44 0 87.5 27.5t43.5 78.5q0 75 -80 122q-50 28 -50 58q0 14 14.5 25.5t32.5 11.5q71 -45 111.5 -97.5t40.5 -101.5q0 -14 -2 -26q3 -5 3 -9q5 -38 49.5 -63t104 -25t97.5 29.5
t38 78.5q0 95 -156 192q-76 47 -76 69q0 18 10 26q10 12 30 12t77 -49q44 -36 71 -58q47 -37 80 -92.5t33 -103.5q5 -85 -55 -129.5t-156 -44.5q-126 0 -188 76zM280 -47q0 47 40 47q18 0 31 -5t6.5 -23.5t-4.5 -66.5l1 -55q0 -4 -2 -22.5t8 -41.5q0 -15 -17 -22.5
t-32.5 -7.5t-20.5 17q-5 13 -5 48v65q0 45 -5 67z" />
    <glyph glyph-name="GhaU" horiz-adv-x="1225" 
d="M214 90q0 25 -17 36.5t-32.5 11.5t-32 -16.5t-16.5 -30t12 -23.5q13 -13 30.5 -13t37.5 14q18 14 18 21zM833 61q-46 -67 -142 -67q-70 0 -113 50q-13 14 -21 29q-62 -79 -151 -79q-51 0 -84 12t-57 53q-47 -70 -112 -70q-45 0 -75 22t-30 65.5t33 82.5q42 47 101 47
t106 -72q46 -74 105 -74q43 0 87 27.5t44 78.5q0 75 -80 122q-50 28 -50 58q0 14 14.5 25.5t31.5 11.5q71 -45 111 -98q42 -52 42 -101q0 -10 -1 -19q5 -7 9 -21q9 -35 33 -58t61.5 -23t64.5 20q31 21 31 60q0 61 -32 117q-15 26 -15 38.5t12 22.5q13 10 27 10q28 0 48 -47
q18 -40 23 -95q0 -59 37 -101t99.5 -42t102.5 36t40 91.5t-50 106.5q-30 31 -82 62.5t-76 51.5t-24 36t12 28t31 12t45 -17q16 -13 50 -44l56 -50q48 -40 79 -88t31 -93q0 -87 -62.5 -142t-163.5 -55q-41 0 -82 26t-64 54zM223 -47q0 47 40 47q17 0 30 -5t7 -23.5t-5 -66.5
l1 -55q0 -4 -1.5 -22.5t8.5 -41.5q0 -15 -17 -22.5t-32.5 -7.5t-20.5 17q-5 13 -5 48v65q0 45 -5 67zM240 476l-25 -23q-109 -108 -117 -140q-7 -18 -12 -23q-6 -9 -21 -9t-25 8.5t-10 23.5q0 46 113 151q48 46 61 62q42 64 77 127q19 35 34 35t29 -10q14 -13 14 -21.5
t-2 -11.5q-33 -80 -116 -169z" />
    <glyph glyph-name="GhaUU" horiz-adv-x="1338" 
d="M214 90q0 25 -17 36.5t-32.5 11.5t-32 -16.5t-16.5 -30t12 -23.5q13 -13 30.5 -13t37.5 14q18 14 18 21zM815 60q-45 -62 -132 -62t-131 69q-60 -73 -146 -73q-51 0 -84 12t-57 53q-47 -70 -112 -70q-45 0 -75 22t-30 65.5t33 82.5q42 47 101 47t106 -72q46 -74 105 -74
q43 0 87 27.5t44 78.5q0 75 -80 122q-50 28 -50 58q0 14 14.5 25.5t31.5 11.5q71 -45 111 -98q42 -52 42 -101q0 -20 -4 -39q1 -5 1 -10q0 -31 26 -54q28 -22 66.5 -22t69.5 22t31 62q0 66 -34 123q-14 23 -14 33t11 20q12 9 24 9q28 0 48 -51.5t20 -101.5t40 -83.5
t98 -36.5q45 0 73 15q27 15 27 40q0 50 -100.5 112.5t-100.5 117t69 81.5q51 20 140 20t156 -37q78 -43 78 -118q0 -37 -25 -65q-29 -30 -71.5 -30t-70 22.5t-27.5 61.5q0 15 10.5 25t29.5 10q34 0 34 -30q0 -1 -5 -7.5t-5 -13.5q0 -24 30 -24q20 0 33.5 14t13.5 31
q0 58 -61 86t-124.5 28t-97.5 -17t-34 -43q0 -16 17.5 -32.5t55.5 -41.5v1q63 -42 87 -66q43 -42 43 -86.5t-58 -77.5t-122 -33q-107 0 -156 62zM223 -47q0 47 40 47q17 0 30 -5t7 -23.5t-5 -66.5l1 -55q0 -4 -1.5 -22.5t8.5 -41.5q0 -15 -17 -22.5t-32.5 -7.5t-20.5 17
q-5 13 -5 48v65q0 45 -5 67zM240 476l-25 -23q-109 -108 -117 -140q-7 -18 -12 -23q-6 -9 -21 -9t-25 8.5t-10 23.5q0 46 113 151q48 46 61 62q42 64 77 127q19 35 34 35t29 -10q14 -13 14 -21.5t-2 -11.5q-33 -80 -116 -169z" />
    <glyph glyph-name="GhaE" horiz-adv-x="969" 
d="M207 90q0 25 -17 36.5t-32.5 11.5t-32 -16.5t-16.5 -30t12 -23.5q13 -13 30.5 -13t37.5 14q18 14 18 21zM1 553q-116 0 -118 27q1 16 13 28.5t23.5 12.5t41.5 -5t61 -5l205 22q71 0 111 -49q33 -40 33 -91.5t-46.5 -89t-112.5 -37.5q-31 0 -51 8q-27 10 -27 27
q0 38 42 28q22 -5 61 -2t57 27q13 15 13 37q0 45 -29 61.5t-80 16.5zM258 59q-47 -70 -112 -70q-45 0 -75 22t-30 65.5t33 82.5q42 47 101 47t106 -72q46 -74 105 -74q43 0 87 27.5t44 78.5q0 75 -80 122q-50 28 -50 58q0 14 14.5 25.5t31.5 11.5q71 -45 111 -98
q42 -52 42 -101q0 -14 -2 -26q3 -5 3 -9q5 -38 49.5 -63t103.5 -25t97.5 29.5t38.5 78.5q0 95 -157 192q-76 47 -76 69q0 18 10 26q10 12 30 12t70.5 -42.5t87.5 -72t70 -85t33 -103.5q5 -85 -55 -129.5t-155 -44.5q-127 0 -189 76q-60 -73 -146 -73q-51 0 -84 12t-57 53z
M216 -47q0 47 40 47q17 0 30 -5t7 -23.5t-5 -66.5l1 -55q0 -4 -1.5 -22.5t8.5 -41.5q0 -15 -17 -22.5t-32.5 -7.5t-20.5 17q-5 13 -5 48v65q0 45 -5 67z" />
    <glyph glyph-name="GhaEE" horiz-adv-x="970" 
d="M188 129q-14 9 -29.5 9t-32 -16.5t-16.5 -30t12.5 -25t30 -11.5t37.5 14q18 14 18 21q0 25 -20 39zM490 578q-44 0 -44 27q0 8 14.5 26t14.5 44q0 39 -38 59t-76 20t-65 -17.5t-27 -50.5q0 -52 27 -75q32 -20 50.5 -51t18.5 -66q0 -66 -49.5 -97t-126.5 -31q-28 0 -43 7
q-20 6 -20 21.5t9 28t21 12.5l52 -11q32 0 57 18.5t30 47.5q0 45 -27 60.5t-74 15.5l-264 -15q-80 0 -80 39q0 31 26 31l114 -1l216 15q-8 30 -8 65q0 53 44 84t111 31t122 -29q76 -40 76 -120q0 -35 -15 -61.5t-46 -26.5zM546 67q-60 -73 -146 -73q-51 0 -84 12t-57 53
q-24 -36 -54.5 -53t-67 -17t-66.5 22t-30 65.5t37.5 86.5t97 43t106 -73t104.5 -73q44 0 88 27.5t44 78.5q0 75 -80 122q-50 28 -50 58q0 14 15 25q13 12 31 12q71 -45 111.5 -97.5t40.5 -101.5q0 -14 -1 -26q3 -5 3 -9q5 -38 49 -63t103.5 -25t97.5 29.5t38 78.5
q0 95 -156 192q-76 47 -76 69q0 18 10 26q10 12 30 12t77 -49q44 -36 81 -65.5t70 -85t33 -103.5q5 -85 -55 -129.5t-156 -44.5q-126 0 -188 76zM216 -47q0 47 40 47q18 0 31 -5t7 -23.5t-5 -66.5l1 -55q0 -4 -2 -22.5t8 -41.5q0 -15 -16.5 -22.5t-32.5 -7.5t-21 17
q-5 13 -5 48v65q0 45 -5 67z" />
    <glyph glyph-name="GhaO" horiz-adv-x="1223" 
d="M208 90q0 25 -17 36.5t-32.5 11.5t-32 -16.5t-16.5 -30t12 -23.5q13 -13 30.5 -13t37.5 14q18 14 18 21zM2 553q-116 0 -118 27q1 16 13 28.5t23.5 12.5t41.5 -5t61 -5l205 22q71 0 111 -49q33 -40 33 -91.5t-46.5 -89t-112.5 -37.5q-31 0 -51 8q-27 10 -27 27
q0 38 42 28q22 -5 61 -2t57 27q13 15 13 37q0 45 -29 61.5t-80 16.5zM830 61q-44 -67 -141 -67q-70 0 -114 50q-14 15 -22 32q-62 -82 -153 -82q-51 0 -84 12t-57 53q-47 -70 -112 -70q-45 0 -75 22t-30 65.5t33 82.5q42 47 101 47t106 -72q46 -74 105 -74q43 0 87 27.5
t44 78.5q0 75 -80 122q-50 28 -50 58q0 14 14.5 25.5t31.5 11.5q71 -45 111 -98q42 -52 42 -101v-15q7 -8 14 -34t29 -49q25 -23 62.5 -23t67 20.5t29.5 59.5q0 71 -44 137q-3 10 -3 20.5t12 20.5q13 10 26 10q29 0 49 -47q18 -40 23 -95q0 -59 36.5 -101t99 -42t102.5 36
t40 91.5t-50 106.5q-30 31 -81.5 62.5t-75.5 51.5t-24 36t11 28q13 12 31.5 12t45.5 -17q16 -13 50 -44l56 -50q47 -40 78.5 -88t31.5 -93q0 -87 -62.5 -142t-163.5 -55q-42 0 -82.5 26t-64.5 54zM217 -47q0 47 40 47q17 0 30 -5t7 -23.5t-5 -66.5l1 -55q0 -4 -1.5 -22.5
t8.5 -41.5q0 -15 -17 -22.5t-32.5 -7.5t-20.5 17q-5 13 -5 48v65q0 45 -5 67z" />
    <glyph glyph-name="GhaOO" horiz-adv-x="1096" 
d="M207 90q0 25 -17 36.5t-32.5 11.5t-32 -16.5t-16.5 -30t12 -23.5q13 -13 30.5 -13t37.5 14q18 14 18 21zM1 553q-116 0 -118 27q1 16 13 28.5t23.5 12.5t41.5 -5t61 -5l205 22q71 0 111 -49q33 -40 33 -91.5t-46.5 -89t-112.5 -37.5q-31 0 -51 8q-27 10 -27 27
q0 38 42 28q22 -5 61 -2t57 27q13 15 13 37q0 45 -29 61.5t-80 16.5zM808 390q-124 0 -124 -52q0 -20 70 -68q134 -90 134 -162q0 -52 -42 -83t-124.5 -31t-135.5 44q-22 17 -35 37q-11 -15 -25 -29q-57 -52 -127 -52q-51 0 -84 12t-57 53q-47 -70 -112 -70q-45 0 -75 22
t-30 65.5t33 82.5q42 47 101 47t106 -72q46 -74 105 -74q43 0 87 27.5t44 78.5q0 75 -80 122q-50 28 -50 58q0 14 14.5 25.5t31.5 11.5q71 -45 111 -98q42 -52 42 -101q0 -15 -2 -29q2 -3 3 -6q0 -55 60 -79q36 -15 76.5 -15t69.5 16q26 17 26 39q0 48 -97 106
q-106 65 -106 120t63 87q54 25 118 25q112 0 189 -38q90 -42 90 -124q-9 -40 -37 -67.5t-72.5 -27.5t-72.5 20q-28 23 -28 64q0 19 8 29t27.5 10t26 -7.5t6.5 -26.5v-21q0 -20 23.5 -20t36.5 12.5t13 27.5q0 52 -60.5 81.5t-138.5 29.5zM216 -47q0 47 40 47q17 0 30 -5
t7 -23.5t-5 -66.5l1 -55q0 -4 -1.5 -22.5t8.5 -41.5q0 -15 -17 -22.5t-32.5 -7.5t-20.5 17q-5 13 -5 48v65q0 45 -5 67z" />
    <glyph glyph-name="GhaAU" horiz-adv-x="1208" 
d="M214 90q0 25 -17 36.5t-32.5 11.5t-32 -16.5t-16.5 -30t12 -23.5q13 -13 30.5 -13t37.5 14q18 14 18 21zM731 421q185 -118 185 -243q7 -87 -54 -137t-166 -50q-72 0 -122 45q-15 13 -25 27q-61 -69 -143 -69q-51 0 -84 12t-57 53q-47 -70 -112 -70q-45 0 -75 22
t-30 65.5t33 82.5q42 47 101 47t106 -72q46 -74 105 -74q43 0 87 27.5t44 78.5q0 75 -80 122q-50 28 -50 58q0 14 14.5 25.5t31.5 11.5q71 -45 111 -98q42 -52 42 -101q0 -15 -1 -23.5t-1 -11.5q5 -40 37 -64t88.5 -24t94 29.5t37.5 78.5q0 102 -154 190q-78 45 -78 71
q0 38 72.5 46.5t72.5 48.5q0 35 -40 49q-30 11 -95 11q-15 0 -23.5 10t-8.5 27q0 33 34 33h421q70 5 104.5 -28.5t34.5 -87t-42 -85.5q-35 -30 -88 -30t-85.5 31t-32.5 56q0 53 46 53q27 0 35 -37t47 -37q20 0 35.5 15t15.5 35q0 63 -88 63l-230 -14q12 -10 18 -23
q11 -18 11 -44.5t-28.5 -57t-70.5 -43.5zM223 -47q0 47 40 47q17 0 30 -5t7 -23.5t-5 -66.5l1 -55q0 -4 -1.5 -22.5t8.5 -41.5q0 -15 -17 -22.5t-32.5 -7.5t-20.5 17q-5 13 -5 48v65q0 45 -5 67zM240 476l-25 -23q-109 -108 -117 -140q-7 -18 -12 -23q-6 -9 -21 -9t-25 8.5
t-10 23.5q0 46 113 151q48 46 61 62q42 64 77 127q19 35 34 35t29 -10q14 -13 14 -21.5t-2 -11.5q-33 -80 -116 -169z" />
    <glyph glyph-name="NGaAA" horiz-adv-x="980" 
d="M834 443l-5 -29q0 -9 8 -14.5t22 -5.5t25.5 13.5t11.5 33.5q0 35 -73.5 59.5t-171 24.5t-151.5 -17t-69 -35v-34q7 -6 19 -11q28 -13 28 -28q0 -12 -9 -21.5t-19.5 -9.5t-18.5 1v-19h103q14 3 25 -6.5t11 -20.5q0 -24 -21 -32t-71 -8l-212 16q-27 -82 -27 -159v-12
q-1 -58 12 -58q9 0 32 43q43 81 78 81q17 0 30 -29q27 -54 55 -80q38 -33 75 -33t70 20.5t33 65.5t-48 71q-18 11 -18 22.5t15 24.5t40 13t52.5 -32.5t27.5 -95.5t-49 -109.5t-117.5 -46.5t-119.5 41t-69 83q-56 -115 -107 -115q-33 4 -50 46q-11 33 -11 77q0 95 54 240
q1 2 1 7t-3.5 9t-7.5 4q-29 0 -72 -32.5t-43 -59.5q0 -11 22 -15q35 -6 35 -35q0 -18 -15 -29t-43 -11t-48 22t-20 57q0 61 68 113q66 47 140 47q25 0 37 -5q19 -7 19 -30.5t-5 -38.5l85 -7l-3 38q-31 23 -31 56q0 56 91 95q90 40 219 40t219.5 -43.5t90.5 -103.5
q0 -41 -32 -71q-33 -29 -76 -29t-73 25q-29 25 -29 62q0 20 13 33.5t30 13.5t30 -7q11 -9 11 -20z" />
    <glyph glyph-name="NgaI" horiz-adv-x="713" 
d="M560 489q0 71 -96 71q-29 0 -49 -14.5t-26 -31.5l7 1q17 0 25 -7t10 -24v-57q17 -4 44.5 -4t56 20t28.5 46zM631 504q0 -136 -163 -136q-20 0 -37 2v-19h103q14 3 25 -6.5t11 -20.5q0 -24 -21 -32t-71 -8l-212 16q-27 -82 -27 -159v-12q-1 -58 12 -58q9 0 32 43
q43 81 78 81q17 0 30 -29q27 -54 55 -80q38 -33 75 -33t70 20.5t33 65.5t-48 71q-18 11 -18 22.5t15 24.5t40 13t52.5 -32.5t27.5 -95.5t-49 -109.5t-117.5 -46.5t-119.5 41t-69 83q-56 -115 -107 -115q-33 4 -50 46q-11 33 -11 77q0 95 54 240q1 2 1 7t-3.5 9t-7.5 4
q-29 0 -72 -32.5t-43 -59.5q0 -11 22 -15q35 -6 35 -35q0 -18 -15 -29t-43 -11t-48 22t-20 57q0 61 68 113q66 47 140 47q25 0 37 -5q19 -7 19 -30.5t-5 -38.5l85 -7l-3 39q-7 4 -13 10q-44 35 -44 89t52 90t114.5 36t106.5 -33.5t44 -80.5z" />
    <glyph glyph-name="NGaII" horiz-adv-x="713" 
d="M374 507q7 8 23 8t24 -7t10 -24v-58q13 -2 36.5 -2t52 20t28.5 52q0 65 -97 65q-28 0 -50.5 -16t-26.5 -38zM468 904q62 0 113.5 -36.5t51.5 -99t-34 -62.5q-16 0 -28 9.5t-12 20.5l2 39q0 25 -26.5 47.5t-81 22.5t-97 -29.5t-42.5 -64.5q0 -46 70 -87q50 -29 117 -48
q50 -8 84 -39t34 -72q0 -64 -35 -99q-40 -37 -123 -37q-15 0 -30 2v-20h103q14 3 25 -6.5t11 -20.5q0 -24 -21 -32t-71 -8l-212 16q-27 -82 -27 -159v-12q-1 -58 12 -58q9 0 32 43q43 81 78 81q17 0 30 -29q27 -54 55 -80q38 -33 75 -33t70 20.5t33 65.5t-48 71
q-18 11 -18 22.5t15 24.5t40 13t52.5 -32.5t27.5 -95.5t-49 -109.5t-117.5 -46.5t-119.5 41t-69 83q-56 -115 -107 -115q-33 4 -50 46q-11 33 -11 77q0 95 54 240q1 2 1 7t-3.5 9t-7.5 4q-29 0 -72 -32.5t-43 -59.5q0 -11 22 -15q35 -6 35 -35q0 -18 -15 -29t-43 -11t-48 22
t-20 57q0 61 68 113q66 47 140 47q25 0 37 -5q19 -7 19 -30.5t-5 -38.5l85 -7l-3 35q-70 41 -70 100q0 70 80 110q-137 52 -137 147q0 77 65 118q60 40 159 40z" />
    <glyph glyph-name="NGaU" horiz-adv-x="1084" 
d="M364 478q0 37 32 37q17 0 25 -7t10 -24v-133h103q14 3 25 -6.5t11 -20.5q0 -24 -21 -32t-71 -8l-212 16q-27 -82 -27 -159v-12q-1 -58 12 -58q9 0 32 43q43 81 78 81q17 0 30 -29q27 -54 55 -80q38 -33 75 -33t70 20.5t33 65.5t-48 71q-18 11 -18 22.5t15 24.5t40 13
t48 -27.5t29 -66.5l1 -1q10 -7 10 -20q7 -40 50.5 -67t103 -27t97.5 29.5t38 78.5q0 95 -156 192q-76 47 -76 69q0 18 10 26q10 12 30 12t77 -49q44 -36 71 -58q47 -37 80 -92.5t33 -103.5q5 -85 -55 -129.5t-155.5 -44.5t-155.5 47q-14 10 -25 23q-10 -15 -23 -27
q-50 -48 -118.5 -48t-119.5 41t-69 83q-56 -115 -107 -115q-33 4 -50 46q-11 33 -11 77q0 95 54 240q1 2 1 7t-3.5 9t-7.5 4q-29 0 -72 -32.5t-43 -59.5q0 -11 22 -15q35 -6 35 -35q0 -18 -15 -29t-43 -11t-48 22t-20 57q0 61 68 113q66 47 140 47q25 0 37 -5
q19 -7 19 -30.5t-5 -38.5l85 -7z" />
    <glyph glyph-name="NGaUU" horiz-adv-x="1208" 
d="M920 390q-124 0 -124 -52q0 -20 70 -68q134 -90 134 -162q-10 -54 -50.5 -84t-123 -30t-137.5 44q-13 9 -23 20q-9 -13 -21 -24q-50 -48 -118.5 -48t-119.5 41t-69 83q-56 -115 -107 -115q-33 4 -50 46q-11 33 -11 77q0 95 54 240q1 2 1 7t-3.5 9t-7.5 4q-29 0 -72 -32.5
t-43 -59.5q0 -11 22 -15q35 -6 35 -35q0 -18 -15 -29t-43 -11t-48 22t-20 57q0 61 68 113q66 47 140 47q25 0 37 -5q19 -7 19 -30.5t-5 -38.5l85 -7l-10 124q0 37 32 37q17 0 25 -7t10 -24v-133h103q14 3 25 -6.5t11 -20.5q0 -24 -21 -32t-71 -8l-212 16q-27 -82 -27 -159
v-12q-1 -58 12 -58q9 0 32 43q43 81 78 81q17 0 30 -29q27 -54 55 -80q38 -33 75 -33t70 20.5t33 65.5t-48 71q-18 11 -18 22.5t15 24.5t40 13t49 -28.5t29 -73.5q8 -9 8 -19q0 -55 54 -79q32 -15 76 -15t73 15.5t29 39.5q0 48 -97 106q-106 65 -106 120t63 87q54 25 118 25
q112 0 189 -38q90 -42 90 -124q-9 -40 -37 -67.5t-72.5 -27.5t-72.5 20q-28 23 -28 64q0 19 8 29t27.5 10t26 -7.5t6.5 -26.5v-21q0 -20 23.5 -20t36.5 12.5t13 27.5q0 52 -60.5 81.5t-138.5 29.5z" />
    <glyph glyph-name="NGaE" horiz-adv-x="713" 
d="M88 596q0 32 26 32l89 -2l335 17q61 0 106 -43q44 -44 44 -105.5t-50 -95t-127 -33.5h-80v-15h103q14 3 25 -6.5t11 -20.5q0 -24 -21 -32t-71 -8l-212 16q-27 -82 -27 -159v-12q-1 -58 12 -58q9 0 32 43q43 81 78 81q17 0 30 -29q27 -54 55 -80q38 -33 75 -33t70 20.5
t33 65.5t-48 71q-18 11 -18 22.5t15 24.5t40 13t52.5 -32.5t27.5 -95.5t-49 -109.5t-117.5 -46.5t-119.5 41t-69 83q-56 -115 -107 -115q-33 4 -50 46q-11 33 -11 77q0 95 54 240q1 2 1 7t-3.5 9t-7.5 4q-29 0 -72 -32.5t-43 -59.5q0 -11 22 -15q35 -6 35 -35q0 -18 -15 -29
t-43 -11t-48 22t-20 57q0 61 68 113q66 47 140 47q25 0 37 -5q19 -7 19 -30.5t-5 -38.5l85 -7l-10 124q0 37 32 37q17 0 25 -7t10 -24v-56q85 -6 107 -3q46 10 63 30t17 41q0 45 -27 61t-75 16l-348 -15q-80 0 -80 38z" />
    <glyph glyph-name="NGaEE" horiz-adv-x="854" 
d="M88 596q0 32 26 32l64 -2l351 17q-9 30 -9 63q0 53 44.5 84t111.5 31t122 -28q76 -40 76 -119q0 -36 -15.5 -63t-47.5 -27q-16 0 -29 7t-13 17.5t14.5 29t14.5 45.5q0 38 -38.5 57.5t-76.5 19.5t-65 -17t-27 -49q0 -54 28 -76q31 -20 50 -51.5t19 -66.5q0 -67 -50 -100.5
t-127 -33.5h-80v-15h103q14 3 25 -6.5t11 -20.5q0 -24 -21 -32t-71 -8l-212 16q-27 -82 -27 -159v-12q-1 -58 12 -58q9 0 32 43q43 81 78 81q17 0 30 -29q27 -54 55 -80q38 -33 75 -33t70 20.5t33 65.5t-48 71q-18 11 -18 22.5t15 24.5t40 13t52.5 -32.5t27.5 -95.5
t-49 -109.5t-117.5 -46.5t-119.5 41t-69 83q-56 -115 -107 -115q-33 4 -50 46q-11 33 -11 77q0 95 54 240q1 2 1 7t-3.5 9t-7.5 4q-29 0 -72 -32.5t-43 -59.5q0 -11 22 -15q35 -6 35 -35q0 -18 -15 -29t-43 -11t-48 22t-20 57q0 61 68 113q66 47 140 47q25 0 37 -5
q19 -7 19 -30.5t-5 -38.5l85 -7l-10 124q0 37 32 37q17 0 25 -7t10 -24v-56l99 -4q33 0 58 20.5t30 51.5q0 45 -27 61t-75 16l-348 -15q-80 0 -80 38z" />
    </font>
</defs>
</svg>
